SplineFontDB: 3.2
FontName: Amiri-Regular
FullName: Amiri
FamilyName: Amiri
Weight: Regular
Copyright: 
Version: %s
ItalicAngle: 0
UnderlinePosition: -537
UnderlineWidth: 50
Ascent: 800
Descent: 200
InvalidEm: 0
LayerCount: 2
Layer: 0 0 "Back" 1
Layer: 1 0 "Fore" 0
FSType: 0
OS2Version: 0
OS2_WeightWidthSlopeOnly: 0
OS2_UseTypoMetrics: 1
CreationTime: 1273266481
ModificationTime: 1653152847
PfmFamily: 17
TTFWeight: 400
TTFWidth: 5
LineGap: 0
VLineGap: 0
Panose: 0 0 5 0 0 0 0 0 0 0
OS2TypoAscent: 1124
OS2TypoAOffset: 0
OS2TypoDescent: -634
OS2TypoDOffset: 0
OS2TypoLinegap: 0
OS2WinAscent: 0
OS2WinAOffset: 1
OS2WinDescent: 0
OS2WinDOffset: 1
HheadAscent: 1124
HheadAOffset: 0
HheadDescent: -634
HheadDOffset: 0
OS2CapHeight: 646
OS2XHeight: 433
OS2Vendor: 'ALIF'
Lookup: 259 9 0 "'curs' Cursive Attachment" { "'curs' Cursive Attachment-1"  } ['curs' ('DFLT' <'dflt' > 'arab' <'dflt' 'ARA ' 'URD ' 'SND ' 'KSH ' 'MLY ' > ) ]
Lookup: 260 0 0 "'mark' Generic Mark Anchor" { "'mark' Generic Mark Anchor-1"  "'mark' Generic Mark Anchor-2"  } ['mark' ('DFLT' <'dflt' > 'arab' <'dflt' 'ARA ' 'URD ' 'SND ' 'KSH ' 'MLY ' > 'latn' <'dflt' 'TRK ' > ) ]
Lookup: 260 0 0 "'mark' Dot Above" { "'mark' Dot Above-1"  } ['mark' ('DFLT' <'dflt' > 'arab' <'dflt' 'ARA ' 'URD ' 'SND ' 'KSH ' 'MLY ' > ) ]
Lookup: 260 0 0 "'mark' Dot Below" { "'mark' Dot Below-1"  } ['mark' ('DFLT' <'dflt' > 'arab' <'dflt' 'ARA ' 'URD ' 'SND ' 'KSH ' 'MLY ' > ) ]
Lookup: 260 0 0 "'mark' Dot Below Alt" { "'mark' Dot Below Alt-1"  } ['mark' ('DFLT' <'dflt' > 'arab' <'dflt' 'ARA ' 'URD ' 'SND ' 'KSH ' 'MLY ' > ) ]
Lookup: 260 0 0 "'mark' Dot Alt" { "'mark' Dot Alt-1"  } ['mark' ('DFLT' <'dflt' > 'arab' <'dflt' 'ARA ' 'URD ' 'SND ' 'KSH ' 'MLY ' > ) ]
Lookup: 260 0 0 "'mark' Two Dots Above" { "'mark' Two Dots Above-1"  } ['mark' ('DFLT' <'dflt' > 'arab' <'dflt' 'ARA ' 'URD ' 'SND ' 'KSH ' 'MLY ' > ) ]

StartChar: aAlf.fina.alt
Encoding: 1114112 -1 0
Width: 786
AnchorPoint: "TashkilBelow" 233 -327 basechar 0
AnchorPoint: "TashkilAbove" 366 708 basechar 0
LayerCount: 2
Fore
SplineSet
168 751 m 0
 177 751 181 746 180 737 c 2
 172 675 l 2
 171 665 166 659 157 658 c 0
 135 656 120 652 112 648 c 128
 104 644 100 637 99 628 c 128
 98 619 98 601 98 576 c 0
 99 424 110 323 132 271 c 0
 178 164 280 103 438 90 c 0
 544 81 660 81 788 90 c 0
 811 92 820 83 817 62 c 0
 810 23 801 2 788 0 c 0
 767 -4 693 -6 569 -7 c 0
 352 -9 209 31 141 111 c 24
 106 153 83 215 75 297 c 0
 70 346 67 390 66 430 c 0
 64 552 65 631 70 666 c 0
 73 687 84 707 103 729 c 0
 115 743 137 751 168 751 c 0
EndSplineSet
EndChar

StartChar: aAlf.fina
Encoding: 1114113 -1 1
Width: 229
AnchorPoint: "DigitAbove" -12 630 basechar 0
AnchorPoint: "TashkilBelow" 122 -327 basechar 0
AnchorPoint: "TashkilAbove" 244 684 basechar 0
AnchorPoint: "HamzaAbove" 62 752 basechar 0
AnchorPoint: "HamzaBelow" 122 -54 basechar 0
LayerCount: 2
Fore
SplineSet
77 720 m 2
 84 732 89 727 92 705 c 0
 104 602 112 514 116 440 c 24
 123 301 127 217 129 188 c 0
 134 126 167 94 229 90 c 0
 246 89 254 77 250 54 c 0
 244 18 236 0 229 0 c 0
 141 0 95 41 89 122 c 0
 84 190 80 259 78 328 c 152
 76 397 72 453 66 496 c 128
 60 539 52 588 42 643 c 0
 40 654 41 661 45 668 c 2
 77 720 l 2
EndSplineSet
EndChar

StartChar: aAlf.isol
Encoding: 1114114 -1 2
Width: 217
AnchorPoint: "DigitAbove" -17 625 basechar 0
AnchorPoint: "TashkilBelow" 122 -93 basechar 0
AnchorPoint: "TashkilAbove" 98 757 basechar 0
AnchorPoint: "HamzaAbove" 81 796 basechar 0
AnchorPoint: "HamzaBelow" 161 -39 basechar 0
LayerCount: 2
Back
SplineSet
92.7734375 677.734375 m 2
 102.5390625 701.171875 108.723632812 701.823242188 111.328125 679.6875 c 0
 134.27734375 426.7578125 l 0
 159.993164062 202.1484375 158.528320312 62.1748046875 129.8828125 6.8359375 c 0
 125.9765625 -0.6513671875 122.477539062 -2.5224609375 119.384765625 1.220703125 c 128
 116.291992188 4.9638671875 114.909179688 10.4169921875 115.234375 17.578125 c 24
 116.862304688 96.3544921875 114.665039062 159.342773438 108.642578125 206.54296875 c 128
 102.620117188 253.743164062 95.3779296875 317.219726562 86.9140625 396.97265625 c 2
 65.4296875 592.7734375 l 2
 64.1279296875 603.840820312 65.91796875 615.071289062 70.80078125 626.46484375 c 2
 92.7734375 677.734375 l 2
EndSplineSet
Fore
SplineSet
89 670 m 2
 103 703 112 703 116 672 c 0
 139 427 l 0
 164 206 161 66 130 7 c 0
 126 0 122 -3 119 1 c 128
 116 5 115 11 115 18 c 24
 116 74 112 137 103 207 c 0
 103 210 96 273 82 397 c 2
 60 578 l 2
 59 590 60 602 64 612 c 2
 89 670 l 2
EndSplineSet
EndChar

StartChar: aAyn.fina
Encoding: 1114115 -1 3
Width: 493
AnchorPoint: "DotBelow" 293 -98 basechar 0
AnchorPoint: "TashkilBelow" 342 -24 basechar 0
AnchorPoint: "TashkilAbove" 293 801 basechar 0
AnchorPoint: "TwoDotsAbove" 239 464 basechar 0
AnchorPoint: "DotAbove" 293 464 basechar 0
LayerCount: 2
Fore
SplineSet
418 257 m 24
 448 239 462 221 461 204 c 128
 460 187 453 172 439 158 c 128
 425 144 411 134 395 127 c 1
 391 126 391 123 396 120 c 0
 428 101 460 91 493 90 c 0
 517 89 529 78 527 54 c 24
 524 18 513 0 493 0 c 0
 446 0 386 31 315 92 c 0
 311 95 307 95 302 92 c 0
 172 16 106 -79 101 -193 c 0
 95 -324 166 -408 315 -446 c 1
 399 -468 536 -472 724 -456 c 0
 731 -455 735 -456 736 -460 c 128
 737 -464 734 -468 727 -473 c 0
 705 -488 670 -504 622 -522 c 128
 574 -540 538 -550 514 -551 c 0
 422 -557 342 -551 275 -535 c 0
 111 -495 42 -380 69 -191 c 0
 85 -76 135 22 218 103 c 0
 232 116 242 124 248 129 c 128
 254 134 256 138 253 140 c 0
 236 155 214 163 189 165 c 0
 170 167 163 173 167 183 c 24
 180 215 200 238 226 255 c 24
 289 295 353 296 418 257 c 24
EndSplineSet
EndChar

StartChar: aAyn.init
Encoding: 1114116 -1 4
Width: 477
AnchorPoint: "DotBelow" 239 -98 basechar 0
AnchorPoint: "TashkilBelow" 239 -327 basechar 0
AnchorPoint: "TashkilAbove" 195 801 basechar 0
AnchorPoint: "TwoDotsAbove" 93 537 basechar 0
AnchorPoint: "HamzaAbove" 146 537 basechar 0
AnchorPoint: "DotAbove" 146 537 basechar 0
LayerCount: 2
Fore
SplineSet
414 251 m 2
 394 171 l 2
 392 165 386 161 376 157 c 0
 337 143 288 124 230 100 c 0
 0 0 l 1
 -15 0 -25 12 -30 37 c 128
 -35 62 -25 79 0 90 c 0
 3 91 26 101 69 119 c 1
 38 145 27 175 34 210 c 24
 51 298 104 360 192 397 c 0
 208 404 230 400 257 386 c 128
 284 372 308 354 328 331 c 0
 335 323 336 316 331 310 c 128
 326 304 320 302 311 306 c 0
 272 322 228 324 180 313 c 128
 132 302 103 283 91 255 c 0
 86 244 94 230 113 213 c 128
 132 196 151 186 169 183 c 0
 222 175 284 193 354 238 c 0
 368 247 382 255 393 261 c 24
 412 272 418 268 414 251 c 2
EndSplineSet
EndChar

StartChar: aAyn.isol
Encoding: 1114117 -1 5
Width: 540
AnchorPoint: "DotBelow" 352 49 basechar 0
AnchorPoint: "TashkilBelow" 352 98 basechar 0
AnchorPoint: "TashkilAbove" 244 801 basechar 0
AnchorPoint: "TwoDotsAbove" 126 601 basechar 0
AnchorPoint: "DotAbove" 181 601 basechar 0
AnchorPoint: "HamzaAbove" 181 601 basechar 0
LayerCount: 2
Fore
SplineSet
217 459 m 24
 237 468 260 465 288 449 c 128
 316 433 335 416 346 400 c 0
 353 390 349 387 333 390 c 0
 250 407 179 378 120 304 c 0
 117 300 118 296 123 291 c 0
 170 248 224 230 287 237 c 0
 298 238 313 245 334 257 c 24
 412 305 456 332 466 337 c 0
 478 343 481 337 475 320 c 0
 460 278 448 254 440 250 c 24
 386 226 320 185 242 128 c 0
 155 65 106 -22 94 -131 c 0
 88 -188 101 -239 136 -283 c 0
 191 -352 314 -384 507 -377 c 0
 559 -375 628 -367 712 -352 c 0
 719 -351 724 -351 725 -355 c 0
 728 -365 692 -389 616 -427 c 0
 574 -448 541 -460 518 -462 c 0
 420 -472 339 -470 276 -456 c 0
 130 -423 59 -332 64 -185 c 128
 69 -38 114 78 198 160 c 1
 146 181 111 203 94 226 c 0
 87 235 84 245 85 257 c 0
 88 288 96 317 110 343 c 0
 141 401 176 439 217 459 c 24
EndSplineSet
EndChar

StartChar: aAyn.medi
Encoding: 1114118 -1 6
Width: 366
AnchorPoint: "DotBelow" 156 -98 basechar 0
AnchorPoint: "TashkilBelow" 146 -327 basechar 0
AnchorPoint: "TashkilAbove" 171 801 basechar 0
AnchorPoint: "TwoDotsAbove" 73 488 basechar 0
AnchorPoint: "HamzaAbove" 127 488 basechar 0
AnchorPoint: "DotAbove" 127 488 basechar 0
LayerCount: 2
Fore
SplineSet
366 90 m 0
 389 90 399 79 396 55 c 0
 391 20 381 1 366 0 c 0
 305 -4 243 30 181 103 c 1
 98 34 38 -1 0 0 c 0
 -16 0 -26 13 -31 38 c 0
 -37 72 -26 89 0 90 c 0
 41 92 81 105 118 131 c 1
 97 152 66 165 27 171 c 0
 22 172 21 175 22 182 c 0
 25 203 43 226 74 253 c 0
 131 299 196 301 267 258 c 0
 301 237 317 218 315 198 c 152
 313 178 290 154 245 126 c 1
 269 102 309 90 366 90 c 0
EndSplineSet
EndChar

StartChar: aBaa.fina
Encoding: 1114119 -1 7
Width: 883
AnchorPoint: "DigitBelow" 439 -220 basechar 0
AnchorPoint: "VAbove" 461 425 basechar 0
AnchorPoint: "RingBelow" 428 -44 basechar 0
AnchorPoint: "TaaAbove" 461 327 basechar 0
AnchorPoint: "TashkilBelow" 508 -327 basechar 0
AnchorPoint: "TashkilAbove" 461 801 basechar 0
AnchorPoint: "TwoDotsBelow" 385 -176 basechar 0
AnchorPoint: "TwoDotsAbove" 407 425 basechar 0
AnchorPoint: "DotAbove" 461 425 basechar 0
AnchorPoint: "HamzaBelow" 439 -220 basechar 0
AnchorPoint: "HamzaAbove" 461 425 basechar 0
AnchorPoint: "DotBelow" 439 -220 basechar 0
LayerCount: 2
Back
SplineSet
1127.9296875 90.33203125 m 0
 1138.99707031 87.7275390625 1145.18261719 83.984375 1146.484375 79.1015625 c 0
 1147.78613281 73.5673828125 1147.78613281 65.5927734375 1146.484375 55.17578125 c 0
 1141.6015625 18.3916015625 1135.41699219 0 1127.9296875 0 c 0
 1092.12207031 -0.3251953125 1055.98925781 19.8564453125 1019.53125 60.546875 c 1
 988.932617188 23.4375 943.684570312 3.2548828125 883.7890625 0 c 0
 877.604492188 -0.3251953125 873.372070312 4.7197265625 871.09375 15.13671875 c 2
 862.3046875 56.640625 l 2
 860.676757812 63.8017578125 861.979492188 70.80078125 866.2109375 77.63671875 c 0
 870.768554688 85.44921875 876.627929688 89.6806640625 883.7890625 90.33203125 c 0
 958.0078125 95.8662109375 1007.48730469 117.67578125 1032.2265625 155.76171875 c 0
 1035.80761719 161.295898438 1039.71386719 164.0625 1043.9453125 164.0625 c 0
 1050.78125 164.0625 1054.36230469 161.784179688 1054.6875 157.2265625 c 0
 1055.33886719 149.4140625 1056.15234375 144.53125 1057.12890625 142.578125 c 0
 1077.96191406 113.932617188 1101.5625 96.5166015625 1127.9296875 90.33203125 c 0
EndSplineSet
Fore
SplineSet
120 254 m 0
 125 261 130 261 135 256 c 128
 140 251 140 245 135 238 c 0
 111 205 102 176 107 154 c 0
 129 61 230 17 410 22 c 0
 531 26 643 49 745 91 c 0
 766 99 779 119 786 150 c 0
 788 159 794 164 804 163 c 0
 811 162 815 156 815 142 c 0
 816 110 839 93 884 90 c 256
 901 89 908 79 906 58 c 0
 902 19 895 0 884 0 c 0
 854 0 827 15 803 46 c 0
 802 48 797 46 790 41 c 0
 671 -39 529 -79 366 -79 c 128
 203 -79 106 -39 74 41 c 0
 59 80 59 120 74 162 c 128
 89 204 105 235 120 254 c 0
EndSplineSet
EndChar

StartChar: aBaa.init
Encoding: 1114120 -1 8
Width: 190
AnchorPoint: "TwoDotsAbove" 29 391 basechar 0
AnchorPoint: "TwoDotsBelowAlt" 59 -366 basechar 0
AnchorPoint: "TwoDotsBelow" 59 -171 basechar 0
AnchorPoint: "TashkilAbove" 59 801 basechar 0
AnchorPoint: "DotBelowAlt" 83 -366 basechar 0
AnchorPoint: "TashkilBelow" 83 -327 basechar 0
AnchorPoint: "HamzaBelow" 83 -171 basechar 0
AnchorPoint: "DigitBelow" 83 -171 basechar 0
AnchorPoint: "DotBelow" 83 -171 basechar 0
AnchorPoint: "TaaAbove" 85 342 basechar 0
AnchorPoint: "HamzaAbove" 85 391 basechar 0
AnchorPoint: "VAbove" 85 391 basechar 0
AnchorPoint: "DotAbove" 85 439 basechar 0
AnchorPoint: "DigitAbove" 85 439 basechar 0
AnchorPoint: "RingBelow" 107 73 basechar 0
LayerCount: 2
Back
SplineSet
-104.00390625 720.21484375 m 2
 -96.8427734375 731.93359375 -91.796875 726.887695312 -88.8671875 705.078125 c 0
 -76.4970703125 601.887695312 -68.5224609375 513.508789062 -64.94140625 439.94140625 c 24
 -58.10546875 300.944335938 -53.5478515625 217.122070312 -51.26953125 188.4765625 c 0
 -46.0615234375 124.674804688 -28.9716796875 91.9599609375 0 90.33203125 c 0
 17.2529296875 89.35546875 23.92578125 77.1484375 20.01953125 53.7109375 c 0
 13.8349609375 17.9033203125 7.1611328125 0 0 0 c 0
 -55.0126953125 0 -85.6123046875 40.52734375 -91.796875 121.58203125 c 0
 -97.0048828125 189.94140625 -100.5859375 258.708007812 -102.5390625 327.880859375 c 152
 -104.4921875 397.053710938 -108.479492188 453.043945312 -114.501953125 495.849609375 c 128
 -120.524414062 538.655273438 -128.581054688 587.565429688 -138.671875 642.578125 c 0
 -140.625 653.3203125 -139.6484375 661.946289062 -135.7421875 668.45703125 c 2
 -104.00390625 720.21484375 l 2
EndSplineSet
Fore
SplineSet
60 211 m 2
 88 273 l 2
 94 286 99 286 106 274 c 24
 132 225 138 167 121 98 c 0
 105 33 65 0 0 0 c 0
 -7 0 -14 17 -21 51 c 0
 -26 78 -19 91 0 90 c 0
 39 88 69 99 89 122 c 0
 90 123 90 126 89 129 c 0
 85 148 76 167 62 187 c 0
 56 195 56 203 60 211 c 2
EndSplineSet
EndChar

StartChar: aBaa.isol
Encoding: 1114121 -1 9
Width: 926
AnchorPoint: "DigitBelow" 488 -195 basechar 0
AnchorPoint: "VAbove" 461 425 basechar 0
AnchorPoint: "RingBelow" 415 29 basechar 0
AnchorPoint: "TaaAbove" 461 327 basechar 0
AnchorPoint: "TashkilBelow" 537 -327 basechar 0
AnchorPoint: "TashkilAbove" 461 801 basechar 0
AnchorPoint: "TwoDotsBelow" 439 -146 basechar 0
AnchorPoint: "TwoDotsAbove" 407 425 basechar 0
AnchorPoint: "DotBelow" 488 -195 basechar 0
AnchorPoint: "HamzaBelow" 488 -146 basechar 0
AnchorPoint: "HamzaAbove" 461 425 basechar 0
AnchorPoint: "DotAbove" 461 425 basechar 0
LayerCount: 2
Fore
SplineSet
821 372 m 0
 840 351 852 320 859 281 c 128
 866 242 865 205 857 169 c 128
 849 133 836 110 817 99 c 0
 710 37 577 1 417 -7 c 128
 257 -15 150 15 95 83 c 0
 60 127 54 177 79 236 c 0
 89 260 108 286 133 314 c 0
 137 319 142 320 146 319 c 128
 150 318 152 315 153 311 c 128
 154 307 153 303 150 300 c 0
 138 287 128 272 121 257 c 128
 114 242 113 227 116 216 c 0
 139 130 236 88 406 91 c 128
 576 94 716 126 825 189 c 1
 823 214 807 247 777 285 c 0
 775 288 777 297 780 312 c 128
 783 327 790 347 802 372 c 0
 806 381 813 381 821 372 c 0
EndSplineSet
EndChar

StartChar: aBaa.medi
Encoding: 1114122 -1 10
Width: 244
AnchorPoint: "DigitBelow" 127 -171 basechar 0
AnchorPoint: "DigitAbove" 122 425 basechar 0
AnchorPoint: "VAbove" 122 361 basechar 0
AnchorPoint: "RingBelow" 122 59 basechar 0
AnchorPoint: "TaaAbove" 122 327 basechar 0
AnchorPoint: "TashkilBelow" 117 -327 basechar 0
AnchorPoint: "TashkilAbove" 122 801 basechar 0
AnchorPoint: "TwoDotsBelow" 78 -122 basechar 0
AnchorPoint: "TwoDotsAbove" 59 361 basechar 0
AnchorPoint: "HamzaAbove" 122 361 basechar 0
AnchorPoint: "DotBelow" 127 -171 basechar 0
AnchorPoint: "DotAbove" 122 425 basechar 0
LayerCount: 2
Fore
SplineSet
244 90 m 1
 255 87 262 84 263 79 c 128
 264 74 264 65 263 55 c 0
 258 18 251 0 244 0 c 0
 208 0 172 20 136 61 c 1
 106 25 61 4 0 0 c 0
 -6 0 -11 5 -13 15 c 2
 -21 57 l 2
 -23 64 -21 71 -17 78 c 128
 -13 85 -7 89 0 90 c 0
 74 96 123 118 148 156 c 0
 152 162 156 164 162 164 c 128
 168 164 171 161 171 155 c 128
 171 149 172 145 173 143 c 1
 195 113 219 95 244 90 c 1
EndSplineSet
EndChar

StartChar: aDal.fina
Encoding: 1114123 -1 11
Width: 471
AnchorPoint: "VAbove" 334 586 basechar 0
AnchorPoint: "TashkilBelow" 244 -327 basechar 0
AnchorPoint: "TashkilAbove" 232 801 basechar 0
AnchorPoint: "TwoDotsBelow" 190 -122 basechar 0
AnchorPoint: "TwoDotsAbove" 280 635 basechar 0
AnchorPoint: "RingBelow" 205 59 basechar 0
AnchorPoint: "TaaAbove" 334 586 basechar 0
AnchorPoint: "DotAbove" 334 635 basechar 0
AnchorPoint: "HamzaBelow" 244 -122 basechar 0
AnchorPoint: "HamzaAbove" 334 635 basechar 0
AnchorPoint: "DotBelow" 244 -122 basechar 0
LayerCount: 2
Fore
SplineSet
471 90 m 0
 481 87 488 79 491 64 c 128
 494 49 494 34 490 20 c 128
 486 6 479 0 471 0 c 0
 427 3 398 39 382 109 c 0
 377 131 374 143 374 143 c 0
 372 148 370 148 368 142 c 0
 347 86 321 51 288 38 c 0
 247 21 191 15 120 20 c 0
 65 24 50 67 77 151 c 0
 80 160 85 166 92 167 c 128
 99 168 103 164 106 154 c 0
 112 135 120 124 133 121 c 0
 197 107 256 110 308 131 c 0
 334 141 351 161 359 187 c 0
 360 192 355 227 345 294 c 128
 335 361 330 403 328 418 c 128
 326 433 327 444 331 452 c 0
 342 475 350 491 354 502 c 0
 356 507 359 510 364 509 c 128
 369 508 372 505 373 499 c 0
 389 359 407 248 426 165 c 0
 436 121 451 95 471 90 c 0
EndSplineSet
EndChar

StartChar: aDal.isol
Encoding: 1114124 -1 12
Width: 450
AnchorPoint: "VAbove" 205 537 basechar 0
AnchorPoint: "TashkilBelow" 244 -327 basechar 0
AnchorPoint: "TashkilAbove" 205 801 basechar 0
AnchorPoint: "TwoDotsBelow" 190 -146 basechar 0
AnchorPoint: "TwoDotsAbove" 151 586 basechar 0
AnchorPoint: "RingBelow" 239 54 basechar 0
AnchorPoint: "TaaAbove" 205 537 basechar 0
AnchorPoint: "HamzaBelow" 244 -146 basechar 0
AnchorPoint: "HamzaAbove" 205 586 basechar 0
AnchorPoint: "DotBelow" 244 -146 basechar 0
AnchorPoint: "DotAbove" 205 586 basechar 0
LayerCount: 2
Fore
SplineSet
170 322 m 0
 181 355 191 375 199 385 c 0
 205 392 213 392 222 387 c 0
 311 338 362 272 377 190 c 24
 385 144 384 103 372 68 c 0
 368 58 361 50 351 44 c 0
 288 11 217 -5 141 -6 c 0
 88 -7 69 28 85 96 c 0
 87 104 91 108 97 109 c 0
 101 109 106 107 112 102 c 0
 125 91 150 88 187 93 c 24
 268 103 321 116 346 131 c 0
 348 132 349 136 348 143 c 0
 336 210 281 262 185 299 c 0
 172 304 167 312 170 322 c 0
EndSplineSet
EndChar

StartChar: aFaa.fina
Encoding: 1114125 -1 13
Width: 1005
AnchorPoint: "DotAlt" 439 -244 basechar 0
AnchorPoint: "TwoDotsBelow" 781 -146 basechar 0
AnchorPoint: "DotBelow" 830 -146 basechar 0
AnchorPoint: "TashkilBelow" 488 -327 basechar 0
AnchorPoint: "TashkilAbove" 684 801 basechar 0
AnchorPoint: "HamzaAbove" 684 488 basechar 0
AnchorPoint: "TwoDotsAbove" 635 488 basechar 0
AnchorPoint: "DotAbove" 684 488 basechar 0
LayerCount: 2
Fore
SplineSet
785 282 m 0
 827 344 863 363 892 337 c 24
 928 304 940 253 928 182 c 0
 924 158 913 131 897 100 c 1
 922 90 958 86 1006 90 c 0
 1022 91 1030 81 1030 60 c 0
 1030 21 1022 1 1006 0 c 0
 935 -5 877 3 832 25 c 1
 792 -2 739 -26 673 -46 c 0
 530 -89 397 -102 271 -85 c 0
 206 -76 154 -58 118 -32 c 128
 82 -6 63 28 63 70 c 128
 63 112 84 165 123 229 c 0
 126 233 129 235 133 235 c 128
 137 235 141 234 143 230 c 128
 145 226 145 222 142 217 c 24
 115 170 108 135 119 114 c 0
 157 44 243 10 375 12 c 0
 530 15 655 35 753 73 c 1
 729 91 721 119 729 158 c 128
 737 197 755 238 785 282 c 0
840 249 m 0
 813 252 790 227 771 173 c 1
 774 162 782 151 791 142 c 128
 800 133 810 127 819 124 c 128
 828 121 840 123 856 131 c 128
 872 139 882 147 887 156 c 1
 885 214 870 246 840 249 c 0
EndSplineSet
EndChar

StartChar: aFaa.init
Encoding: 1114126 -1 14
Width: 295
AnchorPoint: "TwoDotsBelow" 98 -146 basechar 0
AnchorPoint: "DotBelow" 146 -146 basechar 0
AnchorPoint: "TashkilBelow" 146 -327 basechar 0
AnchorPoint: "TashkilAbove" 78 801 basechar 0
AnchorPoint: "TwoDotsAbove" 59 562 basechar 0
AnchorPoint: "HamzaAbove" 78 562 basechar 0
AnchorPoint: "DotAbove" 78 562 basechar 0
LayerCount: 2
Fore
SplineSet
115 409 m 0
 124 409 134 404 147 393 c 0
 207 341 235 274 232 195 c 0
 230 153 220 120 201 95 c 0
 152 32 85 0 0 0 c 1
 -8 0 -15 8 -19 23 c 128
 -23 38 -22 54 -19 68 c 128
 -16 82 -9 89 0 90 c 0
 83 96 146 120 188 162 c 1
 186 182 184 194 179 201 c 128
 174 208 170 211 167 210 c 128
 164 209 163 208 162 206 c 0
 151 177 133 159 110 154 c 0
 37 138 3 167 9 239 c 0
 12 274 26 312 49 351 c 128
 72 390 94 409 115 409 c 0
82 301 m 0
 67 300 58 287 55 262 c 0
 55 258 55 256 56 256 c 0
 69 252 83 251 97 253 c 128
 111 255 120 260 124 266 c 1
 109 290 94 302 82 301 c 0
EndSplineSet
EndChar

StartChar: aFaa.isol
Encoding: 1114127 -1 15
Width: 983
AnchorPoint: "DotAlt" 488 -146 basechar 0
AnchorPoint: "TwoDotsBelow" 781 -49 basechar 0
AnchorPoint: "DotBelow" 830 -49 basechar 0
AnchorPoint: "TashkilBelow" 526 -327 basechar 0
AnchorPoint: "TashkilAbove" 635 801 basechar 0
AnchorPoint: "TwoDotsAbove" 581 659 basechar 0
AnchorPoint: "DotAbove" 635 659 basechar 0
AnchorPoint: "HamzaAbove" 635 659 basechar 0
LayerCount: 2
Fore
SplineSet
796 504 m 0
 823 512 849 496 875 455 c 128
 901 414 916 356 920 281 c 0
 922 254 919 231 911 212 c 24
 893 170 852 133 787 99 c 128
 722 65 648 40 564 21 c 128
 480 2 403 -8 333 -8 c 0
 165 -9 75 43 64 149 c 0
 62 167 64 194 71 227 c 128
 78 260 92 292 114 323 c 0
 117 328 121 329 125 329 c 128
 129 329 133 326 134 322 c 128
 135 318 135 314 132 310 c 0
 84 234 85 178 132 144 c 0
 201 94 311 78 461 96 c 0
 584 111 707 149 830 212 c 0
 866 230 887 251 892 275 c 1
 889 291 880 306 866 317 c 0
 865 318 862 316 860 312 c 0
 842 277 819 258 792 254 c 0
 738 246 707 268 698 318 c 0
 692 352 711 403 755 471 c 24
 766 488 779 499 796 504 c 0
807 363 m 0
 814 369 813 375 806 381 c 0
 782 401 763 399 750 375 c 0
 747 369 747 365 751 361 c 0
 770 345 789 346 807 363 c 0
EndSplineSet
EndChar

StartChar: aFaa.medi
Encoding: 1114128 -1 16
Width: 378
AnchorPoint: "TwoDotsBelow" 132 -146 basechar 0
AnchorPoint: "DotBelow" 181 -146 basechar 0
AnchorPoint: "TashkilBelow" 161 -327 basechar 0
AnchorPoint: "TashkilAbove" 220 801 basechar 0
AnchorPoint: "TwoDotsAbove" 146 586 basechar 0
AnchorPoint: "DotAbove" 237 586 basechar 0
AnchorPoint: "HamzaAbove" 195 586 basechar 0
LayerCount: 2
Fore
SplineSet
283 379 m 0
 287 379 289 378 292 377 c 0
 308 367 318 349 323 322 c 0
 332 271 326 223 306 179 c 0
 296 158 284 136 270 115 c 1
 311 100 347 91 378 90 c 0
 384 90 389 81 390 65 c 0
 394 22 389 1 378 0 c 0
 323 -6 255 14 172 58 c 1
 148 46 116 33 77 20 c 128
 38 7 12 0 0 0 c 0
 -8 0 -14 7 -18 22 c 128
 -22 37 -21 51 -18 66 c 128
 -15 81 -9 89 0 90 c 0
 38 96 73 105 106 116 c 1
 101 146 105 177 118 211 c 0
 139 266 175 314 230 355 c 0
 251 371 269 379 283 379 c 0
238 273 m 1
 206 276 177 259 151 222 c 1
 144 213 147 198 162 178 c 128
 177 158 193 148 213 148 c 128
 233 148 255 162 279 187 c 1
 281 238 267 266 238 273 c 1
EndSplineSet
EndChar

StartChar: aHaa.fina
Encoding: 1114129 -1 17
Width: 639
AnchorPoint: "DigitBelow" 391 -34 basechar 0
AnchorPoint: "TaaBelow" 342 146 basechar 0
AnchorPoint: "TaaAbove" 342 439 basechar 0
AnchorPoint: "TashkilBelow" 391 -24 basechar 0
AnchorPoint: "TashkilAbove" 342 801 basechar 0
AnchorPoint: "TwoDotsBelow" 336 -156 basechar 0
AnchorPoint: "TwoDotsAbove" 288 439 basechar 0
AnchorPoint: "DotBelow" 391 -156 basechar 0
AnchorPoint: "HamzaBelow" 391 -156 basechar 0
AnchorPoint: "HamzaAbove" 342 439 basechar 0
AnchorPoint: "DotAbove" 342 439 basechar 0
LayerCount: 2
Fore
SplineSet
209 260 m 0
 235 260 274 256 327 247 c 0
 427 230 522 230 611 247 c 0
 631 251 636 244 628 227 c 2
 605 175 l 2
 602 169 599 167 594 166 c 0
 546 160 506 153 472 146 c 1
 476 131 486 118 499 110 c 0
 529 91 576 84 640 90 c 24
 652 91 660 84 663 68 c 128
 666 52 665 38 660 23 c 128
 655 8 648 1 640 0 c 0
 517 -7 449 16 435 69 c 0
 429 92 428 115 432 138 c 1
 361 121 305 99 262 71 c 0
 209 36 169 -8 143 -62 c 128
 117 -116 107 -168 115 -218 c 0
 127 -297 173 -357 254 -397 c 24
 308 -423 424 -429 601 -414 c 0
 687 -407 731 -403 732 -403 c 0
 747 -402 754 -405 754 -412 c 128
 754 -419 745 -426 727 -432 c 0
 698 -441 671 -454 645 -471 c 128
 619 -488 603 -499 597 -502 c 128
 591 -505 586 -506 580 -507 c 0
 376 -530 234 -511 155 -451 c 0
 87 -400 57 -324 64 -225 c 0
 77 -44 160 84 314 158 c 1
 230 178 159 173 101 144 c 0
 97 142 93 142 89 144 c 128
 85 146 83 147 83 151 c 0
 85 223 127 259 209 260 c 0
EndSplineSet
EndChar

StartChar: aHaa.init
Encoding: 1114130 -1 18
Width: 655
AnchorPoint: "DigitBelow" 303 -99 basechar 0
AnchorPoint: "TaaBelow" 303 97 basechar 0
AnchorPoint: "TaaAbove" 303 464 basechar 0
AnchorPoint: "TashkilBelow" 303 -327 basechar 0
AnchorPoint: "TashkilAbove" 303 801 basechar 0
AnchorPoint: "TwoDotsBelow" 249 -99 basechar 0
AnchorPoint: "TwoDotsAbove" 254 464 basechar 0
AnchorPoint: "HamzaBelow" 303 -99 basechar 0
AnchorPoint: "HamzaAbove" 303 464 basechar 0
AnchorPoint: "DotBelow" 303 -99 basechar 0
AnchorPoint: "DotAbove" 303 464 basechar 0
LayerCount: 2
Back
SplineSet
5.859375 218.26171875 m 0
 11.0673828125 238.76953125 24.5771484375 259.602539062 46.38671875 280.76171875 c 128
 68.1962890625 301.920898438 91.6337890625 312.663085938 116.69921875 312.98828125 c 128
 141.764648438 313.313476562 199.870117188 294.43359375 291.015625 256.34765625 c 0
 324.21875 242.350585938 366.455078125 230.549804688 417.724609375 220.947265625 c 128
 468.994140625 211.344726562 521.647460938 208.333007812 575.68359375 211.9140625 c 0
 590.33203125 212.890625 594.7265625 207.03125 588.8671875 194.3359375 c 2
 561.03515625 132.8125 l 2
 557.454101562 125 550.29296875 121.907226562 539.55078125 123.53515625 c 0
 463.704101562 136.23046875 392.415039062 132.8125 325.68359375 113.28125 c 1
 243.327148438 85.9375 177.571289062 60.05859375 128.41796875 35.64453125 c 128
 79.2646484375 11.23046875 39.7138671875 -0.6513671875 9.765625 0 c 0
 5.5341796875 0 2.1162109375 3.2548828125 -0.48828125 9.765625 c 0
 -8.30078125 30.2734375 -10.009765625 48.6650390625 -5.615234375 64.94140625 c 128
 -1.220703125 81.2177734375 3.90625 89.6806640625 9.765625 90.33203125 c 0
 97.65625 97.16796875 182.780273438 121.256835938 265.13671875 162.59765625 c 1
 176.594726562 213.37890625 95.5400390625 227.213867188 21.97265625 204.1015625 c 0
 16.7646484375 202.473632812 12.451171875 203.206054688 9.033203125 206.298828125 c 128
 5.615234375 209.391601562 4.5576171875 213.37890625 5.859375 218.26171875 c 0
-39.0625 24.90234375 m 0
 -50.1298828125 39.2255859375 -59.2451171875 55.8271484375 -66.40625 74.70703125 c 0
 -68.0341796875 78.9384765625 -69.7431640625 81.6240234375 -71.533203125 82.763671875 c 128
 -73.3232421875 83.9033203125 -74.7880859375 83.9033203125 -75.927734375 82.763671875 c 128
 -77.0673828125 81.6240234375 -77.7998046875 79.9150390625 -78.125 77.63671875 c 0
 -81.0546875 60.3837890625 -87.5654296875 42.3173828125 -97.65625 23.4375 c 0
 -108.073242188 3.90625 -116.862304688 -7.6494140625 -124.0234375 -11.23046875 c 0
 -137.370117188 -17.7412109375 -158.040039062 -16.1943359375 -186.03515625 -6.591796875 c 128
 -214.030273438 3.0107421875 -232.421875 17.9033203125 -241.2109375 38.0859375 c 1
 -265.299804688 0 -299.967773438 -18.7177734375 -345.21484375 -18.06640625 c 0
 -368.977539062 -17.7412109375 -387.451171875 -10.498046875 -400.634765625 3.662109375 c 128
 -413.818359375 17.822265625 -423.176757812 33.5283203125 -428.7109375 50.78125 c 0
 -429.036132812 51.7578125 -429.768554688 52.3271484375 -430.908203125 52.490234375 c 128
 -432.047851562 52.6533203125 -432.942382812 52.24609375 -433.59375 51.26953125 c 0
 -447.265625 36.2958984375 -459.879882812 24.9833984375 -471.435546875 17.333984375 c 128
 -482.991210938 9.6845703125 -497.55859375 3.90625 -515.13671875 0 c 0
 -522.94921875 -1.6279296875 -528.80859375 4.0693359375 -532.71484375 17.08984375 c 0
 -539.55078125 39.2255859375 -538.899414062 59.5703125 -530.76171875 78.125 c 0
 -527.180664062 86.5888671875 -522.624023438 90.33203125 -517.08984375 89.35546875 c 0
 -507.649414062 87.7275390625 -495.768554688 87.7275390625 -481.4453125 89.35546875 c 128
 -467.122070312 90.9833984375 -448.73046875 97.4931640625 -426.26953125 108.88671875 c 128
 -403.80859375 120.280273438 -385.090820312 136.393554688 -370.1171875 157.2265625 c 0
 -364.2578125 165.364257812 -357.747070312 166.50390625 -350.5859375 160.64453125 c 0
 -347.331054688 158.040039062 -346.516601562 155.2734375 -348.14453125 152.34375 c 0
 -356.608398438 138.020507812 -359.375 124.51171875 -356.4453125 111.81640625 c 0
 -354.4921875 103.02734375 -349.284179688 95.21484375 -340.8203125 88.37890625 c 128
 -332.356445312 81.54296875 -323.2421875 78.2880859375 -313.4765625 78.61328125 c 0
 -289.713867188 79.2646484375 -267.08984375 87.2392578125 -245.60546875 102.5390625 c 128
 -224.12109375 117.838867188 -207.194335938 139.16015625 -194.82421875 166.50390625 c 0
 -192.545898438 171.38671875 -189.372070312 173.991210938 -185.302734375 174.31640625 c 128
 -181.233398438 174.641601562 -177.815429688 173.176757812 -175.048828125 169.921875 c 128
 -172.282226562 166.666992188 -171.711914062 162.922851562 -173.33984375 158.69140625 c 0
 -179.19921875 143.06640625 -182.6171875 132.161132812 -183.59375 125.9765625 c 0
 -184.5703125 120.1171875 -184.08203125 116.047851562 -182.12890625 113.76953125 c 0
 -174.967773438 105.95703125 -165.283203125 99.853515625 -153.076171875 95.458984375 c 128
 -140.869140625 91.064453125 -130.045898438 88.8671875 -120.60546875 88.8671875 c 0
 -112.79296875 88.8671875 -106.93359375 92.1220703125 -103.02734375 98.6328125 c 0
 -98.7958984375 105.46875 -93.0986328125 117.350585938 -85.9375 134.27734375 c 0
 -78.7763671875 150.87890625 -74.8701171875 160.481445312 -74.21875 163.0859375 c 0
 -71.2890625 168.9453125 -67.626953125 171.305664062 -63.232421875 170.166015625 c 128
 -58.837890625 169.026367188 -55.9892578125 165.364257812 -54.6875 159.1796875 c 0
 -50.1298828125 140.950195312 -42.96875 125.244140625 -33.203125 112.060546875 c 128
 -23.4375 98.876953125 -12.5322265625 91.6337890625 -0.48828125 90.33203125 c 0
 15.13671875 88.37890625 21.97265625 71.9404296875 20.01953125 41.015625 c 0
 18.06640625 13.3466796875 11.3935546875 -0.3251953125 0 0 c 1
 -13.671875 0 -26.6923828125 8.30078125 -39.0625 24.90234375 c 0
EndSplineSet
Fore
SplineSet
6 218 m 0
 11 239 24 260 46 281 c 128
 68 302 92 313 117 313 c 128
 142 313 200 294 291 256 c 0
 324 242 367 231 418 221 c 128
 469 211 522 208 576 212 c 0
 591 213 595 207 589 194 c 2
 561 133 l 2
 557 125 551 122 540 124 c 0
 464 137 393 133 326 113 c 1
 244 86 177 60 128 36 c 0
 80 12 38 0 0 0 c 0
 -4 0 -7 3 -10 10 c 0
 -18 31 -19 49 -15 65 c 128
 -11 81 -6 89 0 90 c 0
 96 97 184 122 265 163 c 1
 176 214 96 227 22 204 c 0
 17 202 12 203 9 206 c 128
 6 209 5 213 6 218 c 0
EndSplineSet
EndChar

StartChar: aHaa.isol
Encoding: 1114131 -1 19
Width: 661
AnchorPoint: "DigitBelow" 391 -34 basechar 0
AnchorPoint: "TaaBelow" 391 146 basechar 0
AnchorPoint: "TaaAbove" 342 439 basechar 0
AnchorPoint: "TashkilBelow" 391 49 basechar 0
AnchorPoint: "TashkilAbove" 342 801 basechar 0
AnchorPoint: "TwoDotsBelow" 336 -156 basechar 0
AnchorPoint: "TwoDotsAbove" 288 439 basechar 0
AnchorPoint: "HamzaBelow" 391 -156 basechar 0
AnchorPoint: "DotAbove" 342 439 basechar 0
AnchorPoint: "HamzaAbove" 342 439 basechar 0
AnchorPoint: "DotBelow" 391 -156 basechar 0
LayerCount: 2
Fore
SplineSet
633 226 m 2
 609 172 l 2
 606 166 603 164 598 163 c 0
 438 142 327 111 263 69 c 0
 138 -13 89 -112 116 -228 c 0
 131 -292 179 -342 260 -378 c 0
 304 -397 374 -410 469 -416 c 128
 564 -422 653 -420 735 -413 c 0
 745 -412 752 -413 755 -417 c 128
 758 -421 758 -425 755 -430 c 128
 752 -435 747 -437 742 -439 c 0
 702 -451 670 -464 647 -478 c 0
 613 -499 591 -508 583 -509 c 0
 387 -526 246 -503 159 -440 c 128
 72 -377 44 -277 75 -142 c 128
 106 -7 186 93 317 155 c 1
 227 177 160 174 115 148 c 0
 111 146 107 145 103 146 c 128
 99 147 98 149 98 153 c 0
 99 169 102 185 108 202 c 0
 120 237 152 256 204 259 c 0
 230 260 271 255 327 244 c 152
 383 233 431 228 470 229 c 128
 509 230 557 234 614 244 c 0
 634 247 640 241 633 226 c 2
EndSplineSet
EndChar

StartChar: aHaa.medi
Encoding: 1114132 -1 20
Width: 610
AnchorPoint: "DigitBelow" 293 -93 basechar 0
AnchorPoint: "TaaBelow" 293 103 basechar 0
AnchorPoint: "TaaAbove" 317 464 basechar 0
AnchorPoint: "TashkilBelow" 293 -327 basechar 0
AnchorPoint: "TashkilAbove" 317 801 basechar 0
AnchorPoint: "TwoDotsBelow" 239 -93 basechar 0
AnchorPoint: "TwoDotsAbove" 269 464 basechar 0
AnchorPoint: "DotAbove" 317 464 basechar 0
AnchorPoint: "DotBelow" 293 -93 basechar 0
AnchorPoint: "HamzaBelow" 293 -93 basechar 0
AnchorPoint: "HamzaAbove" 317 464 basechar 0
LayerCount: 2
Fore
SplineSet
139 312 m 0
 154 313 202 297 284 264 c 24
 326 247 376 234 433 226 c 128
 490 218 544 217 595 224 c 0
 604 225 608 220 605 209 c 0
 598 180 591 157 584 139 c 24
 582 134 578 131 572 132 c 0
 538 135 509 136 485 137 c 1
 475 117 484 104 510 96 c 128
 536 88 569 86 610 90 c 0
 637 92 643 70 629 22 c 0
 625 8 618 1 610 0 c 0
 559 -7 518 -4 485 7 c 0
 440 23 426 59 443 117 c 0
 446 126 447 132 448 135 c 1
 387 131 323 120 257 100 c 0
 230 92 187 73 128 44 c 128
 69 15 27 0 0 0 c 0
 -9 0 -16 7 -21 20 c 128
 -26 33 -27 46 -24 62 c 0
 -20 79 -13 88 0 90 c 0
 57 100 103 113 138 128 c 0
 182 148 212 161 232 167 c 0
 239 169 242 172 241 175 c 0
 241 178 238 180 233 182 c 0
 183 203 143 215 114 218 c 128
 85 221 57 215 32 201 c 0
 26 198 21 197 16 198 c 128
 11 199 10 205 12 213 c 0
 29 275 72 308 139 312 c 0
EndSplineSet
EndChar

StartChar: aHeh.fina
Encoding: 1114133 -1 21
Width: 379
AnchorPoint: "TashkilBelow" 190 -327 basechar 0
AnchorPoint: "TashkilAbove" 142 801 basechar 0
AnchorPoint: "TwoDotsAbove" 87 537 basechar 0
AnchorPoint: "HamzaAbove" 195 537 basechar 0
AnchorPoint: "DotAbove" 142 537 basechar 0
LayerCount: 2
Fore
SplineSet
256 439 m 2
 265 451 270 449 272 431 c 0
 273 418 279 379 287 313 c 128
 295 247 300 208 301 196 c 0
 306 143 317 110 335 99 c 0
 345 92 360 89 379 90 c 0
 391 90 398 83 400 69 c 128
 402 55 401 40 396 24 c 128
 391 8 385 1 379 0 c 24
 341 -3 314 6 296 28 c 128
 278 50 265 90 258 147 c 1
 239 111 220 90 200 82 c 0
 187 77 166 76 139 81 c 128
 112 86 92 93 80 103 c 128
 68 113 62 124 64 138 c 128
 66 152 72 170 83 192 c 128
 94 214 102 228 109 235 c 0
 144 269 186 299 235 325 c 1
 233 352 232 373 232 386 c 152
 232 399 235 410 241 418 c 2
 256 439 l 2
242 264 m 1
 190 249 153 227 130 197 c 0
 127 193 128 190 133 187 c 1
 160 174 196 171 241 181 c 0
 245 182 248 184 252 188 c 1
 250 209 247 234 242 264 c 1
EndSplineSet
EndChar

StartChar: aHeh.init
Encoding: 1114134 -1 22
Width: 452
AnchorPoint: "HamzaAbove" 180 532 basechar 0
AnchorPoint: "TashkilBelow" 195 -327 basechar 0
AnchorPoint: "TashkilAbove" 146 801 basechar 0
LayerCount: 2
Fore
SplineSet
86 322 m 0
 102 382 124 411 152 410 c 128
 180 409 226 379 287 321 c 128
 348 263 381 216 387 181 c 0
 394 137 384 98 356 64 c 0
 342 47 325 40 304 42 c 0
 251 48 194 62 133 85 c 1
 69 28 25 0 0 0 c 0
 -6 0 -11 5 -16 16 c 0
 -36 61 -30 86 0 90 c 0
 25 93 48 102 69 118 c 1
 50 133 46 154 54 179 c 0
 68 222 92 259 127 290 c 1
 120 301 110 307 95 309 c 0
 87 310 84 315 86 322 c 0
159 165 m 1
 181 176 192 184 192 191 c 1
 189 226 179 245 161 249 c 0
 134 255 109 243 86 214 c 24
 79 206 82 198 93 191 c 128
 104 184 127 175 159 165 c 1
234 237 m 0
 231 239 230 238 230 235 c 0
 233 214 222 186 196 152 c 1
 274 128 319 120 333 128 c 0
 337 130 339 133 338 136 c 0
 325 167 291 201 234 237 c 0
EndSplineSet
EndChar

StartChar: aHeh.isol
Encoding: 1114135 -1 23
Width: 369
AnchorPoint: "TashkilBelow" 200 -327 basechar 0
AnchorPoint: "TashkilAbove" 180 801 basechar 0
AnchorPoint: "TwoDotsAbove" 125 532 basechar 0
AnchorPoint: "DotAbove" 180 532 basechar 0
AnchorPoint: "HamzaAbove" 180 532 basechar 0
LayerCount: 2
Fore
SplineSet
158 326 m 0
 169 334 183 332 199 323 c 0
 242 298 272 266 290 227 c 128
 308 188 312 147 303 106 c 152
 294 65 277 34 252 11 c 128
 227 -12 199 -24 165 -24 c 0
 120 -25 89 -8 75 24 c 128
 61 56 60 99 74 153 c 128
 88 207 114 256 151 299 c 0
 152 300 153 305 153 312 c 128
 153 319 154 324 158 326 c 0
253 111 m 0
 261 117 259 127 248 141 c 0
 217 179 187 198 159 197 c 0
 145 197 133 187 123 168 c 128
 113 149 109 135 112 123 c 0
 118 99 137 86 170 86 c 128
 203 86 231 94 253 111 c 0
EndSplineSet
EndChar

StartChar: aHeh.medi
Encoding: 1114136 -1 24
Width: 390
AnchorPoint: "TashkilBelow" 195 -327 basechar 0
AnchorPoint: "TashkilAbove" 195 801 basechar 0
LayerCount: 2
Fore
SplineSet
284 350 m 24
 298 344 306 330 307 309 c 0
 314 209 282 128 212 66 c 1
 248 63 308 70 391 90 c 0
 397 91 400 88 404 80 c 0
 412 61 412 40 404 17 c 0
 400 7 396 1 391 0 c 0
 357 -7 325 -11 296 -9 c 1
 318 -32 327 -71 323 -126 c 0
 321 -150 312 -174 295 -196 c 128
 278 -218 258 -230 235 -230 c 0
 163 -231 120 -163 105 -27 c 1
 77 -23 l 1
 77 25 l 1
 44 8 19 0 0 0 c 0
 -13 0 -22 22 -28 67 c 0
 -30 81 -20 89 0 90 c 0
 37 92 76 100 117 114 c 1
 144 186 183 252 234 312 c 0
 259 341 276 354 284 350 c 24
236 234 m 0
 230 234 226 233 222 231 c 0
 181 208 155 171 142 121 c 1
 205 146 247 173 267 201 c 0
 271 206 271 211 268 216 c 0
 261 228 251 234 236 234 c 0
146 -32 m 1
 158 -85 179 -118 210 -132 c 0
 235 -143 262 -141 288 -125 c 0
 295 -120 296 -113 291 -105 c 1
 266 -69 218 -45 146 -32 c 1
EndSplineSet
EndChar

StartChar: aKaf.fina
Encoding: 1114137 -1 25
Width: 822
AnchorPoint: "TwoDotsBelow" 303 -122 basechar 0
AnchorPoint: "DotBelow" 356 -122 basechar 0
AnchorPoint: "RingBelow" 366 20 basechar 0
AnchorPoint: "DotAbove" 684 806 basechar 0
AnchorPoint: "TwoDotsAbove" 596 806 basechar 0
AnchorPoint: "TashkilBelow" 391 -327 basechar 0
AnchorPoint: "TashkilAbove" 356 801 basechar 0
AnchorPoint: "Dash" 709 708 basechar 0
AnchorPoint: "HamzaAbove" 356 306 basechar 0
LayerCount: 2
Fore
SplineSet
690 709 m 2
 697 720 702 719 703 706 c 152
 704 693 709 628 718 512 c 0
 733 321 746 209 757 177 c 0
 774 129 796 99 823 90 c 1
 836 86 844 77 847 62 c 128
 850 47 848 33 842 20 c 128
 836 7 830 0 823 0 c 0
 758 0 719 58 707 175 c 1
 696 148 679 121 657 94 c 128
 635 67 612 48 589 36 c 0
 513 -3 427 -25 334 -28 c 0
 197 -33 112 -3 77 62 c 0
 68 80 63 98 63 116 c 0
 65 181 86 238 126 286 c 0
 129 290 133 292 138 292 c 128
 143 292 145 289 146 285 c 128
 147 281 146 277 141 270 c 0
 112 225 100 192 104 172 c 24
 118 103 189 68 318 66 c 0
 407 65 497 83 590 119 c 0
 622 132 648 152 666 178 c 0
 671 185 674 199 675 221 c 128
 676 243 672 309 663 419 c 128
 654 529 649 583 649 583 c 0
 645 620 647 646 656 659 c 2
 690 709 l 2
EndSplineSet
EndChar

StartChar: aKaf.init.alt
Encoding: 1114138 -1 26
Width: 1633
AnchorPoint: "TashkilBelow" 732 -327 basechar 0
AnchorPoint: "TashkilAbove" 275 801 basechar 0
LayerCount: 2
Fore
SplineSet
0 90 m 1
 206 73 448 75 725 95 c 0
 855 104 1113 130 1498 170 c 0
 1505 171 1505 175 1501 182 c 0
 1477 227 1446 251 1407 255 c 0
 1350 261 1253 257 1117 244 c 128
 981 231 831 219 667 207 c 128
 503 195 352 195 214 207 c 0
 140 213 96 229 83 257 c 0
 78 267 79 277 84 287 c 0
 102 324 121 354 142 376 c 0
 252 487 406 571 604 628 c 25
 615 631 620 628 618 620 c 2
 603 548 l 1
 601 542 597 538 590 536 c 0
 500 511 416 479 337 441 c 128
 258 403 196 364 153 324 c 0
 149 320 149 317 152 315 c 0
 187 291 303 279 503 280 c 0
 639 281 806 290 1001 310 c 128
 1196 330 1333 339 1412 338 c 0
 1457 337 1494 324 1523 298 c 128
 1552 272 1567 238 1570 198 c 1
 1571 186 1561 163 1538 129 c 128
 1515 95 1496 79 1479 78 c 1
 1431 74 1294 62 1069 42 c 0
 844 21 718 10 691 8 c 24
 386 -12 156 -15 0 -0 c 1
 -12 0 -21 7 -26 22 c 128
 -31 37 -31 53 -26 68 c 128
 -21 83 -12 90 0 90 c 1
EndSplineSet
EndChar

StartChar: aKaf.init
Encoding: 1114139 -1 27
Width: 659
AnchorPoint: "Dash" 305 687 basechar 0
AnchorPoint: "TashkilAbove" 317 801 basechar 0
AnchorPoint: "TashkilBelow" 269 -327 basechar 0
AnchorPoint: "TwoDotsAbove" 84 696 basechar 0
AnchorPoint: "DotAbove" 138 696 basechar 0
AnchorPoint: "TwoDotsBelow" 78 -80 basechar 0
AnchorPoint: "DotBelow" 132 -80 basechar 0
AnchorPoint: "RingBelow" 303 604 basechar 0
LayerCount: 2
Back
SplineSet
573.2421875 750.9765625 m 0
 578.776367188 753.254882812 583.333007812 754.39453125 586.9140625 754.39453125 c 0
 593.098632812 754.39453125 596.028320312 750.9765625 595.703125 744.140625 c 0
 595.703125 741.536132812 595.377929688 738.606445312 594.7265625 735.3515625 c 2
 580.078125 671.875 l 2
 578.125 663.411132812 572.916992188 657.2265625 564.453125 653.3203125 c 1024
-96.6796875 378.90625 m 0
 -92.7734375 378.90625 -89.5185546875 378.254882812 -86.9140625 376.953125 c 0
 -70.9638671875 367.1875 -60.7099609375 348.958007812 -56.15234375 322.265625 c 0
 -47.36328125 271.159179688 -53.0595703125 223.469726562 -73.2421875 179.19921875 c 0
 -83.0078125 157.71484375 -95.0517578125 136.393554688 -109.375 115.234375 c 1
 -68.0341796875 99.9345703125 -31.9013671875 91.6337890625 -0.9765625 90.33203125 c 0
 5.2080078125 90.0068359375 8.9521484375 81.7060546875 10.25390625 65.4296875 c 0
 14.16015625 22.7861328125 10.4169921875 0.9765625 -0.9765625 0 c 0
 -55.6640625 -5.5341796875 -124.51171875 13.671875 -207.51953125 57.6171875 c 1
 -231.608398438 45.8984375 -263.264648438 33.447265625 -302.490234375 20.263671875 c 128
 -341.715820312 7.080078125 -367.350585938 0.3251953125 -379.39453125 0 c 0
 -387.532226562 -0.3251953125 -393.391601562 6.9169921875 -396.97265625 21.728515625 c 128
 -400.553710938 36.5400390625 -400.715820312 51.3505859375 -397.4609375 66.162109375 c 128
 -394.206054688 80.9736328125 -388.18359375 89.0302734375 -379.39453125 90.33203125 c 0
 -341.633789062 95.8662109375 -306.315429688 104.329101562 -273.4375 115.72265625 c 1
 -278.3203125 145.344726562 -274.4140625 177.083007812 -261.71875 210.9375 c 0
 -241.2109375 266.276367188 -203.61328125 314.453125 -148.92578125 355.46875 c 0
 -128.092773438 371.09375 -110.676757812 378.90625 -96.6796875 378.90625 c 0
-141.6015625 273.4375 m 1
 -173.176757812 276.041992188 -202.1484375 258.952148438 -228.515625 222.16796875 c 1
 -236.002929688 212.727539062 -232.421875 198.079101562 -217.7734375 178.22265625 c 128
 -203.125 158.366210938 -186.03515625 148.4375 -166.50390625 148.4375 c 128
 -146.97265625 148.4375 -125 161.1328125 -100.5859375 186.5234375 c 1
 -98.9580078125 237.956054688 -112.629882812 266.926757812 -141.6015625 273.4375 c 1
0 90.33203125 m 1
 11.0673828125 87.7275390625 17.2529296875 83.8212890625 18.5546875 78.61328125 c 128
 19.8564453125 73.4052734375 19.8564453125 65.5927734375 18.5546875 55.17578125 c 0
 13.671875 18.3916015625 7.4873046875 0 0 0 c 0
 -35.8076171875 -0.3251953125 -71.9404296875 19.8564453125 -108.3984375 60.546875 c 1
 -138.020507812 24.4140625 -183.268554688 4.2314453125 -244.140625 0 c 0
 -250.325195312 -0.3251953125 -254.557617188 4.7197265625 -256.8359375 15.13671875 c 2
 -265.625 56.640625 l 2
 -267.252929688 63.4765625 -265.869140625 70.6376953125 -261.474609375 78.125 c 128
 -257.080078125 85.6123046875 -251.301757812 89.6806640625 -244.140625 90.33203125 c 0
 -169.921875 95.8662109375 -120.442382812 117.67578125 -95.703125 155.76171875 c 0
 -92.1220703125 161.295898438 -87.5654296875 164.0625 -82.03125 164.0625 c 128
 -76.4970703125 164.0625 -73.486328125 160.969726562 -72.998046875 154.78515625 c 128
 -72.509765625 148.600585938 -71.77734375 144.53125 -70.80078125 142.578125 c 1
 -48.9912109375 112.629882812 -25.390625 95.21484375 0 90.33203125 c 1
0.48828125 429.6875 m 0
 3.0927734375 444.987304688 13.8349609375 462.890625 32.71484375 483.3984375 c 0
 86.7509765625 542.96875 268.5546875 626.790039062 578.125 734.86328125 c 1
 592.7734375 740.397460938 598.14453125 736.653320312 594.23828125 723.6328125 c 2
 577.63671875 670.8984375 l 2
 575.032226562 661.458007812 570.637695312 655.598632812 564.453125 653.3203125 c 0
 249.674804688 550.78125 73.5673828125 476.5625 36.1328125 430.6640625 c 1
 33.5283203125 428.059570312 34.1796875 425.78125 38.0859375 423.828125 c 1
 100.5859375 398.762695312 156.005859375 362.629882812 204.345703125 315.4296875 c 128
 252.685546875 268.229492188 277.668945312 220.703125 279.296875 172.8515625 c 1
 280.2734375 70.3125 232.096679688 12.8583984375 134.765625 0.48828125 c 0
 121.418945312 -1.1396484375 111.653320312 6.1845703125 105.46875 22.4609375 c 128
 99.2841796875 38.7373046875 98.2255859375 55.0947265625 102.294921875 71.533203125 c 128
 106.364257812 87.9716796875 114.094726562 97.16796875 125.48828125 99.12109375 c 0
 176.594726562 107.258789062 220.377929688 127.604492188 256.8359375 160.15625 c 0
 258.7890625 162.109375 259.440429688 164.387695312 258.7890625 166.9921875 c 1
 209.309570312 243.1640625 125.163085938 304.524414062 6.34765625 351.07421875 c 0
 -5.6962890625 355.631835938 -7.6494140625 381.8359375 0.48828125 429.6875 c 0
EndSplineSet
Fore
SplineSet
0 90 m 0
 109 74 195 98 257 160 c 0
 259 162 260 164 259 167 c 1
 218 233 148 291 50 340 c 1
 39 346 33 366 32 402 c 0
 30 452 40 487 62 507 c 0
 157 592 330 674 581 752 c 0
 586 754 590 754 593 754 c 0
 597 754 599 753 599 748 c 0
 599 747 598 745 597 741 c 2
 578 670 l 2
 575 660 570 655 564 653 c 0
 277 550 111 476 65 430 c 1
 62 427 63 425 67 423 c 1
 207 339 278 256 279 172 c 0
 279 125 270 89 250 62 c 0
 230 35 205 17 176 10 c 0
 107 -7 45 -11 -8 -1 c 0
 -17 1 -22 8 -24 24 c 0
 -26 40 -27 53 -27 60 c 0
 -27 83 -18 93 0 90 c 0
EndSplineSet
EndChar

StartChar: aKaf.isol
Encoding: 1114140 -1 28
Width: 657
AnchorPoint: "TwoDotsBelow" 239 -98 basechar 0
AnchorPoint: "DotBelow" 293 -98 basechar 0
AnchorPoint: "RingBelow" 293 49 basechar 0
AnchorPoint: "TwoDotsAbove" 410 879 basechar 0
AnchorPoint: "DotAbove" 464 879 basechar 0
AnchorPoint: "TashkilBelow" 342 -327 basechar 0
AnchorPoint: "TashkilAbove" 205 801 basechar 0
AnchorPoint: "Dash" 492 788 basechar 0
AnchorPoint: "HamzaAbove" 205 303 basechar 0
LayerCount: 2
Fore
SplineSet
492 782 m 0
 506 753 523 729 545 712 c 0
 551 707 550 701 545 693 c 2
 527 663 l 2
 524 658 523 655 523 653 c 0
 570 426 594 283 594 224 c 1
 594 175 l 1
 593 133 584 91 565 49 c 0
 549 13 437 -4 227 0 c 0
 168 1 116 5 73 12 c 0
 69 13 66 15 66 21 c 0
 63 63 63 91 64 107 c 0
 64 112 67 114 71 112 c 0
 97 102 142 96 205 95 c 0
 397 91 514 103 556 132 c 1
 560 155 548 246 519 403 c 152
 490 560 473 649 468 670 c 128
 463 691 459 707 456 717 c 128
 453 727 453 738 458 748 c 2
 477 786 l 2
 479 790 481 792 484 791 c 128
 487 790 490 787 492 782 c 0
EndSplineSet
EndChar

StartChar: aKaf.medi
Encoding: 1114141 -1 29
Width: 588
AnchorPoint: "Dash" 286 771 basechar 0
AnchorPoint: "TashkilAbove" 273 801 basechar 0
AnchorPoint: "TashkilBelow" 297 -327 basechar 0
AnchorPoint: "RingBelow" 318 656 basechar 0
AnchorPoint: "DotBelow" 371 -98 basechar 0
AnchorPoint: "TwoDotsBelow" 317 -98 basechar 0
AnchorPoint: "DotAbove" 105 708 basechar 0
AnchorPoint: "TwoDotsAbove" 51 708 basechar 0
LayerCount: 2
Back
SplineSet
73.2421875 93.75 m 0
 142.578125 78.7763671875 205.56640625 97.4931640625 262.20703125 149.90234375 c 1
 257.32421875 225.749023438 167.805664062 291.666992188 -6.34765625 347.65625 c 0
 -30.76171875 355.46875 -33.8544921875 384.602539062 -15.625 435.05859375 c 0
 9.4404296875 504.069335938 90.9833984375 577.961914062 229.00390625 656.73828125 c 0
 339.35546875 719.889648438 444.172851562 771.321289062 543.45703125 811.03515625 c 24
 562.01171875 818.522460938 569.172851562 813.313476562 564.94140625 795.41015625 c 2
 550.29296875 731.93359375 l 2
 548.014648438 722.493164062 542.805664062 716.30859375 534.66796875 713.37890625 c 0
 461.100585938 686.686523438 365.234375 641.032226562 247.0703125 576.416015625 c 128
 128.90625 511.799804688 54.6875 463.8671875 24.4140625 432.6171875 c 1
 132.487304688 392.578125 230.143554688 338.8671875 317.3828125 271.484375 c 0
 371.09375 229.817382812 404.133789062 203.288085938 416.50390625 191.89453125 c 0
 487.467773438 128.41796875 544.43359375 94.5634765625 587.40234375 90.33203125 c 0
 611.81640625 87.7275390625 617.024414062 63.8017578125 603.02734375 18.5546875 c 0
 599.12109375 5.859375 593.913085938 -0.3251953125 587.40234375 0 c 1
 543.45703125 0 473.795898438 46.2236328125 378.41796875 138.671875 c 1
 347.493164062 169.270507812 315.592773438 196.77734375 282.71484375 221.19140625 c 1
 284.66796875 200.68359375 284.016601562 175.78125 280.76171875 146.484375 c 1
 266.438476562 57.9423828125 219.889648438 6.34765625 141.11328125 -8.30078125 c 0
 116.69921875 -12.8583984375 94.4013671875 -13.671875 74.21875 -10.7421875 c 128
 54.0361328125 -7.8125 45.5732421875 11.3935546875 48.828125 46.875 c 0
 52.0830078125 81.0546875 60.2216796875 96.6796875 73.2421875 93.75 c 0
EndSplineSet
Fore
SplineSet
-5 91 m 0
 -3 91 3 90 16 88 c 128
 29 86 50 86 79 86 c 128
 108 86 140 93 175 106 c 128
 210 119 239 139 261 165 c 1
 245 225 176 284 54 341 c 1
 40 350 32 372 29 407 c 0
 26 446 29 472 39 486 c 0
 116 596 285 704 544 811 c 0
 550 813 554 814 558 814 c 0
 564 814 566 811 566 804 c 0
 566 801 566 798 565 795 c 2
 551 731 l 2
 549 723 543 717 535 713 c 0
 303 599 148 504 68 427 c 1
 204 358 320 279 417 191 c 0
 487 128 544 94 588 90 c 0
 604 88 612 79 612 60 c 0
 612 49 610 36 605 21 c 128
 600 6 595 -0 588 -0 c 1
 542 0 472 46 379 138 c 0
 348 169 316 197 283 221 c 1
 285 194 284 169 281 146 c 0
 266 44 188 -6 47 -6 c 0
 24 -6 6 -5 -7 -2 c 128
 -20 1 -27 22 -27 60 c 0
 -27 81 -20 91 -5 91 c 0
EndSplineSet
EndChar

StartChar: aLam.fina
Encoding: 1114142 -1 30
Width: 644
AnchorPoint: "Stroke" 491 445 basechar 0
AnchorPoint: "TwoDotsBelow" 293 -457 basechar 0
AnchorPoint: "TwoDotsAbove" 195 488 basechar 0
AnchorPoint: "DotAbove" 293 586 basechar 0
AnchorPoint: "TashkilBelow" 293 -376 basechar 0
AnchorPoint: "TashkilAbove" 293 801 basechar 0
AnchorPoint: "VAbove" 300 585 basechar 0
LayerCount: 2
Back
SplineSet
424.31640625 573.2421875 m 1
 442.3828125 632.8125 l 25
 451.823242188 644.856445312 458.49609375 638.18359375 462.40234375 612.79296875 c 2
 503.90625 352.05078125 l 2
 529.296875 191.89453125 576.171875 104.655273438 644.53125 90.33203125 c 257
 662.434570312 87.0771484375 668.45703125 69.0107421875 662.59765625 36.1328125 c 1
 658.69140625 12.0439453125 652.668945312 0 644.53125 0 c 0
 598.6328125 0 555.827148438 31.5751953125 516.11328125 94.7265625 c 1
 517.741210938 74.5439453125 520.01953125 53.3857421875 522.94921875 31.25 c 0
 543.782226562 -132.161132812 526.692382812 -234.700195312 471.6796875 -276.3671875 c 0
 400.390625 -330.403320312 331.624023438 -358.154296875 265.380859375 -359.619140625 c 128
 199.137695312 -361.083984375 147.135742188 -343.26171875 109.375 -306.15234375 c 128
 71.6142578125 -269.04296875 57.0478515625 -218.180664062 65.673828125 -153.564453125 c 128
 74.2998046875 -88.9482421875 103.515625 -23.6005859375 153.3203125 42.48046875 c 0
 156.25 46.38671875 159.993164062 48.2587890625 164.55078125 48.095703125 c 128
 169.108398438 47.9326171875 172.282226562 45.8173828125 174.072265625 41.748046875 c 128
 175.862304688 37.6787109375 174.8046875 32.71484375 170.8984375 26.85546875 c 24
 114.583007812 -54.19921875 97.65625 -120.442382812 120.1171875 -171.875 c 0
 146.159179688 -231.770507812 205.891601562 -258.952148438 299.31640625 -253.41796875 c 0
 376.139648438 -248.860351562 444.82421875 -216.633789062 505.37109375 -156.73828125 c 1
 422.36328125 523.4375 l 2
 420.084960938 543.293945312 420.735351562 559.895507812 424.31640625 573.2421875 c 1
700.68359375 276.3671875 m 0
 702.961914062 279.622070312 705.729492188 280.924804688 708.984375 280.2734375 c 128
 712.239257812 279.622070312 714.84375 277.506835938 716.796875 273.92578125 c 0
 739.583007812 229.655273438 744.465820312 171.061523438 731.4453125 98.14453125 c 0
 721.354492188 40.2021484375 692.3828125 7.4873046875 644.53125 0 c 0
 637.6953125 -1.3017578125 630.696289062 15.625 623.53515625 50.78125 c 0
 621.256835938 62.1748046875 621.418945312 70.9638671875 624.0234375 77.1484375 c 0
 627.278320312 84.9609375 634.114257812 89.35546875 644.53125 90.33203125 c 0
 670.247070312 92.6103515625 688.4765625 103.190429688 699.21875 122.0703125 c 0
 700.1953125 123.372070312 700.358398438 125.651367188 699.70703125 128.90625 c 0
 696.125976562 146.809570312 687.174804688 166.178710938 672.8515625 187.01171875 c 0
 667.643554688 194.82421875 666.666992188 202.961914062 669.921875 211.42578125 c 0
 685.221679688 247.233398438 695.475585938 268.879882812 700.68359375 276.3671875 c 0
EndSplineSet
Fore
SplineSet
522 348 m 2
 538 187 585 99 663 86 c 257
 669 83 669 66 663 36 c 1
 659 12 653 0 645 0 c 0
 597 0 559 27 531 80 c 1
 547 -117 527 -235 472 -276 c 0
 397 -330 329 -358 266 -359 c 0
 200 -360 147 -343 109 -306 c 0
 71 -269 57 -219 66 -154 c 128
 75 -89 103 -24 153 42 c 0
 156 46 160 48 165 48 c 128
 170 48 172 46 174 42 c 128
 176 38 175 33 171 27 c 24
 116 -56 99 -123 120 -172 c 0
 146 -232 206 -259 299 -253 c 0
 376 -248 444 -217 505 -157 c 1
 457 523 l 2
 455 545 455 562 458 573 c 0
 477 633 l 0
 488 645 494 639 497 613 c 2
 522 348 l 2
EndSplineSet
EndChar

StartChar: aLam.init
Encoding: 1114143 -1 31
Width: 175
AnchorPoint: "Stroke" 59 523 basechar 0
AnchorPoint: "TwoDotsBelow" 39 -49 basechar 0
AnchorPoint: "TwoDotsAbove" -20 814 basechar 0
AnchorPoint: "DotAbove" 39 814 basechar 0
AnchorPoint: "TashkilBelow" 68 -327 basechar 0
AnchorPoint: "TashkilAbove" 39 801 basechar 0
AnchorPoint: "VAbove" 39 765 basechar 0
LayerCount: 2
Fore
SplineSet
16 660 m 24
 26 684 32 699 34 705 c 128
 36 711 39 714 44 714 c 128
 49 714 53 711 55 704 c 0
 65 674 79 650 98 631 c 0
 105 624 104 617 97 608 c 1
 75 577 l 1
 79 540 83 505 87 473 c 0
 109 308 117 207 110 171 c 0
 89 66 53 8 0 0 c 0
 -12 -2 -17 20 -15 66 c 0
 -15 81 -10 89 0 90 c 0
 36 94 62 109 76 135 c 1
 74 187 65 270 51 381 c 128
 37 492 28 560 25 585 c 1
 15 642 l 2
 14 650 14 655 16 660 c 24
EndSplineSet
EndChar

StartChar: aLam.isol
Encoding: 1114144 -1 32
Width: 603
AnchorPoint: "Stroke" 479 549 basechar 0
AnchorPoint: "TwoDotsBelow" 286 -161 basechar 0
AnchorPoint: "TwoDotsAbove" 220 586 basechar 0
AnchorPoint: "DotAbove" 317 684 basechar 0
AnchorPoint: "TashkilAbove" 293 801 basechar 0
AnchorPoint: "TashkilBelow" 283 -327 basechar 0
AnchorPoint: "VAbove" 323 697 basechar 0
LayerCount: 2
Fore
SplineSet
463 744 m 2
 465 749 468 751 473 751 c 128
 478 751 481 748 483 742 c 0
 495 710 508 686 524 669 c 0
 530 663 530 655 523 645 c 128
 516 635 511 627 507 622 c 128
 503 617 501 611 501 602 c 0
 504 558 510 497 520 420 c 128
 530 343 536 283 539 241 c 0
 544 173 535 112 512 58 c 24
 498 24 463 -5 407 -29 c 128
 351 -53 301 -65 257 -64 c 0
 129 -62 64 -6 63 104 c 24
 62 177 88 247 139 313 c 0
 142 317 146 319 150 318 c 128
 154 317 157 315 158 311 c 128
 159 307 159 303 156 298 c 0
 121 235 104 189 107 159 c 0
 116 77 178 38 290 42 c 0
 386 45 456 74 499 129 c 1
 497 171 490 245 476 352 c 128
 462 459 452 558 445 652 c 1
 441 686 l 1
 441 692 442 696 444 700 c 26
 463 744 l 2
EndSplineSet
EndChar

StartChar: aLam.medi
Encoding: 1114145 -1 33
Width: 197
AnchorPoint: "Stroke" 82 529 basechar 0
AnchorPoint: "TwoDotsBelow" 49 -73 basechar 0
AnchorPoint: "TwoDotsAbove" 5 796 basechar 0
AnchorPoint: "DotAbove" 63 796 basechar 0
AnchorPoint: "TashkilBelow" 93 -327 basechar 0
AnchorPoint: "TashkilAbove" 63 801 basechar 0
AnchorPoint: "VAbove" 63 747 basechar 0
LayerCount: 2
Fore
SplineSet
198 90 m 0
 207 88 210 79 210 61 c 0
 209 20 205 -1 198 0 c 0
 160 5 127 43 99 115 c 0
 93 130 88 129 86 112 c 0
 75 38 46 1 0 0 c 0
 -5 0 -8 4 -11 11 c 0
 -27 57 -24 83 0 90 c 24
 23 97 41 109 53 126 c 0
 63 140 68 159 67 182 c 2
 50 635 l 0
 50 643 51 649 54 652 c 2
 83 686 l 2
 90 694 93 693 94 681 c 0
 97 649 100 605 102 549 c 0
 109 346 115 231 121 204 c 0
 137 136 163 98 198 90 c 0
EndSplineSet
EndChar

StartChar: aMem.fina.alt
Encoding: 1114146 -1 34
Width: 334
AnchorPoint: "TashkilBelow" 293 -327 basechar 0
AnchorPoint: "TashkilAbove" 195 801 basechar 0
LayerCount: 2
Fore
SplineSet
334 90 m 0
 343 91 348 89 350 82 c 0
 355 60 353 33 344 4 c 0
 343 2 340 1 334 0 c 0
 296 -6 269 -15 251 -29 c 1
 317 -64 363 -91 389 -111 c 0
 402 -120 406 -132 399 -147 c 2
 373 -208 l 2
 365 -227 356 -234 347 -229 c 24
 317 -213 275 -206 222 -208 c 0
 143 -211 100 -227 96 -258 c 0
 92 -284 111 -387 151 -569 c 0
 162 -620 168 -667 166 -708 c 0
 165 -727 160 -737 151 -738 c 128
 142 -739 136 -730 134 -710 c 0
 128 -649 117 -592 102 -539 c 128
 87 -486 76 -435 68 -386 c 128
 60 -337 61 -291 73 -245 c 128
 85 -199 100 -168 120 -152 c 128
 140 -136 165 -125 198 -120 c 1
 170 -105 153 -96 147 -93 c 128
 141 -90 139 -84 141 -75 c 0
 148 -46 154 -29 160 -24 c 0
 235 46 293 84 334 90 c 0
EndSplineSet
EndChar

StartChar: aMem.fina
Encoding: 1114147 -1 35
Width: 522
AnchorPoint: "TashkilBelow" 342 -327 basechar 0
AnchorPoint: "TashkilAbove" 231 801 basechar 0
LayerCount: 2
Fore
SplineSet
261 204 m 0
 294 165 334 135 381 118 c 128
 428 101 474 91 522 90 c 0
 543 89 552 75 547 45 c 128
 542 15 533 0 522 0 c 0
 461 0 407 13 358 40 c 0
 354 42 354 41 354 37 c 0
 357 -34 344 -81 316 -104 c 0
 307 -111 297 -111 288 -103 c 0
 249 -68 224 -15 217 57 c 1
 182 56 145 36 107 -2 c 1
 100 -10 102 -53 114 -132 c 0
 151 -375 164 -514 155 -549 c 0
 151 -565 147 -574 141 -577 c 128
 135 -580 130 -579 125 -572 c 128
 120 -565 118 -555 118 -543 c 0
 116 -478 103 -375 79 -233 c 0
 58 -112 60 -20 84 42 c 0
 106 97 153 140 226 170 c 1
 230 182 235 193 241 202 c 128
 247 211 254 212 261 204 c 0
EndSplineSet
EndChar

StartChar: aMem.init
Encoding: 1114148 -1 36
Width: 389
AnchorPoint: "TashkilBelow" 195 -327 basechar 0
AnchorPoint: "TashkilAbove" 195 801 basechar 0
LayerCount: 2
Fore
SplineSet
233 318 m 1
 278 317 309 262 326 152 c 0
 327 145 326 139 323 135 c 2
 268 66 l 2
 263 59 256 57 249 59 c 0
 197 74 152 98 113 131 c 1
 82 44 45 0 0 0 c 1
 -6 0 -10 7 -15 21 c 0
 -30 67 -25 90 0 90 c 1
 31 91 60 110 88 146 c 0
 97 158 119 195 153 256 c 0
 176 297 202 318 233 318 c 1
161 220 m 1
 185 197 215 182 251 174 c 1
 252 203 242 222 222 231 c 128
 202 240 182 237 161 220 c 1
EndSplineSet
EndChar

StartChar: aMem.isol
Encoding: 1114149 -1 37
Width: 452
AnchorPoint: "TashkilBelow" 317 -391 basechar 0
AnchorPoint: "TashkilAbove" 195 801 basechar 0
LayerCount: 2
Fore
SplineSet
156 163 m 1
 180 173 209 181 243 185 c 1
 219 205 201 214 188 210 c 0
 170 205 159 189 156 163 c 1
104 126 m 1
 110 169 121 211 140 250 c 128
 159 289 180 313 202 321 c 1
 233 333 271 320 316 282 c 0
 340 262 361 239 381 214 c 0
 387 207 390 200 389 193 c 0
 379 135 373 101 370 94 c 128
 367 87 361 84 353 86 c 1
 242 112 160 92 104 26 c 0
 99 20 97 13 99 6 c 0
 123 -81 145 -176 165 -280 c 0
 195 -434 198 -513 173 -516 c 0
 165 -517 160 -508 158 -490 c 0
 152 -426 137 -351 116 -267 c 25
 76 -114 59 -18 65 20 c 0
 72 71 86 106 104 126 c 1
EndSplineSet
EndChar

StartChar: aMem.medi
Encoding: 1114150 -1 38
Width: 463
AnchorPoint: "TashkilBelow" 244 -327 basechar 0
AnchorPoint: "TashkilAbove" 195 801 basechar 0
LayerCount: 2
Fore
SplineSet
223 250 m 0
 227 252 230 251 232 248 c 0
 256 212 288 178 328 146 c 128
 368 114 413 95 464 90 c 0
 477 89 483 80 483 65 c 0
 483 21 477 0 464 0 c 0
 418 0 371 17 323 50 c 1
 320 14 317 -7 311 -13 c 128
 305 -19 298 -21 292 -21 c 0
 217 -15 155 17 105 78 c 0
 103 81 101 81 98 77 c 24
 65 27 32 1 0 0 c 0
 -7 0 -12 5 -15 16 c 0
 -23 46 -23 67 -14 80 c 0
 -9 87 -5 90 0 90 c 0
 63 92 101 108 115 138 c 1
 144 197 181 235 223 250 c 0
219 176 m 0
 218 178 216 179 212 178 c 0
 191 173 177 164 169 153 c 0
 166 149 166 145 170 142 c 0
 194 122 222 106 256 96 c 0
 265 93 267 96 262 102 c 0
 248 120 234 145 219 176 c 0
EndSplineSet
EndChar

StartChar: aNon.fina.alt
Encoding: 1114151 -1 39
Width: 1599
AnchorPoint: "TwoDotsBelow" 869 -520 basechar 0
AnchorPoint: "DotBelow" 923 -520 basechar 0
AnchorPoint: "RingBelow" 923 -325 basechar 0
AnchorPoint: "TashkilBelow" 488 -425 basechar 0
AnchorPoint: "DotAbove" 968 81 basechar 0
AnchorPoint: "HamzaAbove" 968 81 basechar 0
AnchorPoint: "TwoDotsAbove" 914 81 basechar 0
AnchorPoint: "TashkilAbove" 968 801 basechar 0
LayerCount: 2
Fore
SplineSet
1521 133 m 2
 1530 153 1538 156 1544 144 c 0
 1561 109 1580 90 1599 90 c 0
 1609 90 1614 75 1614 45 c 128
 1614 15 1609 1 1599 0 c 1
 1567 -0 l 1
 1563 -22 1557 -43 1550 -63 c 128
 1543 -83 1526 -108 1503 -140 c 0
 1440 -225 1334 -287 1186 -325 c 0
 1056 -358 925 -375 794 -376 c 0
 573 -378 398 -341 268 -264 c 0
 257 -257 190 -198 69 -87 c 0
 65 -83 63 -80 63 -75 c 128
 63 -70 65 -67 69 -66 c 128
 73 -65 77 -65 81 -68 c 0
 275 -210 518 -280 812 -277 c 0
 912 -276 1004 -266 1090 -247 c 0
 1314 -197 1456 -130 1515 -44 c 0
 1518 -40 1519 -36 1519 -34 c 0
 1518 -4 1510 28 1495 64 c 0
 1493 69 1493 73 1495 77 c 2
 1521 133 l 2
EndSplineSet
EndChar

StartChar: aNon.fina
Encoding: 1114152 -1 40
Width: 615
AnchorPoint: "TwoDotsBelow" 213 -486 basechar 0
AnchorPoint: "DotBelow" 267 -486 basechar 0
AnchorPoint: "RingBelow" 267 -291 basechar 0
AnchorPoint: "TashkilBelow" 317 -391 basechar 0
AnchorPoint: "TashkilAbove" 332 801 basechar 0
AnchorPoint: "TwoDotsAbove" 278 312 basechar 0
AnchorPoint: "TaaAbove" 332 195 basechar 0
AnchorPoint: "DotAbove" 332 312 basechar 0
AnchorPoint: "HamzaAbove" 332 244 basechar 0
LayerCount: 2
Fore
SplineSet
527 148 m 2
 531 158 536 159 543 152 c 128
 550 145 560 130 574 109 c 24
 582 96 595 90 615 90 c 0
 629 90 637 83 639 69 c 128
 641 55 638 40 632 24 c 128
 626 8 621 0 615 0 c 0
 584 0 l 1
 580 -77 557 -149 513 -216 c 24
 463 -292 378 -332 259 -336 c 0
 199 -338 150 -321 114 -286 c 128
 78 -251 61 -208 64 -157 c 128
 67 -106 93 -38 140 49 c 0
 142 53 144 55 148 55 c 128
 152 55 156 54 158 51 c 128
 160 48 160 43 157 38 c 0
 125 -24 109 -68 111 -93 c 24
 116 -182 170 -227 271 -228 c 1
 382 -229 465 -199 522 -137 c 1
 533 -57 527 10 503 64 c 0
 499 73 497 79 498 81 c 2
 527 148 l 2
EndSplineSet
EndChar

StartChar: aNon.isol.alt
Encoding: 1114153 -1 41
Width: 1734
AnchorPoint: "TwoDotsBelow" 1007 -332 basechar 0
AnchorPoint: "DotBelow" 1061 -332 basechar 0
AnchorPoint: "RingBelow" 1061 -137 basechar 0
AnchorPoint: "TashkilBelow" 488 -327 basechar 0
AnchorPoint: "TashkilAbove" 1074 801 basechar 0
AnchorPoint: "TwoDotsAbove" 1020 273 basechar 0
AnchorPoint: "HamzaAbove" 1074 273 basechar 0
AnchorPoint: "DotAbove" 1074 273 basechar 0
LayerCount: 2
Fore
SplineSet
1627 371 m 1
 1646 336 1659 292 1667 240 c 128
 1675 188 1674 148 1665 118 c 0
 1650 72 1633 36 1614 11 c 1
 1586 -24 1540 -55 1474 -85 c 0
 1372 -132 1232 -164 1053 -183 c 128
 874 -202 699 -192 528 -155 c 1
 405 -129 320 -101 274 -73 c 128
 228 -45 160 14 70 104 c 0
 63 110 62 117 66 123 c 128
 70 129 75 130 83 125 c 0
 179 62 303 11 455 -29 c 1
 658 -83 872 -97 1095 -73 c 0
 1282 -52 1418 -21 1506 21 c 0
 1562 48 1602 80 1627 115 c 0
 1629 118 1630 121 1630 125 c 0
 1627 166 1610 217 1578 279 c 0
 1576 283 1576 288 1578 293 c 2
 1614 372 l 2
 1618 380 1622 379 1627 371 c 1
EndSplineSet
EndChar

StartChar: aNon.isol
Encoding: 1114154 -1 42
Width: 572
AnchorPoint: "TwoDotsBelow" 226 -213 basechar 0
AnchorPoint: "DotBelow" 280 -213 basechar 0
AnchorPoint: "RingBelow" 280 -18 basechar 0
AnchorPoint: "TashkilBelow" 293 -327 basechar 0
AnchorPoint: "TashkilAbove" 269 801 basechar 0
AnchorPoint: "TwoDotsAbove" 214 552 basechar 0
AnchorPoint: "TaaAbove" 269 488 basechar 0
AnchorPoint: "HamzaAbove" 269 488 basechar 0
AnchorPoint: "DotAbove" 269 552 basechar 0
LayerCount: 2
Fore
SplineSet
438 460 m 1
 461 416 481 364 496 302 c 128
 511 240 513 181 504 123 c 0
 499 92 489 64 474 41 c 0
 435 -20 367 -55 271 -64 c 0
 202 -71 149 -57 113 -23 c 128
 77 11 61 57 64 117 c 128
 67 177 87 233 125 285 c 0
 130 292 135 294 140 291 c 128
 145 288 145 280 139 271 c 0
 98 202 90 145 115 102 c 128
 140 59 191 38 266 38 c 1
 354 39 424 67 477 125 c 0
 478 126 479 130 479 134 c 0
 480 165 470 207 450 259 c 128
 430 311 413 349 397 372 c 0
 392 379 391 384 393 389 c 2
 423 463 l 2
 427 472 431 471 438 460 c 1
EndSplineSet
EndChar

StartChar: aQaf.fina
Encoding: 1114155 -1 43
Width: 607
AnchorPoint: "TashkilBelow" 293 -327 basechar 0
AnchorPoint: "TashkilAbove" 342 801 basechar 0
AnchorPoint: "TwoDotsAbove" 415 361 basechar 0
AnchorPoint: "DotAbove" 469 361 basechar 0
AnchorPoint: "HamzaAbove" 469 361 basechar 0
LayerCount: 2
Fore
SplineSet
487 216 m 0
 529 211 557 169 571 90 c 1
 594 90 606 90 608 90 c 0
 617 90 624 83 627 68 c 128
 630 53 631 37 627 22 c 128
 623 7 617 0 608 0 c 2
 569 0 l 1
 568 -5 564 -23 555 -55 c 152
 546 -87 535 -112 521 -130 c 0
 468 -201 391 -242 288 -255 c 0
 230 -262 180 -253 139 -230 c 0
 105 -210 83 -183 72 -146 c 0
 53 -82 66 -11 111 67 c 1
 140 116 l 2
 143 121 146 123 150 123 c 128
 154 123 157 120 158 116 c 128
 159 112 159 109 157 105 c 0
 144 84 136 71 133 66 c 0
 95 0 92 -58 126 -107 c 0
 148 -139 187 -158 244 -165 c 128
 301 -172 358 -164 415 -142 c 128
 472 -120 512 -86 534 -42 c 1
 537 -33 536 -20 530 0 c 1
 474 0 435 10 412 30 c 128
 389 50 395 89 430 148 c 0
 458 194 476 217 487 216 c 0
498 103 m 0
 490 121 480 128 466 128 c 128
 452 128 447 124 451 115 c 0
 458 100 472 93 494 95 c 0
 499 96 500 99 498 103 c 0
EndSplineSet
EndChar

StartChar: aQaf.isol
Encoding: 1114156 -1 44
Width: 687
AnchorPoint: "TashkilBelow" 342 -327 basechar 0
AnchorPoint: "TashkilAbove" 439 801 basechar 0
AnchorPoint: "TwoDotsAbove" 420 537 basechar 0
AnchorPoint: "DotAbove" 474 537 basechar 0
AnchorPoint: "HamzaAbove" 469 537 basechar 0
LayerCount: 2
Fore
SplineSet
508 393 m 0
 520 393 534 383 550 364 c 0
 585 322 608 264 620 188 c 0
 626 150 625 111 618 73 c 0
 604 5 568 -48 510 -89 c 1
 442 -136 373 -162 305 -164 c 0
 182 -168 104 -125 71 -36 c 1
 63 -12 61 18 67 53 c 0
 78 125 110 198 160 271 c 0
 163 275 167 277 171 276 c 128
 175 275 178 274 180 270 c 128
 182 266 181 262 178 257 c 1
 134 193 111 140 110 96 c 128
 109 52 125 15 158 -16 c 128
 191 -47 240 -62 306 -59 c 0
 390 -55 469 -25 543 34 c 0
 576 60 593 85 595 109 c 152
 597 133 589 154 570 173 c 1
 529 130 486 117 443 131 c 0
 388 149 376 197 405 275 c 128
 434 353 469 393 508 393 c 0
513 256 m 1
 499 272 486 280 475 280 c 128
 464 280 455 273 446 259 c 1
 455 249 466 244 479 243 c 128
 492 242 503 247 513 256 c 1
EndSplineSet
EndChar

StartChar: aRaa.fina.alt2
Encoding: 1114157 -1 45
Width: 522
AnchorPoint: "HamzaAbove" 356 355 basechar 0
AnchorPoint: "TwoDotsAbove" 355 416 basechar 0
AnchorPoint: "Stroke" 361 -102 basechar 0
AnchorPoint: "DotAlt" 212 -75 basechar 0
AnchorPoint: "DotBelow" 181 -475 basechar 0
AnchorPoint: "RingBelow" 180 -263 basechar 0
AnchorPoint: "VAbove" 355 355 basechar 0
AnchorPoint: "TaaAbove" 355 355 basechar 0
AnchorPoint: "TashkilBelow" 259 -327 basechar 0
AnchorPoint: "TashkilAbove" 248 801 basechar 0
AnchorPoint: "DotAbove" 355 416 basechar 0
LayerCount: 2
Fore
SplineSet
522 0 m 0
 464 -30 416 -68 378 -114 c 0
 343 -156 317 -192 298 -222 c 1
 249 -302 199 -338 149 -329 c 0
 120 -324 98 -308 81 -282 c 0
 65 -259 60 -225 64 -180 c 128
 68 -135 89 -78 126 -8 c 0
 129 -3 132 -1 136 0 c 128
 140 1 143 0 144 -3 c 128
 145 -6 146 -9 145 -12 c 128
 144 -15 136 -31 121 -62 c 0
 108 -88 99 -115 95 -142 c 0
 88 -194 105 -227 148 -241 c 0
 175 -250 200 -247 221 -232 c 0
 242 -218 263 -193 283 -158 c 0
 332 -72 384 -6 441 39 c 0
 464 58 491 74 522 90 c 0
 535 97 541 94 541 82 c 0
 540 56 538 33 534 13 c 0
 533 8 529 4 522 0 c 0
EndSplineSet
EndChar

StartChar: aRaa.fina
Encoding: 1114158 -1 46
Width: 489
AnchorPoint: "Stroke" 398 -107 basechar 0
AnchorPoint: "DotAlt" 216 -82 basechar 0
AnchorPoint: "DotBelow" 357 -351 basechar 0
AnchorPoint: "RingBelow" 246 -233 basechar 0
AnchorPoint: "TaaAbove" 320 300 basechar 0
AnchorPoint: "TashkilBelow" 391 -327 basechar 0
AnchorPoint: "TashkilAbove" 244 801 basechar 0
AnchorPoint: "TwoDotsAbove" 267 397 basechar 0
AnchorPoint: "VAbove" 320 397 basechar 0
AnchorPoint: "DotAbove" 321 397 basechar 0
AnchorPoint: "HamzaAbove" 321 397 basechar 0
LayerCount: 2
Fore
SplineSet
376 62 m 2
 407 142 l 2
 412 153 416 155 420 148 c 24
 431 128 442 113 452 104 c 128
 462 95 474 90 490 90 c 0
 506 90 514 75 514 46 c 128
 514 17 506 1 490 0 c 24
 479 -1 468 -1 457 0 c 0
 454 0 453 -2 452 -6 c 1
 450 -71 427 -131 384 -187 c 128
 341 -243 300 -274 263 -278 c 128
 226 -282 194 -281 169 -275 c 128
 144 -269 111 -257 72 -237 c 0
 67 -235 64 -233 63 -229 c 128
 62 -225 62 -222 65 -220 c 128
 68 -218 71 -218 75 -219 c 1
 119 -230 156 -232 189 -225 c 0
 257 -211 319 -171 376 -108 c 0
 400 -81 415 -54 421 -27 c 1
 422 -10 408 13 380 41 c 0
 374 47 373 53 376 62 c 2
EndSplineSet
EndChar

StartChar: aRaa.isol
Encoding: 1114159 -1 47
Width: 399
AnchorPoint: "Stroke" 317 31 basechar 0
AnchorPoint: "DotAlt" 69 -33 basechar 0
AnchorPoint: "DotBelow" 273 -264 basechar 0
AnchorPoint: "RingBelow" 95 -173 basechar 0
AnchorPoint: "TaaAbove" 160 434 basechar 0
AnchorPoint: "TashkilBelow" 248 -327 basechar 0
AnchorPoint: "TashkilAbove" 195 801 basechar 0
AnchorPoint: "TwoDotsAbove" 130 458 basechar 0
AnchorPoint: "VAbove" 185 458 basechar 0
AnchorPoint: "DotAbove" 160 531 basechar 0
AnchorPoint: "HamzaAbove" 185 458 basechar 0
LayerCount: 2
Fore
SplineSet
246 279 m 2
 248 287 254 286 264 276 c 0
 290 249 309 214 322 169 c 128
 335 124 340 80 336 35 c 1
 328 -23 305 -77 266 -127 c 128
 227 -177 176 -210 114 -226 c 0
 97 -231 81 -230 66 -225 c 0
 -12 -199 -60 -179 -79 -167 c 0
 -82 -165 -83 -164 -83 -161 c 128
 -83 -158 -82 -156 -80 -154 c 128
 -78 -152 -74 -152 -71 -153 c 0
 -25 -167 14 -171 47 -167 c 128
 80 -163 118 -148 161 -120 c 0
 225 -79 271 -31 300 24 c 0
 303 29 303 34 302 40 c 0
 292 75 266 119 224 171 c 0
 222 174 221 177 222 179 c 2
 246 279 l 2
EndSplineSet
EndChar

StartChar: aSad.fina
Encoding: 1114160 -1 48
Width: 1181
AnchorPoint: "TwoDotsBelow" 781 -146 basechar 0
AnchorPoint: "DotBelow" 830 -146 basechar 0
AnchorPoint: "TashkilBelow" 342 -327 basechar 0
AnchorPoint: "TashkilAbove" 820 801 basechar 0
AnchorPoint: "TwoDotsAbove" 768 501 basechar 0
AnchorPoint: "DotAbove" 822 501 basechar 0
AnchorPoint: "HamzaAbove" 822 501 basechar 0
LayerCount: 2
Back
SplineSet
1426.7578125 90.33203125 m 0
 1437.82519531 87.7275390625 1444.01074219 83.984375 1445.3125 79.1015625 c 0
 1446.61425781 73.5673828125 1446.61425781 65.5927734375 1445.3125 55.17578125 c 0
 1440.4296875 18.3916015625 1434.24511719 0 1426.7578125 0 c 0
 1390.95019531 -0.3251953125 1354.81738281 19.8564453125 1318.359375 60.546875 c 1
 1288.73730469 24.4140625 1243.48925781 4.2314453125 1182.6171875 0 c 0
 1176.43261719 -0.3251953125 1172.20019531 4.7197265625 1169.921875 15.13671875 c 2
 1161.1328125 56.640625 l 2
 1159.50488281 63.4765625 1160.80761719 70.4755859375 1165.0390625 77.63671875 c 0
 1169.59667969 85.44921875 1175.45605469 89.6806640625 1182.6171875 90.33203125 c 0
 1256.8359375 95.8662109375 1306.31542969 117.67578125 1331.0546875 155.76171875 c 0
 1334.63574219 161.295898438 1338.54199219 164.0625 1342.7734375 164.0625 c 0
 1349.609375 164.0625 1353.19042969 161.784179688 1353.515625 157.2265625 c 0
 1354.16699219 149.4140625 1354.98046875 144.53125 1355.95703125 142.578125 c 0
 1377.76660156 112.629882812 1401.3671875 95.21484375 1426.7578125 90.33203125 c 0
979.00390625 233.88671875 m 0
 963.704101562 233.88671875 949.055664062 232.666015625 935.05859375 230.224609375 c 128
 921.061523438 227.783203125 907.633789062 223.713867188 894.775390625 218.017578125 c 128
 881.916992188 212.321289062 871.174804688 207.51953125 862.548828125 203.61328125 c 128
 853.922851562 199.70703125 843.75 193.034179688 832.03125 183.59375 c 128
 820.3125 174.153320312 812.418945312 167.805664062 808.349609375 164.55078125 c 128
 804.280273438 161.295898438 796.711914062 154.296875 785.64453125 143.5546875 c 128
 774.577148438 132.8125 768.5546875 127.116210938 767.578125 126.46484375 c 1
 813.4765625 124.836914062 866.374023438 129.963867188 926.26953125 141.845703125 c 128
 986.165039062 153.727539062 1028.64550781 171.061523438 1053.7109375 193.84765625 c 1
 1031.57519531 220.866210938 1006.67285156 234.211914062 979.00390625 233.88671875 c 0
1032.2265625 352.05078125 m 0
 1057.29199219 352.375976562 1079.26464844 343.017578125 1098.14453125 323.974609375 c 128
 1117.02441406 304.931640625 1131.51074219 282.063476562 1141.6015625 255.37109375 c 0
 1143.22949219 249.51171875 1143.71777344 243.977539062 1143.06640625 238.76953125 c 0
 1141.11328125 221.842773438 1133.30078125 201.497070312 1119.62890625 177.734375 c 128
 1105.95703125 153.971679688 1094.23828125 136.555664062 1084.47265625 125.48828125 c 0
 1076.33496094 116.374023438 1063.96484375 106.201171875 1047.36328125 94.970703125 c 128
 1030.76171875 83.740234375 1015.13671875 74.70703125 1000.48828125 67.87109375 c 1
 1022.62402344 65.2666015625 1052.734375 66.7314453125 1090.8203125 72.265625 c 128
 1128.90625 77.7998046875 1159.50488281 83.8212890625 1182.6171875 90.33203125 c 0
 1191.08105469 92.6103515625 1197.10253906 86.7509765625 1200.68359375 72.75390625 c 0
 1205.89160156 50.29296875 1203.93847656 29.9482421875 1194.82421875 11.71875 c 0
 1191.24316406 4.8828125 1187.17480469 0.9765625 1182.6171875 0 c 0
 1149.08886719 -6.8359375 1111.89746094 -8.8701171875 1071.04492188 -6.103515625 c 128
 1030.19238281 -3.3369140625 992.919921875 1.3837890625 959.228515625 8.056640625 c 128
 925.537109375 14.7294921875 896.159179688 22.6240234375 871.09375 31.73828125 c 1
 857.747070312 30.1103515625 844.401367188 28.6455078125 831.0546875 27.34375 c 0
 756.510742188 21.484375 685.546875 26.5302734375 618.1640625 42.48046875 c 1
 604.166992188 -66.2431640625 584.797851562 -134.928710938 560.05859375 -163.57421875 c 0
 537.59765625 -189.616210938 506.266601562 -211.9140625 466.064453125 -230.46875 c 128
 425.862304688 -249.0234375 391.032226562 -261.393554688 361.572265625 -267.578125 c 128
 332.112304688 -273.762695312 309.407226562 -276.85546875 293.45703125 -276.85546875 c 0
 246.256835938 -276.204101562 210.612304688 -272.053710938 186.5234375 -264.404296875 c 128
 162.434570312 -256.754882812 138.671875 -240.234375 115.234375 -214.84375 c 0
 94.4013671875 -192.3828125 79.9970703125 -166.911132812 72.021484375 -138.427734375 c 128
 64.0458984375 -109.944335938 61.6865234375 -82.6005859375 64.94140625 -56.396484375 c 128
 68.1962890625 -30.1923828125 74.462890625 -4.150390625 83.740234375 21.728515625 c 128
 93.017578125 47.607421875 102.946289062 69.4990234375 113.525390625 87.40234375 c 128
 124.104492188 105.305664062 134.27734375 119.954101562 144.04296875 131.34765625 c 0
 149.250976562 137.20703125 153.971679688 139.811523438 158.203125 139.16015625 c 128
 162.434570312 138.508789062 164.631835938 135.905273438 164.794921875 131.34765625 c 128
 164.958007812 126.790039062 163.411132812 122.395507812 160.15625 118.1640625 c 0
 119.791992188 69.3359375 100.09765625 22.7861328125 101.07421875 -21.484375 c 0
 101.725585938 -61.5234375 117.919921875 -97.16796875 149.658203125 -128.41796875 c 128
 181.396484375 -159.66796875 225.911132812 -176.432617188 283.203125 -178.7109375 c 0
 304.6875 -179.6875 329.833984375 -177.734375 358.642578125 -172.8515625 c 128
 387.451171875 -167.96875 416.911132812 -160.563476562 447.021484375 -150.634765625 c 128
 477.131835938 -140.706054688 504.801757812 -126.46484375 530.029296875 -107.91015625 c 128
 555.256835938 -89.35546875 572.428710938 -68.5224609375 581.54296875 -45.41015625 c 0
 583.170898438 -41.8291015625 583.659179688 -37.109375 583.0078125 -31.25 c 0
 573.567382812 32.8779296875 556.640625 82.03125 532.2265625 116.2109375 c 0
 527.018554688 123.698242188 525.227539062 129.719726562 526.85546875 134.27734375 c 2
 558.10546875 216.30859375 l 1
 561.360351562 222.493164062 564.616210938 225.422851562 567.87109375 225.09765625 c 128
 571.125976562 224.772460938 573.893554688 222.65625 576.171875 218.75 c 2
 612.79296875 155.76171875 l 1
 632.975585938 143.06640625 669.270507812 134.440429688 721.6796875 129.8828125 c 1
 770.5078125 184.5703125 826.334960938 235.3515625 889.16015625 282.2265625 c 128
 951.985351562 329.1015625 999.674804688 352.375976562 1032.2265625 352.05078125 c 0
979.00390625 233.88671875 m 0
 963.704101562 233.88671875 949.055664062 232.666015625 935.05859375 230.224609375 c 128
 921.061523438 227.783203125 907.633789062 223.713867188 894.775390625 218.017578125 c 128
 881.916992188 212.321289062 871.174804688 207.51953125 862.548828125 203.61328125 c 128
 853.922851562 199.70703125 843.75 193.034179688 832.03125 183.59375 c 128
 820.3125 174.153320312 812.418945312 167.805664062 808.349609375 164.55078125 c 128
 804.280273438 161.295898438 796.711914062 154.296875 785.64453125 143.5546875 c 128
 774.577148438 132.8125 768.5546875 127.116210938 767.578125 126.46484375 c 1
 813.4765625 124.836914062 866.374023438 129.963867188 926.26953125 141.845703125 c 128
 986.165039062 153.727539062 1028.64550781 171.061523438 1053.7109375 193.84765625 c 1
 1031.57519531 220.866210938 1006.67285156 234.211914062 979.00390625 233.88671875 c 0
EndSplineSet
Fore
SplineSet
979 234 m 1
 923 234 874 218 832 184 c 1
 768 126 l 1
 814 124 866 130 926 142 c 128
 986 154 1029 171 1054 194 c 1
 1032 221 1007 234 979 234 c 1
831 27 m 1
 753 22 682 27 618 42 c 1
 603 -72 584 -141 560 -164 c 0
 489 -232 400 -269 293 -277 c 0
 215 -283 156 -262 115 -215 c 128
 74 -168 58 -115 65 -57 c 0
 74 19 101 82 144 131 c 0
 149 137 154 140 158 139 c 128
 162 138 165 136 165 131 c 128
 165 126 163 122 160 118 c 0
 85 21 81 -61 149 -128 c 0
 183 -162 228 -179 283 -179 c 0
 375 -179 458 -155 530 -108 c 0
 552 -93 570 -72 582 -45 c 0
 584 -41 584 -37 583 -31 c 0
 576 28 559 77 532 116 c 0
 527 123 525 129 527 134 c 2
 558 216 l 1
 564 228 570 229 576 219 c 2
 613 156 l 1
 633 143 670 135 722 130 c 1
 771 185 826 235 888 282 c 128
 950 329 998 352 1032 352 c 0
 1057 352 1080 342 1099 323 c 128
 1118 304 1133 281 1142 255 c 0
 1144 249 1144 245 1143 239 c 0
 1139 208 1119 169 1084 125 c 1
 1080 121 1077 118 1073 115 c 1
 1114 100 1150 91 1181 90 c 0
 1187 90 1191 81 1192 65 c 0
 1196 22 1192 1 1181 0 c 0
 1126 -6 1058 13 975 57 c 1
 933 41 885 31 831 27 c 1
EndSplineSet
EndChar

StartChar: aSad.init
Encoding: 1114161 -1 49
Width: 698
AnchorPoint: "TwoDotsBelow" 342 -195 basechar 0
AnchorPoint: "DotBelow" 391 -195 basechar 0
AnchorPoint: "TashkilBelow" 342 -327 basechar 0
AnchorPoint: "TashkilAbove" 308 801 basechar 0
AnchorPoint: "TwoDotsAbove" 255 437 basechar 0
AnchorPoint: "DotAbove" 310 437 basechar 0
AnchorPoint: "HamzaAbove" 310 437 basechar 0
LayerCount: 2
Fore
SplineSet
523 285 m 0
 542 285 567 274 597 252 c 128
 627 230 639 208 635 186 c 128
 631 164 620 137 603 106 c 128
 586 75 573 56 566 51 c 0
 505 6 425 -16 326 -16 c 1
 287 -16 249 -10 215 -1 c 1
 210 -8 201 -35 188 -83 c 25
 186 -93 179 -96 168 -92 c 128
 157 -88 153 -81 154 -70 c 24
 158 -46 166 -18 179 13 c 1
 144 28 117 47 97 71 c 0
 90 80 84 84 80 84 c 128
 76 84 72 79 68 70 c 0
 49 23 26 0 0 0 c 0
 -4 0 -7 4 -11 11 c 0
 -21 35 -25 54 -20 67 c 128
 -15 80 -8 88 0 90 c 0
 35 98 64 124 87 167 c 0
 92 176 99 180 108 180 c 128
 117 180 126 175 132 165 c 0
 153 132 188 108 238 93 c 1
 267 125 295 153 322 177 c 0
 404 248 471 284 523 285 c 0
567 133 m 0
 529 168 486 183 439 179 c 0
 420 177 392 164 355 140 c 128
 318 116 292 97 279 83 c 1
 317 77 372 78 441 86 c 128
 510 94 552 106 566 123 c 1
 570 126 571 129 567 133 c 0
EndSplineSet
EndChar

StartChar: aSad.isol
Encoding: 1114162 -1 50
Width: 1212
AnchorPoint: "TwoDotsBelow" 830 -98 basechar 0
AnchorPoint: "DotBelow" 879 -98 basechar 0
AnchorPoint: "TashkilBelow" 342 -327 basechar 0
AnchorPoint: "TashkilAbove" 820 801 basechar 0
AnchorPoint: "TwoDotsAbove" 767 542 basechar 0
AnchorPoint: "DotAbove" 821 542 basechar 0
AnchorPoint: "HamzaAbove" 821 542 basechar 0
LayerCount: 2
Fore
SplineSet
1039 393 m 24
 1089 394 1125 364 1147 305 c 1
 1152 287 1148 264 1133 235 c 128
 1118 206 1106 187 1097 177 c 0
 1049 124 961 92 829 81 c 0
 755 75 687 79 626 93 c 1
 613 -15 591 -84 562 -114 c 0
 495 -183 407 -222 298 -229 c 0
 178 -237 103 -192 71 -96 c 0
 63 -71 60 -41 65 -7 c 0
 73 52 92 107 120 158 c 0
 132 179 143 197 153 210 c 0
 156 214 160 216 164 215 c 128
 168 214 171 212 172 208 c 128
 173 204 172 200 170 196 c 1
 160 182 151 165 143 145 c 0
 122 94 115 49 121 10 c 1
 136 -79 192 -124 288 -127 c 1
 374 -129 453 -107 528 -62 c 1
 553 -47 571 -26 583 3 c 0
 585 7 585 12 584 18 c 0
 574 81 557 130 533 164 c 0
 528 171 526 177 528 181 c 2
 559 263 l 1
 565 274 570 276 576 266 c 2
 613 203 l 1
 636 189 675 181 726 179 c 1
 784 238 842 288 901 330 c 128
 960 372 1006 393 1039 393 c 24
1088 245 m 1
 1047 283 1004 295 957 283 c 128
 910 271 849 236 773 178 c 1
 913 170 1018 192 1088 245 c 1
EndSplineSet
EndChar

StartChar: aSad.medi
Encoding: 1114163 -1 51
Width: 722
AnchorPoint: "TwoDotsBelow" 342 -195 basechar 0
AnchorPoint: "DotBelow" 391 -195 basechar 0
AnchorPoint: "TashkilBelow" 391 -327 basechar 0
AnchorPoint: "TashkilAbove" 342 801 basechar 0
AnchorPoint: "TwoDotsAbove" 293 482 basechar 0
AnchorPoint: "DotAbove" 348 482 basechar 0
AnchorPoint: "HamzaAbove" 348 482 basechar 0
LayerCount: 2
Back
SplineSet
-0.9765625 90.33203125 m 0
 10.0908203125 87.7275390625 16.2763671875 83.984375 17.578125 79.1015625 c 0
 18.8798828125 73.5673828125 18.8798828125 65.5927734375 17.578125 55.17578125 c 0
 12.6953125 18.3916015625 6.5107421875 0 -0.9765625 0 c 0
 -36.7841796875 -0.3251953125 -72.9169921875 19.8564453125 -109.375 60.546875 c 1
 -138.997070312 24.4140625 -184.245117188 4.2314453125 -245.1171875 0 c 0
 -251.301757812 -0.3251953125 -255.534179688 4.7197265625 -257.8125 15.13671875 c 2
 -266.6015625 56.640625 l 2
 -268.229492188 63.4765625 -266.926757812 70.4755859375 -262.6953125 77.63671875 c 0
 -258.137695312 85.44921875 -252.278320312 89.6806640625 -245.1171875 90.33203125 c 0
 -170.8984375 95.8662109375 -121.418945312 117.67578125 -96.6796875 155.76171875 c 0
 -93.0986328125 161.295898438 -89.1923828125 164.0625 -84.9609375 164.0625 c 0
 -78.125 164.0625 -74.5439453125 161.784179688 -74.21875 157.2265625 c 0
 -73.5673828125 149.4140625 -72.75390625 144.53125 -71.77734375 142.578125 c 0
 -49.9677734375 112.629882812 -26.3671875 95.21484375 -0.9765625 90.33203125 c 0
536.1328125 332.03125 m 1
 562.5 337.565429688 590.739257812 331.135742188 620.849609375 312.744140625 c 128
 650.959960938 294.352539062 668.9453125 272.94921875 674.8046875 248.53515625 c 1
 665.0390625 203.288085938 651.041992188 166.178710938 632.8125 137.20703125 c 0
 627.278320312 128.743164062 620.198242188 120.60546875 611.572265625 112.79296875 c 128
 602.946289062 104.98046875 591.552734375 95.8662109375 577.392578125 85.44921875 c 128
 563.232421875 75.0322265625 554.362304688 68.1962890625 550.78125 64.94140625 c 1
 565.4296875 65.2666015625 580.891601562 66.40625 597.16796875 68.359375 c 128
 613.444335938 70.3125 626.708984375 72.1845703125 636.962890625 73.974609375 c 128
 647.216796875 75.7646484375 662.109375 78.5322265625 681.640625 82.275390625 c 128
 701.171875 86.0185546875 714.680664062 88.7041015625 722.16796875 90.33203125 c 0
 730.95703125 91.9599609375 737.3046875 85.6123046875 741.2109375 71.2890625 c 0
 747.0703125 48.828125 745.60546875 28.6455078125 736.81640625 10.7421875 c 0
 733.235351562 3.5810546875 729.00390625 -0.1630859375 724.12109375 -0.48828125 c 0
 614.420898438 -2.44140625 529.133789062 -0.6513671875 468.26171875 4.8828125 c 1
 435.383789062 0 396.728515625 -2.0341796875 352.294921875 -1.220703125 c 128
 307.861328125 -0.4072265625 268.5546875 3.5810546875 234.375 10.7421875 c 1
 223.958007812 -18.8798828125 217.28515625 -42.8056640625 214.35546875 -61.03515625 c 0
 213.053710938 -69.82421875 209.065429688 -75.8466796875 202.392578125 -79.1015625 c 128
 195.719726562 -82.3564453125 189.616210938 -81.8681640625 184.08203125 -77.63671875 c 128
 178.547851562 -73.4052734375 176.432617188 -66.0810546875 177.734375 -55.6640625 c 0
 180.012695312 -37.7607421875 187.174804688 -11.71875 199.21875 22.4609375 c 1
 178.385742188 28.6455078125 161.1328125 36.5400390625 147.4609375 46.142578125 c 128
 133.7890625 55.7451171875 120.280273438 69.1728515625 106.93359375 86.42578125 c 1
 102.375976562 84.47265625 95.0517578125 77.5556640625 84.9609375 65.673828125 c 128
 74.8701171875 53.7919921875 62.4189453125 41.3408203125 47.607421875 28.3203125 c 128
 32.7958984375 15.2998046875 16.9267578125 5.859375 0 0 c 0
 -7.1611328125 -2.6044921875 -12.8583984375 2.9296875 -17.08984375 16.6015625 c 0
 -23.92578125 40.0390625 -23.4375 60.7099609375 -15.625 78.61328125 c 0
 -12.0439453125 86.42578125 -7.1611328125 90.1689453125 -0.9765625 89.84375 c 0
 10.4169921875 89.1923828125 22.0537109375 91.552734375 33.935546875 96.923828125 c 128
 45.8173828125 102.294921875 55.419921875 108.235351562 62.744140625 114.74609375 c 128
 70.068359375 121.256835938 78.5322265625 129.313476562 88.134765625 138.916015625 c 128
 97.7373046875 148.518554688 104.00390625 154.459960938 106.93359375 156.73828125 c 0
 114.420898438 161.62109375 119.791992188 163.493164062 123.046875 162.353515625 c 128
 126.301757812 161.213867188 131.34765625 156.73828125 138.18359375 148.92578125 c 0
 168.45703125 115.397460938 204.915039062 97.0048828125 247.55859375 93.75 c 1
 285.969726562 151.692382812 334.228515625 203.694335938 392.333984375 249.755859375 c 128
 450.439453125 295.817382812 498.372070312 323.2421875 536.1328125 332.03125 c 1
598.6328125 192.3828125 m 0
 571.940429688 217.448242188 540.0390625 229.00390625 502.9296875 227.05078125 c 0
 472.65625 225.09765625 435.709960938 209.635742188 392.08984375 180.6640625 c 128
 348.469726562 151.692382812 315.592773438 120.768554688 293.45703125 87.890625 c 1
 352.375976562 85.9375 412.678710938 95.947265625 474.365234375 117.919921875 c 128
 536.051757812 139.892578125 577.63671875 160.969726562 599.12109375 181.15234375 c 0
 600.09765625 182.454101562 600.504882812 184.489257812 600.341796875 187.255859375 c 128
 600.178710938 190.022460938 599.609375 191.731445312 598.6328125 192.3828125 c 0
EndSplineSet
Fore
SplineSet
599 192 m 0
 549 242 480 239 392 181 c 0
 348 152 315 121 293 88 c 1
 343 86 405 96 475 117 c 0
 520 131 561 152 599 181 c 0
 603 184 604 188 599 192 c 0
234 11 m 1
 224 -19 218 -40 216 -54 c 128
 214 -68 209 -76 202 -79 c 128
 195 -82 190 -82 184 -78 c 0
 174 -70 178 -37 199 22 c 1
 178 28 161 36 147 46 c 128
 133 56 120 69 107 86 c 1
 72 32 36 3 0 0 c 0
 -8 -1 -13 5 -17 17 c 0
 -25 41 -25 62 -16 79 c 0
 -11 88 -6 91 0 90 c 0
 31 85 66 108 107 157 c 0
 112 163 116 165 121 163 c 128
 126 161 131 156 138 149 c 0
 168 115 205 97 248 94 c 1
 286 152 334 204 392 250 c 128
 450 296 498 323 536 332 c 1
 562 338 591 331 621 313 c 128
 651 295 669 273 675 249 c 1
 663 194 644 149 618 114 c 1
 658 100 692 91 722 90 c 0
 728 90 732 81 733 65 c 0
 737 22 733 1 722 0 c 0
 670 -5 606 12 529 51 c 1
 432 2 333 -11 234 11 c 1
EndSplineSet
EndChar

StartChar: aSen.fina
Encoding: 1114164 -1 52
Width: 1079
AnchorPoint: "DigitAbove" 779 366 basechar 0
AnchorPoint: "VAbove" 779 366 basechar 0
AnchorPoint: "TwoDotsBelow" 732 -195 basechar 0
AnchorPoint: "DotBelow" 781 -195 basechar 0
AnchorPoint: "TashkilBelow" 312 -391 basechar 0
AnchorPoint: "TashkilAbove" 732 801 basechar 0
AnchorPoint: "TwoDotsAbove" 725 366 basechar 0
AnchorPoint: "HamzaAbove" 779 366 basechar 0
AnchorPoint: "DotAbove" 779 366 basechar 0
LayerCount: 2
Fore
SplineSet
941 183 m 24
 943 191 947 195 954 198 c 0
 962 201 970 196 977 183 c 0
 1009 121 1043 89 1079 90 c 0
 1099 91 1106 72 1101 34 c 0
 1098 12 1090 0 1079 0 c 0
 1030 0 989 38 958 113 c 0
 955 121 952 120 949 112 c 0
 932 58 920 24 912 8 c 128
 904 -8 891 -17 875 -17 c 0
 836 -18 800 -3 767 28 c 1
 732 -11 684 -27 625 -20 c 1
 622 -92 612 -148 593 -189 c 0
 580 -220 561 -244 535 -264 c 0
 457 -323 372 -352 281 -350 c 0
 169 -347 98 -300 69 -209 c 0
 61 -183 62 -147 71 -100 c 128
 80 -53 101 1 135 63 c 0
 137 67 140 70 144 70 c 128
 148 70 152 68 154 65 c 128
 156 62 156 58 154 54 c 0
 113 -23 96 -78 103 -109 c 0
 121 -186 184 -231 291 -243 c 0
 336 -248 388 -240 448 -217 c 128
 508 -194 553 -162 582 -119 c 1
 597 -66 584 -11 545 47 c 0
 541 54 540 60 542 66 c 2
 565 149 l 2
 569 162 574 164 581 155 c 0
 590 139 598 120 605 99 c 0
 612 77 648 71 711 80 c 0
 743 85 768 103 786 137 c 0
 791 145 795 155 799 166 c 128
 803 177 807 183 812 184 c 128
 817 185 820 183 824 179 c 128
 828 175 829 171 828 166 c 0
 818 137 l 0
 815 125 819 115 828 110 c 0
 855 95 882 92 909 99 c 0
 917 101 928 129 941 183 c 24
EndSplineSet
EndChar

StartChar: aSen.init
Encoding: 1114165 -1 53
Width: 568
AnchorPoint: "DigitAbove" 317 439 basechar 0
AnchorPoint: "VAbove" 317 439 basechar 0
AnchorPoint: "TwoDotsBelow" 269 -98 basechar 0
AnchorPoint: "DotBelow" 317 -98 basechar 0
AnchorPoint: "TashkilBelow" 293 -327 basechar 0
AnchorPoint: "TashkilAbove" 317 801 basechar 0
AnchorPoint: "TwoDotsAbove" 263 439 basechar 0
AnchorPoint: "HamzaAbove" 317 439 basechar 0
AnchorPoint: "DotAbove" 317 439 basechar 0
LayerCount: 2
Fore
SplineSet
485 285 m 0
 488 289 491 287 496 279 c 128
 501 271 504 255 505 229 c 128
 506 203 504 178 498 153 c 1
 484 99 467 72 446 71 c 0
 397 69 355 87 321 122 c 1
 298 67 266 34 225 23 c 128
 184 12 142 30 100 75 c 1
 65 25 31 0 0 0 c 1
 -7 0 -13 15 -18 44 c 128
 -23 73 -17 88 0 90 c 0
 64 97 115 130 150 191 c 0
 152 195 154 196 157 196 c 0
 160 196 163 195 165 192 c 0
 169 187 163 172 150 148 c 1
 161 128 188 118 231 117 c 0
 282 116 323 161 350 252 c 0
 351 256 353 259 356 259 c 128
 359 259 363 258 365 255 c 128
 367 252 368 249 367 245 c 2
 357 203 l 1
 371 188 391 177 418 169 c 128
 445 161 461 162 465 172 c 128
 469 182 466 200 456 230 c 0
 455 233 464 252 485 285 c 0
EndSplineSet
EndChar

StartChar: aSen.isol
Encoding: 1114166 -1 54
Width: 992
AnchorPoint: "DigitAbove" 748 522 basechar 0
AnchorPoint: "VAbove" 748 522 basechar 0
AnchorPoint: "TwoDotsBelow" 732 -98 basechar 0
AnchorPoint: "DotBelow" 781 -98 basechar 0
AnchorPoint: "TashkilBelow" 342 -327 basechar 0
AnchorPoint: "TashkilAbove" 732 801 basechar 0
AnchorPoint: "TwoDotsAbove" 694 522 basechar 0
AnchorPoint: "HamzaAbove" 748 522 basechar 0
AnchorPoint: "DotAbove" 748 522 basechar 0
LayerCount: 2
Fore
SplineSet
893 363 m 2
 895 370 898 373 903 373 c 128
 908 373 913 371 916 365 c 0
 925 350 929 328 929 297 c 0
 929 248 917 205 894 167 c 0
 888 157 880 150 870 148 c 0
 839 142 802 152 761 177 c 1
 731 124 688 100 632 108 c 1
 629 51 620 2 606 -40 c 128
 592 -82 567 -116 532 -144 c 24
 456 -204 371 -232 279 -230 c 0
 165 -227 95 -179 68 -87 c 0
 61 -61 62 -24 72 25 c 128
 82 74 102 126 133 183 c 0
 135 187 138 189 142 189 c 128
 146 189 149 188 151 185 c 128
 153 182 153 178 151 174 c 0
 109 93 93 38 101 11 c 0
 125 -76 188 -121 289 -124 c 0
 427 -128 526 -83 585 10 c 1
 589 61 576 120 546 184 c 0
 542 191 541 196 543 200 c 0
 557 231 570 254 579 268 c 0
 582 272 585 272 588 269 c 128
 591 266 599 256 610 237 c 128
 621 218 628 208 634 207 c 0
 668 200 703 210 738 238 c 0
 751 249 763 280 775 330 c 0
 776 336 779 338 783 340 c 128
 787 342 791 342 794 340 c 0
 801 335 801 316 795 282 c 1
 822 262 851 255 884 258 c 1
 884 268 883 275 879 279 c 128
 875 283 874 287 875 291 c 2
 893 363 l 2
EndSplineSet
EndChar

StartChar: aSen.medi
Encoding: 1114167 -1 55
Width: 568
AnchorPoint: "DigitAbove" 291 379 basechar 0
AnchorPoint: "VAbove" 291 379 basechar 0
AnchorPoint: "TwoDotsBelow" 220 -146 basechar 0
AnchorPoint: "DotBelow" 269 -195 basechar 0
AnchorPoint: "TashkilBelow" 303 -327 basechar 0
AnchorPoint: "TashkilAbove" 244 801 basechar 0
AnchorPoint: "HamzaAbove" 291 379 basechar 0
AnchorPoint: "DotAbove" 291 379 basechar 0
AnchorPoint: "TwoDotsAbove" 236 379 basechar 0
LayerCount: 2
Fore
SplineSet
128 162 m 0
 132 170 137 175 142 177 c 128
 147 179 152 177 156 172 c 128
 160 167 160 159 155 149 c 128
 150 139 145 129 139 118 c 1
 220 85 276 107 308 183 c 0
 312 191 316 196 321 198 c 128
 326 200 331 199 335 194 c 128
 339 189 339 182 336 174 c 0
 328 152 325 137 326 129 c 0
 328 114 340 103 363 98 c 128
 386 93 403 96 415 108 c 128
 427 120 437 147 447 189 c 0
 448 195 452 197 459 197 c 128
 466 197 471 195 473 189 c 0
 497 127 529 94 569 90 c 0
 577 89 583 80 586 62 c 0
 589 46 589 31 585 19 c 128
 581 7 576 0 569 0 c 0
 514 0 474 33 449 99 c 0
 447 104 446 104 444 99 c 0
 432 59 421 31 410 16 c 128
 399 1 386 -6 371 -7 c 0
 324 -9 288 9 264 46 c 1
 238 15 206 0 168 0 c 128
 130 0 102 13 83 39 c 1
 57 13 29 0 0 0 c 0
 -13 0 -20 22 -23 67 c 0
 -24 81 -17 88 0 90 c 0
 66 95 109 120 128 162 c 0
EndSplineSet
EndChar

StartChar: aTaa.fina
Encoding: 1114168 -1 56
Width: 751
AnchorPoint: "TashkilBelow" 391 -327 basechar 0
AnchorPoint: "TashkilAbove" 488 801 basechar 0
AnchorPoint: "TwoDotsAbove" 522 488 basechar 0
AnchorPoint: "DotAbove" 576 488 basechar 0
LayerCount: 2
Back
SplineSet
320.80078125 766.11328125 m 0
 322.75390625 769.694335938 325.520507812 771.403320312 329.1015625 771.240234375 c 128
 332.682617188 771.077148438 335.44921875 769.368164062 337.40234375 766.11328125 c 0
 339.680664062 761.881835938 343.017578125 754.150390625 347.412109375 742.919921875 c 128
 351.806640625 731.689453125 356.526367188 721.760742188 361.572265625 713.134765625 c 128
 366.618164062 704.508789062 373.209960938 696.125976562 381.34765625 687.98828125 c 0
 382.975585938 686.03515625 384.114257812 683.186523438 384.765625 679.443359375 c 128
 385.416992188 675.700195312 384.27734375 671.223632812 381.34765625 666.015625 c 1
 362.3046875 640.625 l 2
 358.723632812 635.7421875 357.096679688 629.557617188 357.421875 622.0703125 c 0
 372.721679688 451.497070312 379.231445312 346.19140625 376.953125 306.15234375 c 0
 375.651367188 284.016601562 369.303710938 244.465820312 357.91015625 187.5 c 1
 421.38671875 241.536132812 485.83984375 283.69140625 551.26953125 313.96484375 c 0
 583.49609375 328.938476562 611.328125 333.984375 634.765625 329.1015625 c 0
 646.809570312 326.497070312 659.504882812 318.034179688 672.8515625 303.7109375 c 128
 686.198242188 289.387695312 696.614257812 273.762695312 704.1015625 256.8359375 c 0
 707.356445312 249.348632812 707.844726562 239.583007812 705.56640625 227.5390625 c 0
 698.079101562 188.151367188 682.942382812 154.133789062 660.15625 125.48828125 c 0
 643.879882812 104.98046875 614.420898438 83.8212890625 571.77734375 62.01171875 c 1
 606.93359375 63.96484375 666.9921875 73.4052734375 751.953125 90.33203125 c 0
 761.71875 92.28515625 768.229492188 85.9375 771.484375 71.2890625 c 0
 776.3671875 48.5029296875 773.92578125 28.3203125 764.16015625 10.7421875 c 0
 760.25390625 3.90625 756.184570312 0.3251953125 751.953125 0 c 0
 668.620117188 -5.2080078125 577.63671875 -2.44140625 479.00390625 8.30078125 c 1
 450.358398438 3.7431640625 404.948242188 0 342.7734375 -2.9296875 c 128
 280.598632812 -5.859375 219.401367188 -5.6962890625 159.1796875 -2.44140625 c 0
 156.25 -2.1162109375 152.506835938 -0.6513671875 147.94921875 1.953125 c 0
 131.999023438 11.0673828125 115.966796875 24.4140625 99.853515625 41.9921875 c 128
 83.740234375 59.5703125 72.1025390625 76.0087890625 64.94140625 91.30859375 c 0
 63.6396484375 93.5869140625 63.3134765625 95.703125 63.96484375 97.65625 c 128
 64.6162109375 99.609375 66.5693359375 100.260742188 69.82421875 99.609375 c 0
 97.8193359375 94.0751953125 136.23046875 91.30859375 185.05859375 91.30859375 c 128
 233.88671875 91.30859375 261.881835938 92.7734375 269.04296875 95.703125 c 1
 274.90234375 101.237304688 285.725585938 112.874023438 301.513671875 130.615234375 c 128
 317.301757812 148.356445312 328.776367188 160.969726562 335.9375 168.45703125 c 1
 336.9140625 187.663085938 337.483398438 208.333007812 337.646484375 230.46875 c 128
 337.809570312 252.604492188 337.727539062 272.135742188 337.40234375 289.0625 c 128
 337.077148438 305.989257812 335.9375 327.880859375 333.984375 354.736328125 c 128
 332.03125 381.591796875 330.647460938 401.530273438 329.833984375 414.55078125 c 128
 329.020507812 427.571289062 326.904296875 449.625976562 323.486328125 480.712890625 c 128
 320.068359375 511.799804688 317.87109375 531.575195312 316.89453125 540.0390625 c 128
 315.91796875 548.502929688 313.395507812 570.068359375 309.326171875 604.736328125 c 128
 305.256835938 639.404296875 303.059570312 658.69140625 302.734375 662.59765625 c 0
 301.432617188 673.991210938 300.29296875 681.640625 299.31640625 685.546875 c 0
 296.711914062 699.870117188 295.735351562 708.0078125 296.38671875 709.9609375 c 0
 304.850585938 732.421875 312.98828125 751.139648438 320.80078125 766.11328125 c 0
547.36328125 226.07421875 m 0
 544.108398438 226.07421875 539.875976562 225.749023438 534.66796875 225.09765625 c 0
 509.928710938 221.516601562 484.211914062 212.809570312 457.51953125 198.974609375 c 128
 430.827148438 185.139648438 409.912109375 172.36328125 394.775390625 160.64453125 c 128
 379.638671875 148.92578125 359.211914062 131.999023438 333.49609375 109.86328125 c 0
 328.61328125 105.631835938 324.870117188 102.375976562 322.265625 100.09765625 c 1
 446.614257812 108.561523438 550.78125 131.022460938 634.765625 167.48046875 c 1
 627.604492188 181.15234375 616.536132812 194.3359375 601.5625 207.03125 c 128
 586.588867188 219.7265625 568.522460938 226.07421875 547.36328125 226.07421875 c 0
EndSplineSet
Fore
SplineSet
534 24 m 1
 501 11 441 3 354 -2 c 0
 233 -9 165 -8 148 2 c 0
 116 20 89 50 65 91 c 0
 61 98 63 101 70 100 c 0
 142 87 208 86 269 96 c 1
 336 168 l 1
 340 215 338 288 331 386 c 128
 324 484 315 577 303 663 c 2
 296 710 l 1
 304 732 313 751 321 766 c 0
 323 770 326 771 330 771 c 128
 334 771 338 767 341 759 c 0
 351 729 363 706 378 691 c 0
 386 683 387 674 381 666 c 2
 362 641 l 2
 358 636 356 629 357 622 c 0
 373 452 380 351 378 320 c 128
 376 289 369 245 358 188 c 1
 421 242 486 284 551 314 c 0
 588 331 616 336 635 329 c 0
 664 318 686 294 704 257 c 0
 707 250 708 241 706 228 c 0
 696 170 670 127 630 98 c 1
 681 89 722 86 752 90 c 0
 761 91 768 85 771 72 c 0
 777 46 776 28 769 17 c 128
 762 6 756 0 752 0 c 0
 687 -5 614 3 534 24 c 1
535 225 m 0
 471 217 399 175 322 100 c 1
 446 108 551 131 635 167 c 1
 610 211 576 231 535 225 c 0
EndSplineSet
EndChar

StartChar: aTaa.init
Encoding: 1114169 -1 57
Width: 567
AnchorPoint: "TashkilBelow" 244 -327 basechar 0
AnchorPoint: "TashkilAbove" 342 801 basechar 0
AnchorPoint: "TwoDotsAbove" 317 488 basechar 0
AnchorPoint: "DotAbove" 374 488 basechar 0
LayerCount: 2
Fore
SplineSet
125 708 m 0
 128 712 130 714 133 713 c 128
 136 712 138 709 140 705 c 0
 157 667 171 640 183 627 c 0
 189 621 189 614 183 607 c 2
 163 582 l 2
 159 577 157 571 158 561 c 0
 167 428 171 354 171 340 c 0
 171 273 166 220 158 180 c 1
 255 258 327 303 375 316 c 0
 400 323 420 324 436 318 c 0
 461 309 482 286 501 250 c 0
 505 243 505 232 502 221 c 0
 490 179 473 141 451 107 c 24
 435 83 403 65 353 53 c 0
 231 25 113 7 0 0 c 0
 -7 0 -12 7 -17 22 c 128
 -22 37 -24 52 -21 67 c 128
 -18 82 -11 89 0 90 c 0
 28 91 50 94 66 96 c 1
 122 150 l 1
 123 155 125 168 126 188 c 0
 127 208 127 234 127 265 c 128
 127 296 124 353 119 435 c 0
 113 532 108 591 104 614 c 128
 100 637 98 650 99 654 c 0
 107 676 116 693 125 708 c 0
340 226 m 0
 333 226 326 225 319 223 c 0
 253 202 189 161 127 100 c 1
 255 111 358 129 435 157 c 0
 439 158 440 161 438 164 c 0
 411 204 378 225 340 226 c 0
EndSplineSet
EndChar

StartChar: aTaa.isol
Encoding: 1114170 -1 58
Width: 792
AnchorPoint: "TashkilBelow" 439 -327 basechar 0
AnchorPoint: "TashkilAbove" 537 801 basechar 0
AnchorPoint: "TwoDotsAbove" 513 488 basechar 0
AnchorPoint: "DotAbove" 566 488 basechar 0
LayerCount: 2
Fore
SplineSet
289 672 m 0
 302 703 310 720 312 723 c 128
 314 726 317 728 321 728 c 128
 325 728 327 725 328 722 c 0
 335 704 341 690 346 680 c 128
 351 670 360 659 373 644 c 25
 378 637 378 629 373 623 c 18
 354 598 l 10
 350 593 348 587 349 581 c 0
 364 420 370 315 367 266 c 128
 364 217 361 184 357 167 c 1
 439 231 499 271 534 288 c 128
 569 305 600 315 625 318 c 0
 639 320 654 316 671 305 c 1
 707 282 727 260 729 240 c 128
 731 220 724 193 706 159 c 128
 688 125 673 102 662 90 c 0
 645 72 591 49 500 21 c 128
 409 -7 312 -23 212 -28 c 1
 175 -22 145 -9 120 8 c 128
 95 25 78 42 69 58 c 128
 60 74 62 81 73 80 c 0
 121 73 184 72 263 78 c 1
 329 143 l 1
 333 212 331 284 324 360 c 128
 317 436 309 502 302 559 c 128
 295 616 290 647 288 654 c 128
 286 661 287 666 289 672 c 0
503 204 m 24
 455 189 395 150 322 85 c 1
 459 100 569 130 651 173 c 1
 629 217 579 227 503 204 c 24
EndSplineSet
EndChar

StartChar: aTaa.medi
Encoding: 1114171 -1 59
Width: 551
AnchorPoint: "TashkilBelow" 220 -327 basechar 0
AnchorPoint: "TashkilAbove" 244 801 basechar 0
AnchorPoint: "TwoDotsAbove" 288 488 basechar 0
AnchorPoint: "DotAbove" 342 488 basechar 0
LayerCount: 2
Back
SplineSet
58.10546875 675.29296875 m 0
 64.6162109375 692.545898438 72.75390625 710.612304688 82.51953125 729.4921875 c 0
 84.47265625 733.3984375 87.3212890625 735.107421875 91.064453125 734.619140625 c 128
 94.8076171875 734.130859375 97.4931640625 731.770507812 99.12109375 727.5390625 c 0
 100.749023438 723.958007812 103.352539062 717.7734375 106.93359375 708.984375 c 128
 110.514648438 700.1953125 113.28125 693.766601562 115.234375 689.697265625 c 128
 117.1875 685.627929688 120.442382812 680.094726562 125 673.095703125 c 128
 129.557617188 666.096679688 134.928710938 659.504882812 141.11328125 653.3203125 c 0
 149.250976562 644.856445312 149.250976562 636.067382812 141.11328125 626.953125 c 0
 136.881835938 622.0703125 131.184570312 614.74609375 124.0234375 604.98046875 c 0
 120.768554688 600.749023438 119.62890625 593.26171875 120.60546875 582.51953125 c 0
 120.930664062 579.915039062 122.721679688 563.313476562 125.9765625 532.71484375 c 128
 129.231445312 502.116210938 131.999023438 474.853515625 134.27734375 450.927734375 c 128
 136.555664062 427.001953125 138.590820312 399.495117188 140.380859375 368.408203125 c 128
 142.170898438 337.321289062 142.578125 312.98828125 141.6015625 295.41015625 c 0
 140.299804688 272.94921875 134.114257812 233.88671875 123.046875 178.22265625 c 1
 148.762695312 199.70703125 169.270507812 216.552734375 184.5703125 228.759765625 c 128
 199.870117188 240.966796875 219.7265625 255.290039062 244.140625 271.728515625 c 128
 268.5546875 288.166992188 290.690429688 301.106445312 310.546875 310.546875 c 0
 344.401367188 326.171875 373.860351562 331.868164062 398.92578125 327.63671875 c 0
 411.62109375 325.358398438 425.211914062 317.219726562 439.697265625 303.22265625 c 128
 454.182617188 289.225585938 465.657226562 273.92578125 474.12109375 257.32421875 c 0
 477.702148438 250.163085938 478.352539062 240.397460938 476.07421875 228.02734375 c 0
 468.913085938 188.639648438 453.61328125 154.459960938 430.17578125 125.48828125 c 0
 413.57421875 105.305664062 386.881835938 83.984375 350.09765625 61.5234375 c 1
 380.696289062 62.1748046875 408.69140625 64.2900390625 434.08203125 67.87109375 c 128
 459.47265625 71.4521484375 498.698242188 78.9384765625 551.7578125 90.33203125 c 0
 561.198242188 92.28515625 566.89453125 85.7744140625 568.84765625 70.80078125 c 0
 571.77734375 45.7353515625 569.82421875 25.5537109375 562.98828125 10.25390625 c 0
 560.05859375 3.7431640625 556.315429688 0.3251953125 551.7578125 0 c 0
 476.887695312 -6.5107421875 376.627929688 -4.8828125 250.9765625 4.8828125 c 1
 227.213867188 1.3017578125 185.383789062 -0.8955078125 125.48828125 -1.708984375 c 128
 65.5927734375 -2.5224609375 23.7626953125 -1.953125 0 0 c 0
 -10.0908203125 0.6513671875 -18.310546875 8.3818359375 -24.658203125 23.193359375 c 128
 -31.005859375 38.0048828125 -32.3076171875 52.8154296875 -28.564453125 67.626953125 c 128
 -24.8212890625 82.4384765625 -15.9501953125 90.0068359375 -1.953125 90.33203125 c 0
 0.3251953125 90.33203125 7.8935546875 90.4130859375 20.751953125 90.576171875 c 128
 33.6103515625 90.7392578125 41.015625 90.8203125 42.96875 90.8203125 c 1
 98.14453125 150.390625 l 1
 99.4462890625 278.3203125 88.7041015625 432.454101562 65.91796875 612.79296875 c 0
 62.6630859375 638.834960938 60.3837890625 654.459960938 59.08203125 659.66796875 c 0
 57.12890625 666.50390625 56.8037109375 671.711914062 58.10546875 675.29296875 c 0
307.12890625 225.5859375 m 0
 302.571289062 225.5859375 298.176757812 225.09765625 293.9453125 224.12109375 c 0
 263.997070312 218.586914062 230.224609375 202.799804688 192.626953125 176.7578125 c 128
 155.029296875 150.715820312 120.768554688 122.233398438 89.84375 91.30859375 c 1
 209.9609375 97.8193359375 314.778320312 123.698242188 404.296875 168.9453125 c 1
 396.809570312 181.640625 384.358398438 194.3359375 366.943359375 207.03125 c 128
 349.528320312 219.7265625 329.58984375 225.911132812 307.12890625 225.5859375 c 0
EndSplineSet
Fore
SplineSet
334 24 m 1
 285 8 221 -1 142 -2 c 128
 63 -3 16 -2 0 0 c 0
 -5 1 -10 8 -15 23 c 0
 -29 66 -23 88 0 90 c 1
 43 91 l 1
 98 150 l 1
 99 278 89 433 66 613 c 0
 63 639 61 655 59 661 c 0
 56 671 64 693 83 729 c 0
 85 733 87 735 91 735 c 128
 95 735 97 732 99 728 c 0
 113 692 127 667 141 653 c 0
 149 646 149 637 141 627 c 2
 124 605 l 2
 120 600 120 593 121 583 c 0
 138 447 145 350 142 295 c 0
 141 273 134 234 123 178 c 1
 204 246 265 290 306 309 c 128
 347 328 378 335 399 328 c 0
 431 319 456 294 474 257 c 0
 478 250 478 240 476 228 c 0
 467 177 444 135 408 103 c 1
 459 90 507 85 552 90 c 0
 561 91 567 85 570 72 c 0
 576 46 576 28 569 17 c 128
 562 6 556 0 552 0 c 0
 487 -5 414 3 334 24 c 1
367 207 m 0
 325 238 266 228 192 177 c 0
 154 151 121 122 90 91 c 1
 210 98 314 124 404 169 c 1
 397 182 385 194 367 207 c 0
EndSplineSet
EndChar

StartChar: aWaw.fina
Encoding: 1114172 -1 60
Width: 492
AnchorPoint: "DigitAbove" 343 377 basechar 0
AnchorPoint: "Stroke" 404 -104 basechar 0
AnchorPoint: "RingBelow" 269 -63 basechar 0
AnchorPoint: "TashkilBelow" 391 -327 basechar 0
AnchorPoint: "TashkilAbove" 293 801 basechar 0
AnchorPoint: "TwoDotsAbove" 289 377 basechar 0
AnchorPoint: "HamzaAbove" 343 377 basechar 0
AnchorPoint: "DotAbove" 343 377 basechar 0
AnchorPoint: "VAbove" 385 348 basechar 0
LayerCount: 2
Back
SplineSet
548.33984375 276.3671875 m 0
 550.618164062 279.622070312 553.385742188 280.924804688 556.640625 280.2734375 c 128
 559.895507812 279.622070312 562.5 277.506835938 564.453125 273.92578125 c 0
 584.309570312 239.420898438 590.006835938 186.198242188 581.54296875 114.2578125 c 0
 574.70703125 56.640625 544.921875 18.5546875 492.1875 0 c 1
 485.026367188 0 478.02734375 16.9267578125 471.19140625 50.78125 c 0
 468.913085938 62.1748046875 469.075195312 70.9638671875 471.6796875 77.1484375 c 128
 474.284179688 83.3330078125 481.120117188 87.7275390625 492.1875 90.33203125 c 0
 517.578125 96.5166015625 535.807617188 107.096679688 546.875 122.0703125 c 0
 548.176757812 123.698242188 548.33984375 125.9765625 547.36328125 128.90625 c 0
 544.43359375 145.833007812 535.481445312 165.202148438 520.5078125 187.01171875 c 0
 515.299804688 194.82421875 514.323242188 202.961914062 517.578125 211.42578125 c 0
 531.575195312 244.303710938 541.829101562 265.950195312 548.33984375 276.3671875 c 0
EndSplineSet
Fore
SplineSet
423 101 m 1
 410 129 394 143 375 142 c 1
 363 140 355 135 348 126 c 0
 345 122 345 118 350 112 c 0
 360 99 384 92 419 93 c 0
 423 93 424 96 423 101 c 1
471 -11 m 0
 450 -130 387 -213 282 -260 c 0
 255 -272 230 -280 207 -281 c 128
 184 -282 141 -262 79 -220 c 0
 72 -215 69 -210 72 -205 c 128
 75 -200 80 -200 86 -203 c 0
 142 -232 211 -222 295 -174 c 0
 367 -133 415 -77 441 -5 c 1
 441 -3 440 -1 438 -0 c 1
 389 1 354 7 331 20 c 128
 308 33 299 60 305 98 c 0
 306 107 309 117 313 129 c 0
 327 170 348 199 375 214 c 128
 402 229 425 224 444 198 c 0
 463 171 474 135 477 90 c 1
 482 90 486 91 492 91 c 0
 502 91 508 84 510 68 c 0
 512 53 511 38 507 23 c 128
 503 8 498 0 492 0 c 0
 487 0 481 0 473 -0 c 1
 473 -3 472 -7 471 -11 c 0
EndSplineSet
EndChar

StartChar: aWaw.isol
Encoding: 1114173 -1 61
Width: 547
AnchorPoint: "AlefAbove" 391 317 basechar 0
AnchorPoint: "DigitAbove" 347 439 basechar 0
AnchorPoint: "Stroke" 429 -21 basechar 0
AnchorPoint: "RingBelow" 264 -10 basechar 0
AnchorPoint: "TashkilBelow" 396 -327 basechar 0
AnchorPoint: "TashkilAbove" 356 801 basechar 0
AnchorPoint: "TwoDotsAbove" 292 439 basechar 0
AnchorPoint: "DotAbove" 347 439 basechar 0
AnchorPoint: "VAbove" 389 411 basechar 0
AnchorPoint: "HamzaAbove" 347 439 basechar 0
LayerCount: 2
Fore
SplineSet
315 194 m 0
 338 258 365 291 397 290 c 0
 416 290 434 277 451 250 c 128
 468 223 477 194 482 161 c 128
 487 128 482 81 467 22 c 128
 452 -37 423 -91 379 -141 c 128
 335 -191 301 -217 274 -220 c 128
 247 -223 212 -221 168 -214 c 128
 124 -207 93 -198 73 -190 c 0
 66 -187 62 -183 63 -178 c 128
 64 -173 69 -171 76 -172 c 0
 128 -179 178 -177 225 -166 c 0
 253 -159 294 -133 347 -86 c 128
 400 -39 432 -1 442 31 c 1
 439 58 435 74 430 77 c 1
 405 38 372 28 333 48 c 144
 294 68 288 117 315 194 c 0
406 157 m 1
 387 188 366 189 344 161 c 1
 361 142 382 141 406 157 c 1
EndSplineSet
EndChar

StartChar: aYaa.fina
Encoding: 1114174 -1 62
Width: 585
AnchorPoint: "HamzaBelow" 366 -487 basechar 0
AnchorPoint: "DotBelow" 366 -487 basechar 0
AnchorPoint: "TwoDotsBelow" 312 -487 basechar 0
AnchorPoint: "DigitBelow" 366 -487 basechar 0
AnchorPoint: "DigitAbove" 259 244 basechar 0
AnchorPoint: "AlefAbove" 293 -49 basechar 0
AnchorPoint: "RingBelow" 312 -293 basechar 0
AnchorPoint: "TwoDotsAbove" 205 244 basechar 0
AnchorPoint: "DotAbove" 259 244 basechar 0
AnchorPoint: "VAbove" 210 244 basechar 0
AnchorPoint: "Tail" 141 76 basechar 0
AnchorPoint: "TashkilBelow" 342 -376 basechar 0
AnchorPoint: "TashkilAbove" 293 801 basechar 0
AnchorPoint: "HamzaAbove" 161 244 basechar 0
LayerCount: 2
Fore
SplineSet
64 -116 m 0
 66 -83 75 -46 90 -6 c 128
 105 34 119 64 134 84 c 0
 139 90 144 92 150 89 c 128
 156 86 157 80 152 72 c 0
 100 -23 86 -97 111 -146 c 0
 147 -218 215 -251 314 -246 c 0
 429 -241 529 -203 615 -131 c 1
 622 -121 616 -114 597 -109 c 128
 578 -104 548 -100 508 -97 c 128
 468 -94 446 -92 442 -89 c 0
 409 -71 405 -44 429 -6 c 25
 458 38 511 69 586 90 c 24
 606 96 615 85 611 58 c 0
 606 20 598 0 586 0 c 0
 522 0 489 -8 488 -26 c 1
 570 -29 624 -41 650 -61 c 0
 660 -69 667 -79 670 -91 c 128
 673 -103 670 -121 660 -146 c 128
 650 -171 641 -188 632 -197 c 0
 547 -287 439 -334 308 -340 c 0
 227 -344 162 -324 114 -280 c 0
 76 -245 59 -191 64 -116 c 0
EndSplineSet
EndChar

StartChar: aYaa.isol
Encoding: 1114175 -1 63
Width: 764
AnchorPoint: "DigitBelow" 355 -346 basechar 0
AnchorPoint: "DigitAbove" 286 404 basechar 0
AnchorPoint: "AlefAbove" 293 171 basechar 0
AnchorPoint: "RingBelow" 312 -146 basechar 0
AnchorPoint: "TwoDotsAbove" 232 404 basechar 0
AnchorPoint: "DotAbove" 286 404 basechar 0
AnchorPoint: "VAbove" 237 404 basechar 0
AnchorPoint: "Tail" 171 236 basechar 0
AnchorPoint: "TashkilBelow" 342 -327 basechar 0
AnchorPoint: "TashkilAbove" 391 801 basechar 0
AnchorPoint: "TwoDotsBelow" 301 -346 basechar 0
AnchorPoint: "HamzaAbove" 188 404 basechar 0
AnchorPoint: "HamzaBelow" 355 -346 basechar 0
AnchorPoint: "DotBelow" 355 -346 basechar 0
LayerCount: 2
Fore
SplineSet
671 288 m 0
 631 309 581 304 519 269 c 0
 479 246 451 212 436 169 c 0
 433 161 434 152 438 143 c 0
 452 111 495 93 566 89 c 128
 637 85 675 70 678 44 c 0
 685 -8 669 -49 633 -78 c 0
 537 -155 428 -196 306 -201 c 0
 160 -207 79 -153 64 -39 c 0
 57 13 70 75 102 145 c 0
 120 183 141 216 165 246 c 0
 172 254 177 255 181 248 c 128
 185 241 184 236 180 230 c 0
 114 137 93 62 116 4 c 0
 146 -72 212 -108 316 -106 c 0
 443 -104 546 -71 624 -9 c 0
 631 -4 631 0 625 5 c 0
 614 14 577 21 512 25 c 128
 447 29 409 46 399 75 c 128
 389 104 389 137 401 174 c 0
 425 246 472 307 542 357 c 0
 577 383 608 396 633 398 c 0
 693 402 715 371 697 305 c 0
 692 287 683 281 671 288 c 0
EndSplineSet
EndChar

StartChar: hamza-ar
Encoding: 1569 1569 64
Width: 381
AnchorPoint: "TashkilBelow" 210 29 basechar 0
AnchorPoint: "TashkilAbove" 146 342 basechar 0
LayerCount: 2
Fore
SplineSet
308 125 m 2
 305 116 301 109 295 105 c 1
 245 87 183 54 109 4 c 24
 102 0 97 0 93 4 c 0
 82 15 97 38 138 73 c 1
 84 93 58 119 63 152 c 1
 66 179 87 215 125 259 c 0
 148 285 168 298 184 298 c 0
 218 298 233 279 230 242 c 0
 229 229 224 216 217 204 c 128
 210 192 201 190 192 199 c 0
 162 228 140 232 127 214 c 0
 113 193 125 174 163 156 c 0
 186 145 212 142 243 148 c 0
 252 150 262 154 274 161 c 128
 286 168 297 172 305 174 c 1
 318 176 321 168 316 151 c 2
 308 125 l 2
EndSplineSet
EndChar

StartChar: aLam.medi.LamMemFina
Encoding: 1114176 -1 65
Width: 254
AnchorPoint: "Stroke" 82 599 basechar 0
AnchorPoint: "TwoDotsBelow" 195 -98 basechar 0
AnchorPoint: "TwoDotsAbove" 24 842 basechar 0
AnchorPoint: "DotAbove" 83 842 basechar 0
AnchorPoint: "TashkilBelow" 220 -327 basechar 0
AnchorPoint: "TashkilAbove" 122 801 basechar 0
AnchorPoint: "VAbove" 83 793 basechar 0
LayerCount: 2
Fore
SplineSet
105 239 m 1
 100 156 79 93 40 50 c 0
 27 36 7 33 -19 41 c 0
 -34 46 -42 51 -41 57 c 0
 -41 60 -37 62 -31 64 c 0
 46 92 83 161 79 269 c 24
 76 359 71 440 63 513 c 128
 55 586 51 637 49 667 c 0
 49 674 51 682 55 690 c 2
 76 731 l 2
 86 752 93 747 96 718 c 2
 96 718 104 643 120 493 c 128
 136 343 144 269 144 267 c 24
 164 154 201 95 254 90 c 0
 284 87 290 62 271 13 c 0
 268 5 261 0 254 0 c 0
 180 0 130 79 105 239 c 1
EndSplineSet
EndChar

StartChar: aBaa.init.BaaRaaIsol
Encoding: 1114178 -1 67
Width: 246
AnchorPoint: "DigitBelow" 95 -98 basechar 0
AnchorPoint: "DigitAbove" 119 464 basechar 0
AnchorPoint: "VAbove" 119 464 basechar 0
AnchorPoint: "RingBelow" 98 132 basechar 0
AnchorPoint: "TaaAbove" 119 366 basechar 0
AnchorPoint: "TashkilBelow" 95 -327 basechar 0
AnchorPoint: "TashkilAbove" 119 801 basechar 0
AnchorPoint: "DotBelowAlt" 95 -366 basechar 0
AnchorPoint: "TwoDotsBelowAlt" 41 -366 basechar 0
AnchorPoint: "TwoDotsBelow" 80 -98 basechar 0
AnchorPoint: "TwoDotsAbove" 80 464 basechar 0
AnchorPoint: "DotAbove" 119 464 basechar 0
AnchorPoint: "HamzaAbove" 119 464 basechar 0
AnchorPoint: "DotBelow" 95 -98 basechar 0
AnchorPoint: "HamzaBelow" 95 -98 basechar 0
LayerCount: 2
Fore
SplineSet
120 263 m 128
 127 263 131 259 132 251 c 0
 137 202 132 162 117 131 c 128
 102 100 75 81 37 75 c 0
 10 70 -12 73 -31 82 c 0
 -39 86 -42 97 -39 114 c 1
 -24 190 l 2
 -21 207 -15 209 -6 196 c 152
 3 183 17 176 37 174 c 128
 57 172 74 177 89 190 c 128
 104 203 111 224 110 250 c 0
 110 258 113 263 120 263 c 128
EndSplineSet
EndChar

StartChar: aRaa.fina.BaaRaaIsol
Encoding: 1114179 -1 68
Width: 445
AnchorPoint: "HamzaAbove" 313 440 basechar 0
AnchorPoint: "Stroke" 400 -27 basechar 0
AnchorPoint: "DotAlt" 207 -2 basechar 0
AnchorPoint: "DotBelow" 305 -319 basechar 0
AnchorPoint: "RingBelow" 241 -144 basechar 0
AnchorPoint: "TaaAbove" 313 343 basechar 0
AnchorPoint: "TashkilBelow" 342 -327 basechar 0
AnchorPoint: "TashkilAbove" 312 801 basechar 0
AnchorPoint: "TwoDotsAbove" 259 440 basechar 0
AnchorPoint: "VAbove" 313 440 basechar 0
AnchorPoint: "DotAbove" 312 440 basechar 0
LayerCount: 2
Fore
SplineSet
440 196 m 24
 457 175 467 155 471 137 c 128
 475 119 476 93 473 57 c 0
 467 -5 440 -63 392 -116 c 128
 344 -169 300 -196 260 -198 c 0
 192 -201 129 -183 71 -146 c 0
 66 -143 64 -141 63 -137 c 128
 62 -133 63 -130 66 -128 c 128
 69 -126 73 -126 77 -128 c 0
 122 -142 160 -147 192 -141 c 0
 308 -120 390 -59 439 41 c 0
 440 44 440 49 440 57 c 0
 440 62 432 70 414 82 c 0
 406 89 403 99 406 114 c 2
 421 190 l 2
 424 206 431 208 440 196 c 24
EndSplineSet
EndChar

StartChar: aLam.medi.LamWawFina
Encoding: 1114180 -1 69
Width: 253
AnchorPoint: "Stroke" 106 599 basechar 0
AnchorPoint: "TwoDotsBelow" 88 -73 basechar 0
AnchorPoint: "TwoDotsAbove" 49 818 basechar 0
AnchorPoint: "DotAbove" 107 818 basechar 0
AnchorPoint: "TashkilBelow" 98 -327 basechar 0
AnchorPoint: "TashkilAbove" 63 801 basechar 0
AnchorPoint: "VAbove" 107 769 basechar 0
LayerCount: 2
Back
SplineSet
11.23046875 122.0703125 m 0
 16.7646484375 91.1455078125 17.2529296875 60.546875 12.6953125 30.2734375 c 0
 7.4873046875 -5.2080078125 1.46484375 -32.0634765625 -5.37109375 -50.29296875 c 1
 -18.3916015625 -96.8427734375 -45.7353515625 -141.11328125 -87.40234375 -183.10546875 c 128
 -129.069335938 -225.09765625 -165.0390625 -246.418945312 -195.3125 -247.0703125 c 0
 -222.331054688 -247.721679688 -254.8828125 -244.303710938 -292.96875 -236.81640625 c 0
 -331.0546875 -229.329101562 -364.420898438 -219.889648438 -393.06640625 -208.49609375 c 0
 -398.274414062 -206.54296875 -401.85546875 -203.776367188 -403.80859375 -200.1953125 c 0
 -405.436523438 -196.614257812 -404.948242188 -193.84765625 -402.34375 -191.89453125 c 0
 -399.739257812 -189.616210938 -395.99609375 -188.96484375 -391.11328125 -189.94140625 c 0
 -368.327148438 -194.82421875 -347.493164062 -197.590820312 -328.61328125 -198.2421875 c 0
 -310.05859375 -198.893554688 -292.155273438 -197.590820312 -274.90234375 -194.3359375 c 0
 -257.649414062 -190.754882812 -242.024414062 -186.360351562 -228.02734375 -181.15234375 c 128
 -214.030273438 -175.944335938 -196.940429688 -168.620117188 -176.7578125 -159.1796875 c 0
 -145.182617188 -144.53125 -116.374023438 -124.836914062 -90.33203125 -100.09765625 c 128
 -64.2900390625 -75.3583984375 -44.43359375 -50.9443359375 -30.76171875 -26.85546875 c 1
 -27.1806640625 -15.4619140625 -27.5068359375 0.3251953125 -31.73828125 20.5078125 c 1
 -81.8681640625 11.71875 -120.930664062 13.0205078125 -148.92578125 24.4140625 c 0
 -163.899414062 30.5986328125 -172.526367188 45.9794921875 -174.8046875 70.556640625 c 128
 -177.083007812 95.1337890625 -174.153320312 120.686523438 -166.015625 147.216796875 c 128
 -157.877929688 173.747070312 -145.01953125 197.75390625 -127.44140625 219.23828125 c 128
 -109.86328125 240.72265625 -90.9833984375 251.790039062 -70.80078125 252.44140625 c 0
 -50.9443359375 253.092773438 -33.7724609375 239.74609375 -19.287109375 212.40234375 c 128
 -4.8017578125 185.05859375 5.37109375 154.948242188 11.23046875 122.0703125 c 0
-103.02734375 145.99609375 m 0
 -109.211914062 145.99609375 -115.478515625 143.798828125 -121.826171875 139.404296875 c 128
 -128.173828125 135.009765625 -132.32421875 129.557617188 -134.27734375 123.046875 c 0
 -135.25390625 120.1171875 -132.8125 117.024414062 -126.953125 113.76953125 c 1
 -105.46875 108.561523438 -83.6591796875 107.421875 -61.5234375 110.3515625 c 1
 -72.9169921875 132.487304688 -86.7509765625 144.368164062 -103.02734375 145.99609375 c 0
EndSplineSet
Fore
SplineSet
104 717 m 2
 106 720 109 720 112 718 c 0
 115 716 116 714 116 711 c 2
 136 535 l 0
 155 338 172 218 187 173 c 0
 201 131 223 103 254 90 c 0
 272 82 279 74 277 66 c 0
 275 59 272 44 266 21 c 0
 262 7 258 0 254 0 c 0
 194 0 154 57 134 172 c 1
 124 134 110 103 92 80 c 128
 74 57 48 41 13 30 c 0
 2 27 -6 35 -11 54 c 0
 -18 79 -15 99 -3 113 c 0
 1 118 5 121 11 122 c 0
 71 138 103 161 107 192 c 0
 109 213 97 365 71 650 c 0
 70 656 72 662 74 666 c 2
 104 717 l 2
EndSplineSet
EndChar

StartChar: aWaw.fina.LamWawFina
Encoding: 1114181 -1 70
Width: 466
AnchorPoint: "DigitAbove" 344 400 basechar 0
AnchorPoint: "Stroke" 425 -52 basechar 0
AnchorPoint: "RingBelow" 267 -40 basechar 0
AnchorPoint: "TashkilBelow" 361 -327 basechar 0
AnchorPoint: "TashkilAbove" 295 801 basechar 0
AnchorPoint: "TwoDotsAbove" 290 400 basechar 0
AnchorPoint: "HamzaAbove" 344 400 basechar 0
AnchorPoint: "DotAbove" 344 400 basechar 0
AnchorPoint: "VAbove" 386 372 basechar 0
LayerCount: 2
Back
SplineSet
564.453125 716.796875 m 2
 567.057617188 722.004882812 571.940429688 722.331054688 579.1015625 717.7734375 c 0
 581.706054688 716.145507812 583.170898438 713.8671875 583.49609375 710.9375 c 0
 588.704101562 675.78125 595.133789062 617.106445312 602.783203125 534.912109375 c 128
 610.432617188 452.717773438 618.408203125 379.069335938 626.708984375 313.96484375 c 128
 635.009765625 248.860351562 644.04296875 201.823242188 653.80859375 172.8515625 c 0
 659.66796875 155.2734375 669.43359375 138.102539062 683.10546875 121.337890625 c 128
 696.77734375 104.573242188 709.47265625 94.23828125 721.19140625 90.33203125 c 0
 728.02734375 88.0537109375 732.340820312 79.345703125 734.130859375 64.208984375 c 128
 735.920898438 49.072265625 735.3515625 34.423828125 732.421875 20.263671875 c 128
 729.4921875 6.103515625 725.5859375 -0.6513671875 720.703125 0 c 0
 660.807617188 7.8125 621.09375 65.1044921875 601.5625 171.875 c 1
 591.145507812 133.463867188 576.985351562 102.946289062 559.08203125 80.322265625 c 128
 541.178710938 57.6982421875 514.811523438 41.015625 479.98046875 30.2734375 c 0
 469.23828125 27.0185546875 461.262695312 34.8310546875 456.0546875 53.7109375 c 0
 449.21875 78.7763671875 451.66015625 98.4697265625 463.37890625 112.79296875 c 0
 467.28515625 117.67578125 472.331054688 120.768554688 478.515625 122.0703125 c 0
 509.440429688 128.90625 532.389648438 138.834960938 547.36328125 151.85546875 c 128
 562.336914062 164.875976562 571.125976562 178.385742188 573.73046875 192.3828125 c 0
 578.61328125 216.471679688 567.545898438 361.979492188 540.52734375 628.90625 c 0
 539.875976562 636.393554688 539.225585938 642.08984375 538.57421875 645.99609375 c 0
 537.59765625 654.133789062 538.411132812 660.807617188 541.015625 666.015625 c 2
 564.453125 716.796875 l 2
EndSplineSet
Fore
SplineSet
448 212 m 0
 479 154 489 93 480 30 c 0
 476 4 469 -23 461 -50 c 24
 446 -99 418 -144 378 -185 c 128
 338 -226 302 -246 271 -247 c 0
 208 -249 142 -235 74 -208 c 0
 69 -206 65 -203 63 -200 c 128
 61 -197 62 -194 65 -192 c 128
 68 -190 71 -189 76 -190 c 0
 104 -196 125 -199 138 -198 c 0
 258 -195 358 -138 436 -27 c 0
 441 -20 440 -4 435 21 c 1
 385 12 346 13 317 25 c 128
 288 37 282 76 300 142 c 128
 318 208 350 245 396 252 c 0
 415 255 432 242 448 212 c 0
406 110 m 1
 394 133 380 145 364 146 c 152
 348 147 338 139 333 123 c 1
 339 110 363 105 406 110 c 1
EndSplineSet
EndChar

StartChar: aLam.init.LamHaaInit
Encoding: 1114182 -1 71
Width: 559
AnchorPoint: "Stroke" 158 527 basechar 0
AnchorPoint: "TwoDotsBelow" 151 0 basechar 0
AnchorPoint: "TwoDotsAbove" 93 815 basechar 0
AnchorPoint: "DotAbove" 151 815 basechar 0
AnchorPoint: "TashkilBelow" 411 -327 basechar 0
AnchorPoint: "TashkilAbove" 249 801 basechar 0
AnchorPoint: "VAbove" 151 767 basechar 0
LayerCount: 2
Fore
SplineSet
160 322 m 0
 155 396 145 487 129 596 c 1
 117 637 l 1
 116 645 118 652 121 657 c 152
 124 662 133 675 146 698 c 0
 148 702 152 704 155 704 c 128
 158 704 161 701 162 696 c 0
 169 670 183 645 206 621 c 0
 212 615 213 608 207 601 c 2
 186 572 l 2
 183 568 182 561 183 551 c 24
 202 409 204 317 187 275 c 0
 168 227 104 199 -5 192 c 0
 -51 189 -59 205 -31 240 c 0
 -24 248 -19 255 -13 262 c 128
 -7 269 2 273 13 273 c 0
 64 274 103 278 131 285 c 0
 152 290 161 302 160 322 c 0
EndSplineSet
EndChar

StartChar: aFaa.medi.FaaYaaFina
Encoding: 1114183 -1 72
Width: 426
AnchorPoint: "HamzaAbove" 243 586 basechar 0
AnchorPoint: "DotAbove" 285 586 basechar 0
AnchorPoint: "TwoDotsAbove" 194 586 basechar 0
AnchorPoint: "TashkilAbove" 268 801 basechar 0
AnchorPoint: "TashkilBelow" 253 -327 basechar 0
AnchorPoint: "DotBelow" 277 -303 basechar 0
AnchorPoint: "TwoDotsBelow" 229 -303 basechar 0
LayerCount: 2
Fore
SplineSet
166 211 m 0
 187 266 223 314 278 355 c 0
 299 371 317 379 331 379 c 0
 335 379 337 378 340 377 c 0
 356 367 366 349 371 322 c 0
 380 271 374 223 354 179 c 0
 344 158 332 136 318 115 c 1
 345 98 381 89 426 90 c 0
 432 90 437 82 438 65 c 0
 442 22 437 0 426 0 c 0
 361 0 293 19 222 57 c 1
 114 8 33 -44 -20 -100 c 1
 -49 -100 l 1
 -24 -37 l 1
 23 12 88 59 172 101 c 1
 151 132 150 168 166 211 c 0
286 273 m 1
 254 276 225 259 199 222 c 1
 192 213 194 198 209 178 c 128
 224 158 241 148 261 148 c 128
 281 148 303 162 327 187 c 1
 329 238 315 266 286 273 c 1
EndSplineSet
EndChar

StartChar: aLam.init.LamLamHaaInit
Encoding: 1114185 -1 74
Width: 202
AnchorPoint: "Stroke" 27 569 basechar 0
AnchorPoint: "TwoDotsBelow" 49 0 basechar 0
AnchorPoint: "TwoDotsAbove" -54 838 basechar 0
AnchorPoint: "DotAbove" 4 838 basechar 0
AnchorPoint: "TashkilBelow" 98 -327 basechar 0
AnchorPoint: "TashkilAbove" 107 801 basechar 0
AnchorPoint: "VAbove" 4 789 basechar 0
LayerCount: 2
Fore
SplineSet
-16 276 m 0
 -28 275 -28 290 -15 323 c 128
 -2 356 7 373 15 376 c 128
 23 379 27 385 26 395 c 128
 25 405 18 448 6 524 c 128
 -6 600 -14 644 -17 657 c 128
 -20 670 -21 680 -18 687 c 2
 -2 730 l 2
 0 735 3 738 7 737 c 128
 11 736 14 733 16 729 c 0
 30 696 46 672 63 655 c 0
 69 649 70 641 63 632 c 0
 49 612 42 602 41 601 c 1
 59 499 66 438 64 418 c 0
 55 327 29 279 -16 276 c 0
EndSplineSet
EndChar

StartChar: aLam.medi.LamLamHaaInit
Encoding: 1114186 -1 75
Width: 360
AnchorPoint: "Stroke" 218 599 basechar 0
AnchorPoint: "TwoDotsBelow" 220 0 basechar 0
AnchorPoint: "TwoDotsAbove" 146 845 basechar 0
AnchorPoint: "DotAbove" 204 845 basechar 0
AnchorPoint: "TashkilBelow" 244 -327 basechar 0
AnchorPoint: "TashkilAbove" 233 801 basechar 0
AnchorPoint: "VAbove" 204 796 basechar 0
LayerCount: 2
Fore
SplineSet
374 376 m 0
 382 378 385 371 383 356 c 0
 379 327 370 304 357 285 c 0
 353 279 350 276 347 276 c 0
 287 267 248 327 227 456 c 1
 224 374 184 307 106 257 c 0
 48 220 -4 200 -52 197 c 0
 -58 197 -60 200 -57 205 c 2
 -20 282 l 2
 -18 285 -16 287 -12 287 c 0
 92 294 160 333 192 403 c 1
 200 420 201 460 196 524 c 0
 194 547 192 571 190 595 c 128
 188 619 185 650 182 688 c 0
 182 692 183 695 186 699 c 2
 216 735 l 2
 224 745 228 745 229 735 c 0
 243 573 260 473 279 436 c 0
 305 386 337 366 374 376 c 0
EndSplineSet
EndChar

StartChar: aBaa.medi.BaaMemFina
Encoding: 1114188 -1 77
Width: 337
AnchorPoint: "DigitBelow" 218 -283 basechar 0
AnchorPoint: "DigitAbove" 179 391 basechar 0
AnchorPoint: "VAbove" 179 391 basechar 0
AnchorPoint: "RingBelow" 269 59 basechar 0
AnchorPoint: "TaaAbove" 179 293 basechar 0
AnchorPoint: "TashkilBelow" 220 -327 basechar 0
AnchorPoint: "TashkilAbove" 146 801 basechar 0
AnchorPoint: "TwoDotsBelow" 151 -283 basechar 0
AnchorPoint: "TwoDotsAbove" 125 391 basechar 0
AnchorPoint: "HamzaBelow" 218 -283 basechar 0
AnchorPoint: "HamzaAbove" 179 391 basechar 0
AnchorPoint: "DotBelow" 218 -283 basechar 0
AnchorPoint: "DotAbove" 179 391 basechar 0
LayerCount: 2
Fore
SplineSet
215 188 m 24
 238 188 265 167 296 125 c 0
 312 104 326 92 338 90 c 0
 376 83 383 58 359 12 c 0
 355 4 348 0 338 0 c 0
 305 0 275 21 249 64 c 0
 228 99 194 114 150 107 c 128
 106 100 65 83 30 55 c 0
 13 42 0 41 -10 51 c 128
 -20 61 -24 69 -19 76 c 128
 -14 83 1 94 26 110 c 0
 107 162 170 188 215 188 c 24
EndSplineSet
EndChar

StartChar: aSad.init.AboveHaa
Encoding: 1114190 -1 79
Width: 849
AnchorPoint: "TwoDotsBelow" 537 52 basechar 0
AnchorPoint: "DotBelow" 586 52 basechar 0
AnchorPoint: "TashkilBelow" 586 -137 basechar 0
AnchorPoint: "TashkilAbove" 453 801 basechar 0
AnchorPoint: "TwoDotsAbove" 399 688 basechar 0
AnchorPoint: "DotAbove" 453 688 basechar 0
AnchorPoint: "HamzaAbove" 453 688 basechar 0
AnchorPoint: "cursive" 0 207 exit 0
LayerCount: 2
Back
SplineSet
12.6953125 205.078125 m 25
 -14.6484375 207.03125 l 25
 0.48828125 216.796875 l 25
 0.48828125 193.359375 l 1049
92.7734375 233.3984375 m 0
 275.715820312 224.284179688 412.109375 226.07421875 501.953125 238.76953125 c 0
 508.7890625 239.74609375 511.555664062 236.979492188 510.25390625 230.46875 c 0
 504.719726562 204.752929688 500.163085938 187.255859375 496.58203125 177.978515625 c 128
 493.000976562 168.701171875 487.79296875 163.737304688 480.95703125 163.0859375 c 0
 317.545898438 143.229492188 193.359375 91.4716796875 108.3984375 7.8125 c 0
 54.6875 -45.2470703125 26.6923828125 -104.329101562 24.4140625 -169.43359375 c 0
 20.8330078125 -278.80859375 65.4296875 -350.911132812 158.203125 -385.7421875 c 1
 237.956054688 -415.364257812 351.07421875 -426.432617188 497.55859375 -418.9453125 c 0
 548.665039062 -416.340820312 595.377929688 -412.272460938 637.6953125 -406.73828125 c 0
 644.856445312 -405.76171875 648.518554688 -408.610351562 648.681640625 -415.283203125 c 128
 648.844726562 -421.956054688 646.647460938 -426.26953125 642.08984375 -428.22265625 c 0
 563.96484375 -461.750976562 503.092773438 -483.479492188 459.47265625 -493.408203125 c 128
 415.852539062 -503.336914062 376.139648438 -507.975585938 340.33203125 -507.32421875 c 0
 206.54296875 -503.743164062 113.200195312 -476.887695312 60.302734375 -426.7578125 c 152
 7.4052734375 -376.627929688 -17.578125 -308.268554688 -14.6484375 -221.6796875 c 0
 -11.0673828125 -118.815429688 29.4599609375 -21.484375 106.93359375 70.3125 c 1
 132.32421875 99.609375 163.737304688 125.813476562 201.171875 148.92578125 c 1
 -40.0390625 150.87890625 l 1
 -50.78125 152.83203125 -52.0830078125 160.15625 -43.9453125 172.8515625 c 0
 -20.8330078125 208.0078125 -6.0224609375 229.00390625 0.48828125 235.83984375 c 1
 1.7900390625 236.81640625 32.5517578125 236.002929688 92.7734375 233.3984375 c 0
EndSplineSet
Fore
SplineSet
667 588 m 0
 685 588 710 576 740 552 c 128
 770 528 785 508 786 490 c 128
 787 472 771 441 740 399 c 128
 709 357 685 333 667 326 c 0
 562 286 449 275 327 296 c 1
 319 284 311 274 305 264 c 128
 299 254 294 251 289 254 c 0
 281 259 283 274 299 301 c 1
 259 318 230 341 214 369 c 1
 166 303 97 240 5 180 c 0
 -38 152 -46 170 -21 234 c 0
 -20 237 -18 238 -15 240 c 0
 55 275 109 311 148 345 c 128
 187 379 214 416 232 456 c 0
 234 462 239 465 246 465 c 128
 253 465 258 461 263 453 c 24
 283 417 315 394 361 383 c 1
 409 436 463 484 524 526 c 128
 585 568 632 588 667 588 c 0
582 491 m 24
 523 479 460 440 396 377 c 1
 538 369 640 386 703 428 c 1
 690 446 672 462 650 476 c 0
 627 491 605 496 582 491 c 24
EndSplineSet
EndChar

StartChar: aLam.init.LamBaaMemInit
Encoding: 1114191 -1 80
Width: 190
AnchorPoint: "Stroke" 101 525 basechar 0
AnchorPoint: "TwoDotsBelow" 98 171 basechar 0
AnchorPoint: "TwoDotsAbove" 15 798 basechar 0
AnchorPoint: "DotAbove" 73 798 basechar 0
AnchorPoint: "TashkilBelow" 176 -327 basechar 0
AnchorPoint: "TashkilAbove" 73 801 basechar 0
AnchorPoint: "VAbove" 73 750 basechar 0
LayerCount: 2
Back
SplineSet
-195.3125 123.53515625 m 0
 -189.127929688 127.116210938 -182.6171875 132.080078125 -175.78125 138.427734375 c 128
 -168.9453125 144.775390625 -163.737304688 149.4140625 -160.15625 152.34375 c 128
 -156.575195312 155.2734375 -150.87890625 156.73828125 -143.06640625 156.73828125 c 128
 -135.25390625 156.73828125 -125.48828125 153.971679688 -113.76953125 148.4375 c 0
 -104.00390625 143.879882812 -88.7861328125 138.916015625 -68.115234375 133.544921875 c 128
 -47.4443359375 128.173828125 -29.9482421875 121.418945312 -15.625 113.28125 c 0
 -11.3935546875 111.002929688 -7.9755859375 107.421875 -5.37109375 102.5390625 c 128
 -2.7666015625 97.65625 -2.1162109375 92.9365234375 -3.41796875 88.37890625 c 1
 -2.44140625 67.2197265625 -5.37109375 39.7138671875 -12.20703125 5.859375 c 1
 -14.8115234375 -3.2548828125 -20.01953125 -6.0224609375 -27.83203125 -2.44140625 c 0
 -38.2490234375 2.44140625 -50.78125 8.7080078125 -65.4296875 16.357421875 c 128
 -80.078125 24.0068359375 -90.9013671875 29.541015625 -97.900390625 32.958984375 c 128
 -104.899414062 36.376953125 -113.28125 39.6318359375 -123.046875 42.724609375 c 128
 -132.8125 45.8173828125 -142.415039062 47.6884765625 -151.85546875 48.33984375 c 0
 -169.758789062 49.31640625 -196.208007812 41.50390625 -231.201171875 24.90234375 c 128
 -266.194335938 8.30078125 -294.108398438 0 -314.94140625 0 c 0
 -322.75390625 0 -329.1015625 7.32421875 -333.984375 21.97265625 c 128
 -338.8671875 36.62109375 -340.006835938 51.5947265625 -337.40234375 66.89453125 c 0
 -334.47265625 81.8681640625 -326.985351562 89.84375 -314.94140625 90.8203125 c 0
 -267.08984375 93.75 -227.213867188 104.655273438 -195.3125 123.53515625 c 0
7.8125 324.70703125 m 0
 12.6953125 323.079101562 15.380859375 315.022460938 15.869140625 300.537109375 c 128
 16.357421875 286.051757812 14.404296875 272.135742188 10.009765625 258.7890625 c 128
 5.615234375 245.442382812 -0.3251953125 239.420898438 -7.8125 240.72265625 c 0
 -16.2763671875 242.350585938 -24.169921875 247.314453125 -31.494140625 255.615234375 c 128
 -38.818359375 263.916015625 -44.7587890625 272.705078125 -49.31640625 281.982421875 c 128
 -53.8740234375 291.259765625 -59.5703125 299.8046875 -66.40625 307.6171875 c 128
 -73.2421875 315.4296875 -80.56640625 319.82421875 -88.37890625 320.80078125 c 0
 -105.631835938 322.428710938 -123.454101562 318.196289062 -141.845703125 308.10546875 c 128
 -160.237304688 298.014648438 -173.502929688 287.59765625 -181.640625 276.85546875 c 0
 -184.245117188 273.92578125 -185.546875 269.856445312 -185.546875 264.6484375 c 0
 -185.546875 249.348632812 -178.303710938 228.759765625 -163.818359375 202.880859375 c 128
 -149.333007812 177.001953125 -132.649414062 158.854492188 -113.76953125 148.4375 c 0
 -88.7041015625 134.765625 -84.3095703125 122.233398438 -100.5859375 110.83984375 c 0
 -116.536132812 99.4462890625 -137.043945312 96.3544921875 -162.109375 101.5625 c 0
 -178.059570312 105.143554688 -189.127929688 112.467773438 -195.3125 123.53515625 c 0
 -222.331054688 172.688476562 -227.5390625 224.12109375 -210.9375 277.83203125 c 1
 -199.870117188 309.733398438 -180.256835938 337.565429688 -152.099609375 361.328125 c 128
 -123.942382812 385.090820312 -95.21484375 397.624023438 -65.91796875 398.92578125 c 0
 -53.8740234375 399.577148438 -44.1083984375 394.612304688 -36.62109375 384.033203125 c 128
 -29.1337890625 373.454101562 -22.0537109375 361.653320312 -15.380859375 348.6328125 c 128
 -8.7080078125 335.612304688 -0.9765625 327.63671875 7.8125 324.70703125 c 0
EndSplineSet
Fore
SplineSet
73 729 m 128
 75 729 78 725 81 718 c 0
 90 695 106 673 129 651 c 0
 136 644 137 635 131 627 c 0
 117 607 110 596 111 593 c 0
 130 500 138 432 135 389 c 0
 133 346 119 306 94 271 c 0
 74 243 41 233 -8 241 c 0
 -18 243 -24 251 -26 267 c 128
 -28 283 -27 297 -21 308 c 0
 -16 319 -5 324 10 324 c 0
 59 323 89 339 99 372 c 1
 96 393 94 410 92 422 c 2
 62 599 l 0
 59 613 55 625 51 635 c 2
 43 655 l 0
 40 664 40 672 42 677 c 0
 51 700 59 715 65 723 c 0
 68 727 71 729 73 729 c 128
EndSplineSet
EndChar

StartChar: aBaa.medi.LamBaaMemInit
Encoding: 1114192 -1 81
Width: 140
AnchorPoint: "DigitBelow" 130 -171 basechar 0
AnchorPoint: "DigitAbove" 8 601 basechar 0
AnchorPoint: "VAbove" 8 601 basechar 0
AnchorPoint: "RingBelow" 51 357 basechar 0
AnchorPoint: "TaaAbove" -41 503 basechar 0
AnchorPoint: "TashkilBelow" 142 -327 basechar 0
AnchorPoint: "TashkilAbove" 24 801 basechar 0
AnchorPoint: "DotBelow" 130 -171 basechar 0
AnchorPoint: "HamzaBelow" 130 -98 basechar 0
AnchorPoint: "TwoDotsBelow" 77 -146 basechar 0
AnchorPoint: "TwoDotsAbove" -46 601 basechar 0
AnchorPoint: "DotAbove" 8 601 basechar 0
AnchorPoint: "HamzaAbove" 8 601 basechar 0
LayerCount: 2
Back
SplineSet
-44.43359375 267.08984375 m 0
 -45.0849609375 248.209960938 -36.7841796875 224.609375 -19.53125 196.2890625 c 0
 -6.1845703125 174.8046875 9.27734375 158.854492188 26.85546875 148.4375 c 0
 33.0400390625 144.53125 48.828125 139.323242188 74.21875 132.8125 c 0
 93.75 127.604492188 109.293945312 121.826171875 120.849609375 115.478515625 c 128
 132.405273438 109.130859375 138.020507812 100.09765625 137.6953125 88.37890625 c 0
 136.393554688 52.8974609375 133.463867188 25.390625 128.90625 5.859375 c 0
 126.627929688 -4.2314453125 121.256835938 -6.9990234375 112.79296875 -2.44140625 c 0
 51.26953125 31.0869140625 10.6611328125 48.095703125 -9.033203125 48.583984375 c 128
 -28.7275390625 49.072265625 -55.9892578125 41.0966796875 -90.8203125 24.658203125 c 128
 -125.651367188 8.2197265625 -153.483398438 0 -174.31640625 0 c 0
 -182.12890625 0 -188.4765625 7.4052734375 -193.359375 22.216796875 c 128
 -198.2421875 37.0283203125 -199.21875 51.8388671875 -196.2890625 66.650390625 c 128
 -193.359375 81.4619140625 -186.03515625 89.35546875 -174.31640625 90.33203125 c 0
 -118.977539062 95.5400390625 -78.9384765625 106.608398438 -54.19921875 123.53515625 c 1
 -81.2177734375 172.688476562 -86.42578125 224.12109375 -69.82421875 277.83203125 c 0
 -52.24609375 318.522460938 -43.7822265625 314.94140625 -44.43359375 267.08984375 c 0
210.9375 693.84765625 m 0
 212.890625 697.428710938 215.33203125 699.381835938 218.26171875 699.70703125 c 128
 221.19140625 700.032226562 223.469726562 698.405273438 225.09765625 694.82421875 c 0
 229.329101562 683.430664062 236.897460938 670.166015625 247.802734375 655.029296875 c 128
 258.708007812 639.892578125 268.879882812 627.9296875 278.3203125 619.140625 c 0
 284.1796875 613.606445312 284.016601562 606.608398438 277.83203125 598.14453125 c 0
 263.508789062 577.961914062 256.510742188 566.569335938 256.8359375 563.96484375 c 0
 272.786132812 473.469726562 278.971679688 413.57421875 275.390625 384.27734375 c 0
 272.4609375 361.165039062 267.985351562 340.657226562 261.962890625 322.75390625 c 128
 255.940429688 304.850585938 247.639648438 288.57421875 237.060546875 273.92578125 c 128
 226.481445312 259.27734375 212.40234375 249.0234375 194.82421875 243.1640625 c 128
 177.24609375 237.3046875 156.73828125 236.491210938 133.30078125 240.72265625 c 0
 123.53515625 242.350585938 117.512695312 251.057617188 115.234375 266.845703125 c 128
 112.956054688 282.633789062 115.071289062 297.200195312 121.58203125 310.546875 c 128
 128.092773438 323.893554688 137.043945312 328.61328125 148.4375 324.70703125 c 0
 163.0859375 319.82421875 181.477539062 322.428710938 203.61328125 332.51953125 c 128
 225.749023438 342.610351562 237.956054688 355.793945312 240.234375 372.0703125 c 1
 238.606445312 386.067382812 236.247070312 402.668945312 233.154296875 421.875 c 128
 230.061523438 441.081054688 225.911132812 465.413085938 220.703125 494.873046875 c 128
 215.495117188 524.333007812 211.262695312 549.153320312 208.0078125 569.3359375 c 0
 206.706054688 575.846679688 204.833984375 582.844726562 202.392578125 590.33203125 c 128
 199.951171875 597.819335938 197.346679688 605.143554688 194.580078125 612.3046875 c 128
 191.813476562 619.465820312 190.104492188 623.860351562 189.453125 625.48828125 c 0
 186.5234375 634.602539062 186.5234375 642.903320312 189.453125 650.390625 c 0
 190.754882812 653.645507812 197.916992188 668.131835938 210.9375 693.84765625 c 0
EndSplineSet
Fore
SplineSet
-45 268 m 0
 -48 256 -53 250 -59 250 c 24
 -72 251 -76 260 -70 278 c 0
 -60 309 -40 337 -11 361 c 0
 17 385 45 398 75 399 c 0
 88 399 98 394 104 384 c 0
 126 346 141 327 148 325 c 0
 153 324 156 316 157 301 c 128
 158 286 156 272 151 259 c 0
 146 246 140 240 132 241 c 0
 117 243 103 257 91 282 c 0
 79 307 65 320 50 321 c 0
 18 323 -13 308 -41 277 c 0
 -42 275 -43 273 -45 268 c 0
EndSplineSet
EndChar

StartChar: aMem.medi.LamBaaMemInit
Encoding: 1114193 -1 82
Width: 173
AnchorPoint: "TashkilBelow" 98 -327 basechar 0
AnchorPoint: "TashkilAbove" 0 801 basechar 0
LayerCount: 2
Back
SplineSet
322.75390625 324.70703125 m 0
 327.63671875 323.079101562 330.403320312 315.022460938 331.0546875 300.537109375 c 128
 331.706054688 286.051757812 329.752929688 272.135742188 325.1953125 258.7890625 c 128
 320.637695312 245.442382812 314.778320312 239.420898438 307.6171875 240.72265625 c 0
 299.153320312 242.350585938 291.178710938 247.314453125 283.69140625 255.615234375 c 128
 276.204101562 263.916015625 270.182617188 272.705078125 265.625 281.982421875 c 128
 261.067382812 291.259765625 255.37109375 299.8046875 248.53515625 307.6171875 c 128
 241.69921875 315.4296875 234.538085938 319.82421875 227.05078125 320.80078125 c 0
 209.797851562 322.428710938 191.89453125 318.196289062 173.33984375 308.10546875 c 128
 154.78515625 298.014648438 141.6015625 287.59765625 133.7890625 276.85546875 c 0
 131.184570312 273.92578125 129.8828125 269.856445312 129.8828125 264.6484375 c 0
 129.8828125 249.348632812 137.043945312 228.759765625 151.3671875 202.880859375 c 128
 165.690429688 177.001953125 182.291992188 158.854492188 201.171875 148.4375 c 0
 226.237304688 134.765625 230.631835938 122.233398438 214.35546875 110.83984375 c 0
 198.405273438 99.4462890625 178.059570312 96.3544921875 153.3203125 101.5625 c 0
 137.370117188 105.143554688 126.301757812 112.467773438 120.1171875 123.53515625 c 0
 93.0986328125 172.688476562 87.890625 224.12109375 104.4921875 277.83203125 c 1
 115.559570312 309.733398438 135.090820312 337.565429688 163.0859375 361.328125 c 128
 191.081054688 385.090820312 219.7265625 397.624023438 249.0234375 398.92578125 c 0
 261.067382812 399.577148438 270.833007812 394.612304688 278.3203125 384.033203125 c 128
 285.807617188 373.454101562 292.887695312 361.653320312 299.560546875 348.6328125 c 128
 306.233398438 335.612304688 313.96484375 327.63671875 322.75390625 324.70703125 c 0
385.25390625 693.84765625 m 0
 387.20703125 697.428710938 389.6484375 699.381835938 392.578125 699.70703125 c 128
 395.5078125 700.032226562 397.786132812 698.405273438 399.4140625 694.82421875 c 0
 403.645507812 683.430664062 411.213867188 670.166015625 422.119140625 655.029296875 c 128
 433.024414062 639.892578125 443.034179688 627.9296875 452.1484375 619.140625 c 0
 458.0078125 613.606445312 457.844726562 606.608398438 451.66015625 598.14453125 c 0
 437.336914062 577.961914062 430.500976562 566.569335938 431.15234375 563.96484375 c 0
 447.102539062 473.469726562 453.288085938 413.57421875 449.70703125 384.27734375 c 0
 446.77734375 361.165039062 442.301757812 340.657226562 436.279296875 322.75390625 c 128
 430.256835938 304.850585938 421.956054688 288.57421875 411.376953125 273.92578125 c 128
 400.797851562 259.27734375 386.71875 249.0234375 369.140625 243.1640625 c 128
 351.5625 237.3046875 331.0546875 236.491210938 307.6171875 240.72265625 c 0
 297.8515625 242.350585938 291.829101562 251.057617188 289.55078125 266.845703125 c 128
 287.272460938 282.633789062 289.387695312 297.200195312 295.8984375 310.546875 c 128
 302.409179688 323.893554688 311.360351562 328.61328125 322.75390625 324.70703125 c 0
 337.40234375 319.82421875 355.793945312 322.428710938 377.9296875 332.51953125 c 128
 400.065429688 342.610351562 412.272460938 355.793945312 414.55078125 372.0703125 c 1
 412.922851562 386.067382812 410.563476562 402.668945312 407.470703125 421.875 c 128
 404.377929688 441.081054688 400.227539062 465.413085938 395.01953125 494.873046875 c 128
 389.811523438 524.333007812 385.579101562 549.153320312 382.32421875 569.3359375 c 0
 381.022460938 575.846679688 379.150390625 582.844726562 376.708984375 590.33203125 c 128
 374.267578125 597.819335938 371.663085938 605.143554688 368.896484375 612.3046875 c 128
 366.129882812 619.465820312 364.420898438 623.860351562 363.76953125 625.48828125 c 0
 360.83984375 634.602539062 360.83984375 642.903320312 363.76953125 650.390625 c 0
 365.071289062 653.645507812 372.233398438 668.131835938 385.25390625 693.84765625 c 0
EndSplineSet
Fore
SplineSet
130 267 m 0
 129 248 138 224 155 196 c 0
 168 175 183 158 201 148 c 0
 207 144 224 140 249 133 c 0
 269 128 283 121 295 115 c 128
 307 109 312 100 312 88 c 0
 311 53 308 26 303 6 c 0
 301 -4 295 -7 287 -2 c 0
 225 32 185 49 165 49 c 128
 145 49 118 41 83 25 c 128
 48 9 21 0 0 0 c 0
 -8 0 -14 7 -19 22 c 128
 -24 37 -25 52 -22 67 c 128
 -19 82 -12 89 0 90 c 0
 55 95 95 107 120 124 c 1
 93 173 87 224 104 278 c 0
 122 319 131 315 130 267 c 0
EndSplineSet
EndChar

StartChar: aBaa.init.BaaDal
Encoding: 1114194 -1 83
Width: 170
AnchorPoint: "DigitBelow" 39 -171 basechar 0
AnchorPoint: "DigitAbove" 76 501 basechar 0
AnchorPoint: "TwoDotsBelowAlt" -15 -366 basechar 0
AnchorPoint: "DotBelowAlt" 39 -366 basechar 0
AnchorPoint: "VAbove" 54 500 basechar 0
AnchorPoint: "RingBelow" 49 49 basechar 0
AnchorPoint: "TaaAbove" 76 403 basechar 0
AnchorPoint: "TashkilBelow" 39 -327 basechar 0
AnchorPoint: "TashkilAbove" 76 801 basechar 0
AnchorPoint: "TwoDotsBelow" -40 -146 basechar 0
AnchorPoint: "TwoDotsAbove" 21 501 basechar 0
AnchorPoint: "DotBelow" 39 -171 basechar 0
AnchorPoint: "DotAbove" 76 501 basechar 0
AnchorPoint: "HamzaBelow" 39 -171 basechar 0
AnchorPoint: "HamzaAbove" 54 500 basechar 0
LayerCount: 2
Back
SplineSet
-7.32421875 113.28125 m 0
 8.6259765625 104.166992188 24.7392578125 86.7509765625 41.015625 61.03515625 c 0
 63.4765625 25.87890625 62.01171875 6.9990234375 36.62109375 4.39453125 c 0
 24.90234375 3.0927734375 13.916015625 3.662109375 3.662109375 6.103515625 c 128
 -6.591796875 8.544921875 -15.4619140625 11.7998046875 -22.94921875 15.869140625 c 128
 -30.4365234375 19.9384765625 -37.7607421875 26.123046875 -44.921875 34.423828125 c 128
 -52.0830078125 42.724609375 -57.9423828125 50.3740234375 -62.5 57.373046875 c 128
 -67.0576171875 64.3720703125 -72.021484375 73.73046875 -77.392578125 85.44921875 c 128
 -82.763671875 97.16796875 -86.7509765625 106.770507812 -89.35546875 114.2578125 c 128
 -91.9599609375 121.745117188 -95.5400390625 131.916992188 -100.09765625 144.775390625 c 128
 -104.655273438 157.633789062 -108.073242188 166.829101562 -110.3515625 172.36328125 c 0
 -111.002929688 173.991210938 -112.3046875 174.8046875 -114.2578125 174.8046875 c 128
 -116.2109375 174.8046875 -117.350585938 173.828125 -117.67578125 171.875 c 0
 -120.930664062 155.924804688 -126.057617188 137.6953125 -133.056640625 117.1875 c 128
 -140.055664062 96.6796875 -147.297851562 82.03125 -154.78515625 73.2421875 c 1
 -180.827148438 47.2001953125 -219.7265625 26.6923828125 -271.484375 11.71875 c 0
 -323.567382812 -2.9296875 -363.444335938 -4.5576171875 -391.11328125 6.8359375 c 0
 -405.76171875 13.0205078125 -414.713867188 27.5068359375 -417.96875 50.29296875 c 0
 -420.8984375 73.0791015625 -416.666992188 104.4921875 -405.2734375 144.53125 c 0
 -404.622070312 146.809570312 -402.34375 148.274414062 -398.4375 148.92578125 c 0
 -394.856445312 149.577148438 -392.08984375 147.786132812 -390.13671875 143.5546875 c 0
 -384.27734375 127.278320312 -376.790039062 116.374023438 -367.67578125 110.83984375 c 0
 -345.866210938 97.4931640625 -305.6640625 98.7958984375 -247.0703125 114.74609375 c 0
 -211.9140625 124.186523438 -186.360351562 134.114257812 -170.41015625 144.53125 c 128
 -154.459960938 154.948242188 -142.252929688 167.155273438 -133.7890625 181.15234375 c 1
 -130.859375 189.94140625 -129.313476562 198.2421875 -129.150390625 206.0546875 c 128
 -128.987304688 213.8671875 -130.778320312 226.155273438 -134.521484375 242.919921875 c 128
 -138.264648438 259.684570312 -142.170898438 274.983398438 -146.240234375 288.818359375 c 128
 -150.309570312 302.653320312 -155.110351562 319.905273438 -160.64453125 340.576171875 c 128
 -166.178710938 361.247070312 -170.573242188 379.231445312 -173.828125 394.53125 c 0
 -176.432617188 407.551757812 -176.432617188 420.084960938 -173.828125 432.12890625 c 0
 -169.921875 450.358398438 -163.0859375 470.540039062 -153.3203125 492.67578125 c 0
 -152.34375 495.280273438 -150.634765625 496.907226562 -148.193359375 497.55859375 c 128
 -145.751953125 498.209960938 -143.06640625 497.151367188 -140.13671875 494.384765625 c 128
 -137.20703125 491.618164062 -135.090820312 486.979492188 -133.7890625 480.46875 c 0
 -114.583007812 394.53125 -93.4248046875 314.616210938 -70.3125 240.72265625 c 128
 -47.2001953125 166.829101562 -26.2041015625 124.348632812 -7.32421875 113.28125 c 0
EndSplineSet
Fore
SplineSet
69 151 m 0
 61 165 53 176 47 182 c 128
 41 188 39 196 42 206 c 2
 63 282 l 2
 66 293 72 293 80 280 c 24
 92 261 101 232 106 195 c 0
 111 160 111 127 107 97 c 128
 103 67 96 45 86 30 c 128
 76 15 58 7 33 4 c 128
 8 1 -14 7 -33 23 c 128
 -52 39 -56 60 -46 86 c 0
 -37 109 -24 119 -7 113 c 0
 32 100 61 103 81 122 c 0
 84 125 79 134 69 151 c 0
EndSplineSet
EndChar

StartChar: aDal.fina.BaaDal
Encoding: 1114195 -1 84
Width: 481
AnchorPoint: "VAbove" 305 586 basechar 0
AnchorPoint: "TashkilBelow" 244 -327 basechar 0
AnchorPoint: "TashkilAbove" 211 801 basechar 0
AnchorPoint: "TwoDotsBelow" 211 -132 basechar 0
AnchorPoint: "TwoDotsAbove" 255 623 basechar 0
AnchorPoint: "DotAbove" 309 623 basechar 0
AnchorPoint: "RingBelow" 208 59 basechar 0
AnchorPoint: "TaaAbove" 305 586 basechar 0
AnchorPoint: "HamzaBelow" 265 -132 basechar 0
AnchorPoint: "HamzaAbove" 309 623 basechar 0
AnchorPoint: "DotBelow" 265 -132 basechar 0
LayerCount: 2
Back
SplineSet
522.4609375 196.77734375 m 0
 525.065429688 212.727539062 532.2265625 241.047851562 543.9453125 281.73828125 c 1
 548.828125 291.178710938 554.524414062 290.52734375 561.03515625 279.78515625 c 0
 573.73046875 258.625976562 582.438476562 230.305664062 587.158203125 194.82421875 c 128
 591.877929688 159.342773438 592.122070312 126.139648438 587.890625 95.21484375 c 0
 583.984375 66.2431640625 577.067382812 44.43359375 567.138671875 29.78515625 c 128
 557.209960938 15.13671875 540.852539062 6.6728515625 518.06640625 4.39453125 c 0
 490.071289062 1.1396484375 465.657226562 8.30078125 444.82421875 25.87890625 c 0
 428.22265625 40.2021484375 424.967773438 60.546875 435.05859375 86.9140625 c 0
 442.545898438 107.096679688 452.63671875 116.69921875 465.33203125 115.72265625 c 0
 468.26171875 115.397460938 471.028320312 114.583007812 473.6328125 113.28125 c 0
 484.049804688 108.073242188 497.233398438 105.712890625 513.18359375 106.201171875 c 128
 529.133789062 106.689453125 542.643554688 109.049804688 553.7109375 113.28125 c 0
 557.942382812 114.909179688 560.546875 117.67578125 561.5234375 121.58203125 c 0
 562.825195312 127.116210938 559.245117188 137.043945312 550.78125 151.3671875 c 128
 542.317382812 165.690429688 534.016601562 177.083007812 525.87890625 185.546875 c 0
 522.624023438 189.127929688 521.484375 192.87109375 522.4609375 196.77734375 c 0
EndSplineSet
Fore
SplineSet
348 474 m 0
 363 405 382 331 408 250 c 128
 434 169 456 123 473 114 c 128
 490 105 506 87 522 61 c 0
 543 27 543 8 518 4 c 0
 455 -7 406 49 371 172 c 0
 370 174 369 175 367 175 c 128
 365 175 364 174 363 172 c 0
 360 156 355 137 348 116 c 128
 341 95 333 80 326 73 c 24
 301 47 263 27 210 12 c 128
 157 -3 117 -5 90 7 c 0
 58 20 53 67 76 145 c 0
 77 147 79 149 83 149 c 128
 87 149 89 148 91 144 c 1
 97 128 104 117 113 111 c 0
 134 98 174 99 233 115 c 0
 296 132 335 154 348 181 c 24
 355 197 346 251 320 341 c 24
 307 388 303 418 308 432 c 2
 327 486 l 2
 334 507 341 503 348 474 c 0
EndSplineSet
EndChar

StartChar: aBaa.init.BaaMemHaaInit
Encoding: 1114196 -1 85
Width: 310
AnchorPoint: "DigitBelow" 162 -200 basechar 0
AnchorPoint: "DigitAbove" 44 843 basechar 0
AnchorPoint: "DotBelowAlt" 162 -366 basechar 0
AnchorPoint: "TwoDotsBelowAlt" 107 -366 basechar 0
AnchorPoint: "VAbove" 44 843 basechar 0
AnchorPoint: "RingBelow" 107 586 basechar 0
AnchorPoint: "TaaAbove" 44 745 basechar 0
AnchorPoint: "TashkilBelow" 195 -327 basechar 0
AnchorPoint: "TashkilAbove" 123 801 basechar 0
AnchorPoint: "TwoDotsBelow" 107 -127 basechar 0
AnchorPoint: "TwoDotsAbove" -10 843 basechar 0
AnchorPoint: "DotAbove" 44 843 basechar 0
AnchorPoint: "HamzaAbove" 44 843 basechar 0
AnchorPoint: "HamzaBelow" 162 -200 basechar 0
AnchorPoint: "DotBelow" 162 -200 basechar 0
LayerCount: 2
Fore
SplineSet
73 659 m 0
 108 664 138 653 164 624 c 0
 168 619 162 592 145 544 c 0
 141 532 134 529 126 536 c 0
 99 560 74 571 50 569 c 128
 26 567 0 554 -26 528 c 0
 -30 524 -31 519 -29 512 c 0
 -10 446 20 406 64 392 c 0
 75 388 75 382 62 372 c 1
 40 355 17 346 -8 346 c 128
 -33 346 -48 356 -55 375 c 0
 -65 403 -70 433 -70 462 c 0
 -70 526 -45 580 5 623 c 0
 30 644 52 656 73 659 c 0
EndSplineSet
EndChar

StartChar: aMem.medi.BaaMemHaaInit
Encoding: 1114197 -1 86
Width: 259
AnchorPoint: "TashkilBelow" 269 -327 basechar 0
AnchorPoint: "TashkilAbove" 161 801 basechar 0
LayerCount: 2
Fore
SplineSet
-21 267 m 0
 69 321 142 356 200 374 c 128
 258 392 299 398 324 392 c 0
 363 383 392 370 410 352 c 0
 414 348 415 344 413 339 c 2
 388 270 l 2
 386 265 382 264 376 267 c 0
 315 299 269 314 236 313 c 0
 176 311 113 290 46 249 c 0
 20 233 -2 232 -20 245 c 0
 -30 252 -31 259 -24 265 c 0
 -23 266 -22 267 -21 267 c 0
EndSplineSet
EndChar

StartChar: aBaa.init.BaaBaaYaa
Encoding: 1114199 -1 88
Width: 203
AnchorPoint: "TwoDotsBelowAlt" 6 -366 basechar 0
AnchorPoint: "DotBelowAlt" 72 -366 basechar 0
AnchorPoint: "DigitBelow" 72 -139 basechar 0
AnchorPoint: "DigitAbove" 63 618 basechar 0
AnchorPoint: "VAbove" 63 618 basechar 0
AnchorPoint: "RingBelow" 60 190 basechar 0
AnchorPoint: "TaaAbove" 63 498 basechar 0
AnchorPoint: "TashkilBelow" 72 -371 basechar 0
AnchorPoint: "TashkilAbove" 63 801 basechar 0
AnchorPoint: "TwoDotsBelow" 6 -139 basechar 0
AnchorPoint: "TwoDotsAbove" -6 618 basechar 0
AnchorPoint: "DotBelow" 72 -139 basechar 0
AnchorPoint: "HamzaBelow" 72 -139 basechar 0
AnchorPoint: "HamzaAbove" 63 618 basechar 0
AnchorPoint: "DotAbove" 63 618 basechar 0
LayerCount: 2
Fore
SplineSet
80 305 m 0
 82 312 84 316 89 318 c 128
 94 320 98 319 102 315 c 128
 106 311 107 306 106 299 c 0
 86 195 49 141 -3 136 c 1
 -21 135 -28 149 -27 179 c 152
 -26 209 -15 226 5 227 c 0
 39 229 64 255 80 305 c 0
EndSplineSet
EndChar

StartChar: aBaa.medi.BaaBaaYaa
Encoding: 1114200 -1 89
Width: 357
AnchorPoint: "DigitBelow" 213 -302 basechar 0
AnchorPoint: "DigitAbove" 65 573 basechar 0
AnchorPoint: "VAbove" 65 573 basechar 0
AnchorPoint: "RingBelow" 180 295 basechar 0
AnchorPoint: "TaaAbove" 65 453 basechar 0
AnchorPoint: "TashkilBelow" 251 -371 basechar 0
AnchorPoint: "TashkilAbove" 96 801 basechar 0
AnchorPoint: "DotBelow" 213 -302 basechar 0
AnchorPoint: "HamzaBelow" 213 -302 basechar 0
AnchorPoint: "TwoDotsBelow" 213 -302 basechar 0
AnchorPoint: "TwoDotsAbove" -1 573 basechar 0
AnchorPoint: "DotAbove" 65 573 basechar 0
AnchorPoint: "HamzaAbove" 65 573 basechar 0
LayerCount: 2
Fore
SplineSet
364 227 m 0
 380 228 387 213 386 183 c 128
 385 153 375 137 355 136 c 0
 321 135 289 153 258 189 c 128
 227 225 203 244 185 244 c 0
 139 244 93 218 46 166 c 0
 29 147 22 131 26 117 c 1
 33 88 31 61 18 37 c 0
 11 22 2 18 -8 25 c 0
 -25 36 -31 55 -27 81 c 128
 -23 107 -13 132 2 156 c 0
 42 220 89 272 143 310 c 0
 167 326 194 333 222 330 c 0
 232 329 251 311 279 276 c 128
 307 241 335 225 364 227 c 0
EndSplineSet
EndChar

StartChar: aYaa.fina.BaaBaaYaa
Encoding: 1114201 -1 90
Width: 457
AnchorPoint: "DotBelow" 371 -435 basechar 0
AnchorPoint: "TwoDotsBelow" 316 -435 basechar 0
AnchorPoint: "TashkilBelow" 322 -371 basechar 0
AnchorPoint: "RingBelow" 312 -235 basechar 0
AnchorPoint: "DigitBelow" 371 -435 basechar 0
AnchorPoint: "HamzaBelow" 371 -435 basechar 0
AnchorPoint: "DigitAbove" 279 388 basechar 0
AnchorPoint: "AlefAbove" 293 98 basechar 0
AnchorPoint: "TwoDotsAbove" 213 388 basechar 0
AnchorPoint: "DotAbove" 279 388 basechar 0
AnchorPoint: "VAbove" 219 388 basechar 0
AnchorPoint: "Tail" 135 187 basechar 0
AnchorPoint: "TashkilAbove" 225 801 basechar 0
AnchorPoint: "HamzaAbove" 159 388 basechar 0
LayerCount: 2
Fore
SplineSet
449 25 m 0
 438 32 433 42 431 55 c 0
 428 79 436 101 454 121 c 0
 460 127 465 129 472 129 c 128
 479 129 482 125 484 118 c 0
 491 91 559 75 686 70 c 0
 722 69 745 54 755 27 c 0
 762 8 760 -18 747 -51 c 128
 734 -84 721 -107 705 -122 c 0
 600 -218 475 -272 330 -285 c 0
 228 -294 156 -272 114 -218 c 0
 80 -174 63 -117 63 -49 c 0
 64 36 85 116 125 193 c 0
 128 199 133 202 138 202 c 0
 143 202 146 200 148 195 c 0
 151 189 152 185 149 179 c 24
 110 90 96 18 108 -36 c 0
 130 -140 203 -190 325 -188 c 0
 446 -186 570 -133 697 -29 c 0
 700 -27 700 -25 696 -23 c 0
 682 -17 643 -11 578 -4 c 0
 512 3 468 12 449 25 c 0
EndSplineSet
EndChar

StartChar: aLam.medi.LamYaaFina
Encoding: 1114202 -1 91
Width: 195
AnchorPoint: "Stroke" 33 516 basechar 0
AnchorPoint: "TwoDotsBelow" 83 -366 basechar 0
AnchorPoint: "TwoDotsAbove" -36 793 basechar 0
AnchorPoint: "DotAbove" 22 793 basechar 0
AnchorPoint: "TashkilBelow" 132 -327 basechar 0
AnchorPoint: "TashkilAbove" 0 801 basechar 0
AnchorPoint: "VAbove" 22 744 basechar 0
LayerCount: 2
Back
SplineSet
-21.97265625 -67.3828125 m 0
 -19.04296875 -64.7783203125 -14.892578125 -60.9541015625 -9.521484375 -55.908203125 c 128
 -4.150390625 -50.8623046875 -0.3251953125 -47.0380859375 1.953125 -44.43359375 c 1
 14.6484375 -46.0615234375 25.2275390625 -47.6884765625 33.69140625 -49.31640625 c 0
 34.9931640625 -49.6416015625 40.283203125 -50.7001953125 49.560546875 -52.490234375 c 128
 58.837890625 -54.2802734375 65.9990234375 -55.6640625 71.044921875 -56.640625 c 128
 76.0908203125 -57.6171875 83.49609375 -59.2451171875 93.26171875 -61.5234375 c 128
 103.02734375 -63.8017578125 111.328125 -66.162109375 118.1640625 -68.603515625 c 128
 125 -71.044921875 132.568359375 -73.8935546875 140.869140625 -77.1484375 c 128
 149.169921875 -80.4033203125 156.494140625 -84.1474609375 162.841796875 -88.37890625 c 128
 169.189453125 -92.6103515625 174.641601562 -97.16796875 179.19921875 -102.05078125 c 0
 183.756835938 -106.608398438 186.198242188 -111.491210938 186.5234375 -116.69921875 c 0
 188.801757812 -142.08984375 185.383789062 -167.236328125 176.26953125 -192.138671875 c 128
 167.155273438 -217.041015625 153.483398438 -236.653320312 135.25390625 -250.9765625 c 0
 79.58984375 -295.247070312 17.9033203125 -327.63671875 -49.8046875 -348.14453125 c 0
 -117.512695312 -368.327148438 -183.918945312 -371.745117188 -249.0234375 -358.3984375 c 0
 -294.596679688 -348.6328125 -332.03125 -327.311523438 -361.328125 -294.43359375 c 0
 -390.625 -261.23046875 -405.436523438 -219.889648438 -405.76171875 -170.41015625 c 0
 -406.086914062 -98.7958984375 -374.51171875 -8.6259765625 -311.03515625 100.09765625 c 0
 -308.756835938 104.329101562 -305.17578125 106.4453125 -300.29296875 106.4453125 c 0
 -295.735351562 106.770507812 -292.48046875 105.305664062 -290.52734375 102.05078125 c 0
 -288.57421875 98.7958984375 -288.899414062 94.4013671875 -291.50390625 88.8671875 c 0
 -326.66015625 27.9951171875 -347.65625 -19.53125 -354.4921875 -53.7109375 c 0
 -362.629882812 -95.3779296875 -356.4453125 -135.7421875 -335.9375 -174.8046875 c 0
 -315.104492188 -213.541992188 -283.854492188 -239.420898438 -242.1875 -252.44140625 c 1
 -196.614257812 -265.461914062 -147.94921875 -267.822265625 -96.19140625 -259.521484375 c 128
 -44.43359375 -251.220703125 4.0693359375 -236.735351562 49.31640625 -216.064453125 c 128
 94.5634765625 -195.393554688 126.953125 -173.828125 146.484375 -151.3671875 c 1
 141.276367188 -148.112304688 135.905273438 -145.182617188 130.37109375 -142.578125 c 128
 124.836914062 -139.973632812 118.571289062 -137.451171875 111.572265625 -135.009765625 c 128
 104.573242188 -132.568359375 98.4697265625 -130.452148438 93.26171875 -128.662109375 c 128
 88.0537109375 -126.872070312 81.2177734375 -125.081054688 72.75390625 -123.291015625 c 128
 64.2900390625 -121.500976562 57.6982421875 -120.1171875 52.978515625 -119.140625 c 128
 48.2587890625 -118.1640625 41.0966796875 -116.943359375 31.494140625 -115.478515625 c 128
 21.8916015625 -114.013671875 15.380859375 -112.956054688 11.962890625 -112.3046875 c 128
 8.544921875 -111.653320312 1.5458984375 -110.595703125 -9.033203125 -109.130859375 c 128
 -19.6123046875 -107.666015625 -26.0419921875 -106.770507812 -28.3203125 -106.4453125 c 1
 -24.0888671875 -80.7294921875 -21.97265625 -67.7080078125 -21.97265625 -67.3828125 c 0
EndSplineSet
Fore
SplineSet
17 685 m 0
 19 690 22 691 28 692 c 128
 34 693 37 691 38 686 c 24
 65 478 85 345 98 288 c 0
 124 175 157 109 196 90 c 1
 221 77 229 56 220 25 c 0
 215 6 207 -2 196 0 c 0
 155 5 117 51 82 137 c 1
 78 63 62 1 34 -49 c 0
 27 -62 17 -74 4 -85 c 128
 -9 -96 -19 -103 -28 -106 c 1
 -24 -80 -22 -67 -22 -67 c 0
 5 -46 25 -19 38 14 c 128
 51 47 55 107 49 193 c 25
 49 202 41 260 26 366 c 2
 -2 558 l 1
 -4 571 -4 585 -3 600 c 128
 -2 615 5 643 17 685 c 0
EndSplineSet
EndChar

StartChar: aYaa.fina.LamYaaFina
Encoding: 1114203 -1 92
Width: 469
AnchorPoint: "HamzaBelow" 327 -512 basechar 0
AnchorPoint: "DigitBelow" 327 -512 basechar 0
AnchorPoint: "DigitAbove" 284 261 basechar 0
AnchorPoint: "AlefAbove" 293 0 basechar 0
AnchorPoint: "RingBelow" 308 -312 basechar 0
AnchorPoint: "TwoDotsAbove" 230 261 basechar 0
AnchorPoint: "DotAbove" 284 261 basechar 0
AnchorPoint: "VAbove" 235 261 basechar 0
AnchorPoint: "Tail" 166 93 basechar 0
AnchorPoint: "TashkilBelow" 317 -371 basechar 0
AnchorPoint: "TashkilAbove" 190 801 basechar 0
AnchorPoint: "TwoDotsBelow" 272 -512 basechar 0
AnchorPoint: "HamzaAbove" 187 261 basechar 0
AnchorPoint: "DotBelow" 327 -512 basechar 0
LayerCount: 2
Back
SplineSet
486.81640625 684.5703125 m 0
 486.81640625 684.5703125 l 1
 486.81640625 684.5703125 l 1
 488.444335938 689.453125 491.780273438 692.138671875 496.826171875 692.626953125 c 128
 501.872070312 693.115234375 505.208007812 690.754882812 506.8359375 685.546875 c 1
 534.1796875 475.5859375 554.19921875 343.098632812 566.89453125 288.0859375 c 0
 578.61328125 236.979492188 591.30859375 198.161132812 604.98046875 171.630859375 c 128
 618.65234375 145.100585938 638.834960938 121.09375 665.52734375 99.609375 c 0
 688.639648438 81.0546875 696.77734375 56.4775390625 689.94140625 25.87890625 c 0
 686.03515625 8.30078125 679.6875 -0.8134765625 670.8984375 -1.46484375 c 0
 668.9453125 -1.7900390625 667.155273438 -1.3017578125 665.52734375 0 c 0
 623.209960938 26.3671875 585.286132812 71.9404296875 551.7578125 136.71875 c 1
 550.456054688 104.817382812 545.247070312 71.533203125 536.1328125 36.865234375 c 128
 527.018554688 2.197265625 515.950195312 -26.5302734375 502.9296875 -49.31640625 c 0
 495.768554688 -62.01171875 485.920898438 -73.974609375 473.388671875 -85.205078125 c 128
 460.856445312 -96.435546875 450.1953125 -103.515625 441.40625 -106.4453125 c 1
 445.3125 -80.7294921875 447.265625 -67.7080078125 447.265625 -67.3828125 c 0
 448.2421875 -66.40625 452.961914062 -62.01171875 461.42578125 -54.19921875 c 128
 469.889648438 -46.38671875 476.887695312 -39.306640625 482.421875 -32.958984375 c 128
 487.956054688 -26.611328125 492.024414062 -20.1826171875 494.62890625 -13.671875 c 0
 498.209960938 -6.8359375 501.383789062 0.0810546875 504.150390625 7.080078125 c 128
 506.916992188 14.0791015625 509.196289062 21.8095703125 510.986328125 30.2734375 c 128
 512.776367188 38.7373046875 514.404296875 45.9794921875 515.869140625 52.001953125 c 128
 517.333984375 58.0244140625 518.310546875 66.162109375 518.798828125 76.416015625 c 128
 519.287109375 86.669921875 519.775390625 94.0751953125 520.263671875 98.6328125 c 128
 520.751953125 103.190429688 520.833007812 111.409179688 520.5078125 123.291015625 c 128
 520.182617188 135.172851562 520.01953125 142.659179688 520.01953125 145.751953125 c 128
 520.01953125 148.844726562 519.694335938 157.063476562 519.04296875 170.41015625 c 128
 518.391601562 183.756835938 518.06640625 191.243164062 518.06640625 192.87109375 c 0
 512.20703125 240.071289062 503.010742188 307.373046875 490.478515625 394.775390625 c 128
 477.946289062 482.177734375 470.377929688 536.458007812 467.7734375 557.6171875 c 0
 466.471679688 565.104492188 465.739257812 572.75390625 465.576171875 580.56640625 c 128
 465.413085938 588.37890625 465.657226562 595.377929688 466.30859375 601.5625 c 128
 466.959960938 607.747070312 468.180664062 614.909179688 469.970703125 623.046875 c 128
 471.760742188 631.184570312 473.388671875 637.858398438 474.853515625 643.06640625 c 128
 476.318359375 648.274414062 478.352539062 655.354492188 480.95703125 664.306640625 c 128
 483.561523438 673.258789062 485.514648438 680.012695312 486.81640625 684.5703125 c 0
EndSplineSet
Fore
SplineSet
447 -67 m 0
 460 -55 469 -48 472 -44 c 1
 555 -55 606 -68 626 -84 c 128
 646 -100 655 -111 656 -117 c 0
 658 -142 655 -167 646 -192 c 128
 637 -217 622 -237 604 -251 c 0
 548 -295 488 -328 420 -348 c 128
 352 -368 285 -371 220 -358 c 1
 174 -348 137 -327 108 -294 c 0
 35 -212 53 -81 159 100 c 0
 161 104 164 107 169 107 c 128
 174 107 177 105 179 102 c 128
 181 99 181 94 178 89 c 0
 143 28 121 -21 114 -59 c 128
 107 -97 114 -136 135 -176 c 128
 156 -216 187 -241 229 -253 c 24
 312 -275 410 -264 519 -216 c 0
 563 -196 595 -174 616 -151 c 1
 593 -137 534 -122 441 -106 c 1
 445 -80 447 -67 447 -67 c 0
EndSplineSet
EndChar

StartChar: aKaf.init.KafBaaInit
Encoding: 1114204 -1 93
Width: 349
AnchorPoint: "DotAbove" 29 864 basechar 0
AnchorPoint: "DotBelow" 103 -54 basechar 0
AnchorPoint: "TwoDotsBelow" 103 -54 basechar 0
AnchorPoint: "RingBelow" 68 595 basechar 0
AnchorPoint: "TwoDotsAbove" 29 864 basechar 0
AnchorPoint: "TashkilBelow" 146 -327 basechar 0
AnchorPoint: "TashkilAbove" 180 801 basechar 0
AnchorPoint: "Dash" 0 674 basechar 0
LayerCount: 2
Back
SplineSet
326.66015625 714.35546875 m 2
 305.6640625 645.99609375 l 2
 303.7109375 639.485351562 297.36328125 634.440429688 286.62109375 630.859375 c 1
 11.23046875 525.715820312 -173.665039062 444.499023438 -268.06640625 387.20703125 c 0
 -273.92578125 383.625976562 -273.762695312 381.184570312 -267.578125 379.8828125 c 0
 -166.015625 360.3515625 -62.1748046875 319.3359375 43.9453125 256.8359375 c 0
 49.4794921875 253.581054688 94.5634765625 225.260742188 179.19921875 171.875 c 128
 263.834960938 118.489257812 327.63671875 91.30859375 370.60546875 90.33203125 c 0
 390.461914062 90.0068359375 397.624023438 71.9404296875 392.08984375 36.1328125 c 0
 388.508789062 12.0439453125 381.34765625 0 370.60546875 0 c 0
 319.82421875 0 253.743164062 29.9482421875 172.36328125 89.84375 c 0
 147.624023438 108.073242188 106.120117188 135.905273438 47.8515625 173.33984375 c 0
 43.2939453125 176.26953125 42.48046875 175.129882812 45.41015625 169.921875 c 0
 77.63671875 109.375 80.7294921875 63.8017578125 54.6875 33.203125 c 0
 34.5048828125 9.765625 3.2548828125 4.5576171875 -39.0625 17.578125 c 0
 -50.78125 21.1591796875 -59.7333984375 33.69140625 -65.91796875 55.17578125 c 0
 -76.0087890625 88.7041015625 -67.3828125 101.725585938 -40.0390625 94.23828125 c 0
 -19.2060546875 88.7041015625 6.8359375 87.890625 38.0859375 91.796875 c 0
 40.6904296875 92.1220703125 41.50390625 93.75 40.52734375 96.6796875 c 0
 35.64453125 116.2109375 26.3671875 133.7890625 12.6953125 149.4140625 c 0
 -33.203125 203.125 -132.32421875 254.39453125 -284.66796875 303.22265625 c 0
 -292.805664062 305.827148438 -298.176757812 310.05859375 -300.78125 315.91796875 c 0
 -306.315429688 328.938476562 -309.08203125 348.551757812 -309.08203125 374.755859375 c 128
 -309.08203125 400.959960938 -303.7109375 420.8984375 -292.96875 434.5703125 c 0
 -269.53125 465.168945312 -192.301757812 512.532226562 -61.279296875 576.66015625 c 128
 69.7431640625 640.788085938 189.616210938 692.545898438 298.33984375 731.93359375 c 0
 323.73046875 741.047851562 333.170898438 735.188476562 326.66015625 714.35546875 c 2
-371.58203125 720.21484375 m 2
 -364.420898438 731.93359375 -359.375 726.887695312 -356.4453125 705.078125 c 0
 -344.075195312 601.887695312 -336.100585938 513.508789062 -332.51953125 439.94140625 c 24
 -325.68359375 300.944335938 -321.125976562 217.122070312 -318.84765625 188.4765625 c 0
 -313.96484375 126.627929688 -280.598632812 93.9130859375 -218.75 90.33203125 c 0
 -201.497070312 89.35546875 -194.82421875 77.1484375 -198.73046875 53.7109375 c 0
 -204.915039062 17.9033203125 -211.588867188 0 -218.75 0 c 0
 -306.315429688 0 -353.190429688 40.52734375 -359.375 121.58203125 c 0
 -364.583007812 189.94140625 -368.1640625 258.708007812 -370.1171875 327.880859375 c 152
 -372.0703125 397.053710938 -376.057617188 453.043945312 -382.080078125 495.849609375 c 128
 -388.102539062 538.655273438 -396.159179688 587.565429688 -406.25 642.578125 c 0
 -408.203125 653.3203125 -407.2265625 661.946289062 -403.3203125 668.45703125 c 2
 -371.58203125 720.21484375 l 2
1.953125 31.25 m 0
 -31.5751953125 39.7138671875 -66.7314453125 59.4072265625 -103.515625 90.33203125 c 0
 -108.073242188 93.9130859375 -111.653320312 94.0751953125 -114.2578125 90.8203125 c 0
 -114.909179688 89.84375 -117.838867188 85.6123046875 -123.046875 78.125 c 128
 -128.254882812 70.6376953125 -132.487304688 64.697265625 -135.7421875 60.302734375 c 128
 -138.997070312 55.908203125 -144.04296875 49.8857421875 -150.87890625 42.236328125 c 128
 -157.71484375 34.5869140625 -164.225585938 28.3203125 -170.41015625 23.4375 c 128
 -176.594726562 18.5546875 -184.08203125 13.8349609375 -192.87109375 9.27734375 c 128
 -201.66015625 4.7197265625 -210.44921875 1.6279296875 -219.23828125 0 c 0
 -226.07421875 -1.3017578125 -231.93359375 5.4521484375 -236.81640625 20.263671875 c 128
 -241.69921875 35.0751953125 -242.756835938 50.29296875 -239.990234375 65.91796875 c 128
 -237.223632812 81.54296875 -229.98046875 89.6806640625 -218.26171875 90.33203125 c 0
 -193.196289062 91.6337890625 -170.329101562 97.4931640625 -149.658203125 107.91015625 c 128
 -128.987304688 118.327148438 -113.118164062 130.696289062 -102.05078125 145.01953125 c 0
 -97.16796875 151.204101562 -91.6337890625 151.530273438 -85.44921875 145.99609375 c 0
 -62.3369140625 125.163085938 -34.0166015625 109.211914062 -0.48828125 98.14453125 c 0
 13.8349609375 93.26171875 23.1123046875 80.8916015625 27.34375 61.03515625 c 0
 31.25 41.8291015625 26.2041015625 31.5751953125 12.20703125 30.2734375 c 0
 9.27734375 29.9482421875 5.859375 30.2734375 1.953125 31.25 c 0
EndSplineSet
Fore
SplineSet
-263 391 m 0
 -272 385 -272 380 -264 378 c 0
 -122 338 -28 300 19 262 c 0
 67 223 90 176 91 121 c 0
 92 76 83 48 66 38 c 128
 49 28 27 25 2 31 c 0
 -14 35 -23 47 -27 67 c 0
 -32 95 -23 106 -0 98 c 0
 35 86 58 88 68 104 c 0
 69 106 69 107 69 108 c 0
 43 188 -68 251 -265 296 c 0
 -289 302 -303 315 -307 337 c 0
 -310 356 -310 376 -308 397 c 0
 -306 416 -295 433 -275 450 c 0
 -221 496 -141 542 -33 591 c 0
 105 653 203 695 261 717 c 0
 286 727 295 718 286 689 c 2
 268 632 l 2
 266 627 262 624 256 621 c 0
 -25 512 -198 435 -263 391 c 0
EndSplineSet
EndChar

StartChar: aBaa.medi.KafBaaInit
Encoding: 1114205 -1 94
Width: 219
AnchorPoint: "DigitBelow" 98 -171 basechar 0
AnchorPoint: "DigitAbove" 24 664 basechar 0
AnchorPoint: "VAbove" 39 635 basechar 0
AnchorPoint: "RingBelow" 107 88 basechar 0
AnchorPoint: "TaaAbove" 88 591 basechar 0
AnchorPoint: "TashkilBelow" 98 -327 basechar 0
AnchorPoint: "TashkilAbove" 24 801 basechar 0
AnchorPoint: "HamzaBelow" 146 -98 basechar 0
AnchorPoint: "DotBelow" 98 -171 basechar 0
AnchorPoint: "TwoDotsBelow" 40 -122 basechar 0
AnchorPoint: "HamzaAbove" 73 635 basechar 0
AnchorPoint: "TwoDotsAbove" 24 664 basechar 0
AnchorPoint: "DotAbove" 24 664 basechar 0
LayerCount: 2
Back
SplineSet
-43.45703125 400.87890625 m 0
 -45.41015625 399.577148438 -46.630859375 397.297851562 -47.119140625 394.04296875 c 128
 -47.607421875 390.788085938 -46.875 388.834960938 -44.921875 388.18359375 c 0
 -1.3017578125 376.139648438 36.7021484375 364.583007812 69.091796875 353.515625 c 128
 101.481445312 342.448242188 133.544921875 328.938476562 165.283203125 312.98828125 c 128
 197.021484375 297.038085938 222.819335938 280.2734375 242.67578125 262.6953125 c 128
 262.532226562 245.1171875 278.727539062 224.284179688 291.259765625 200.1953125 c 128
 303.791992188 176.106445312 310.221679688 149.739257812 310.546875 121.09375 c 0
 311.198242188 75.8466796875 303.059570312 48.1767578125 286.1328125 38.0859375 c 0
 268.229492188 27.34375 246.58203125 25.0654296875 221.19140625 31.25 c 0
 205.56640625 35.15625 195.80078125 47.2001953125 191.89453125 67.3828125 c 0
 188.313476562 86.5888671875 192.87109375 97.3310546875 205.56640625 99.609375 c 0
 209.47265625 100.260742188 213.8671875 99.7724609375 218.75 98.14453125 c 0
 252.604492188 86.42578125 275.390625 88.2158203125 287.109375 103.515625 c 0
 288.411132812 105.46875 288.899414062 106.93359375 288.57421875 107.91015625 c 0
 263.508789062 186.686523438 152.180664062 249.348632812 -45.41015625 295.8984375 c 0
 -60.7099609375 299.479492188 -70.1494140625 308.59375 -73.73046875 323.2421875 c 0
 -78.2880859375 341.796875 -77.4736328125 366.129882812 -71.2890625 396.240234375 c 128
 -65.1044921875 426.350585938 -59.2451171875 444.172851562 -53.7109375 449.70703125 c 0
 -23.7626953125 481.608398438 50.78125 526.530273438 169.921875 584.47265625 c 0
 289.0625 642.741210938 395.5078125 688.151367188 489.2578125 720.703125 c 0
 495.768554688 722.981445312 501.46484375 722.493164062 506.34765625 719.23828125 c 128
 511.23046875 715.983398438 512.043945312 709.635742188 508.7890625 700.1953125 c 0
 497.395507812 669.270507812 490.234375 650.390625 487.3046875 643.5546875 c 0
 484.700195312 637.6953125 480.793945312 633.952148438 475.5859375 632.32421875 c 0
 428.385742188 616.69921875 343.505859375 582.112304688 220.947265625 528.564453125 c 128
 98.388671875 475.016601562 10.25390625 432.454101562 -43.45703125 400.87890625 c 0
EndSplineSet
Fore
SplineSet
116 90 m 0
 111 94 107 95 105 91 c 0
 71 37 36 7 0 0 c 0
 -7 -1 -13 5 -18 20 c 128
 -23 35 -23 50 -21 66 c 128
 -19 82 -12 89 0 90 c 0
 48 92 87 110 117 145 c 0
 122 151 128 151 134 146 c 0
 157 125 185 109 219 98 c 0
 233 93 243 80 248 58 c 128
 253 36 247 26 231 29 c 0
 196 35 158 55 116 90 c 0
EndSplineSet
EndChar

StartChar: aLam.init.LamMemInit
Encoding: 1114206 -1 95
Width: 208
AnchorPoint: "Stroke" -41 521 basechar 0
AnchorPoint: "TwoDotsBelow" 49 -73 basechar 0
AnchorPoint: "TwoDotsAbove" -112 810 basechar 0
AnchorPoint: "DotAbove" -53 810 basechar 0
AnchorPoint: "TashkilBelow" 0 -327 basechar 0
AnchorPoint: "TashkilAbove" 83 801 basechar 0
AnchorPoint: "VAbove" -53 761 basechar 0
LayerCount: 2
Back
SplineSet
-6.8359375 191.89453125 m 0
 10.7421875 196.125976562 21.484375 189.453125 25.390625 171.875 c 0
 26.3671875 165.0390625 33.203125 157.551757812 45.8984375 149.4140625 c 0
 56.640625 142.903320312 71.77734375 134.928710938 91.30859375 125.48828125 c 0
 117.024414062 113.118164062 132.975585938 104.329101562 139.16015625 99.12109375 c 0
 144.04296875 94.8896484375 146.159179688 90.33203125 145.5078125 85.44921875 c 24
 140.299804688 43.45703125 133.7890625 12.0439453125 125.9765625 -8.7890625 c 0
 124.674804688 -12.0439453125 121.256835938 -13.916015625 115.72265625 -14.404296875 c 128
 110.188476562 -14.892578125 106.120117188 -13.8349609375 103.515625 -11.23046875 c 0
 67.3828125 24.5771484375 38.0859375 45.41015625 15.625 51.26953125 c 0
 -0.9765625 55.5009765625 -18.4736328125 54.6875 -36.865234375 48.828125 c 128
 -55.2568359375 42.96875 -75.3583984375 33.3662109375 -97.16796875 20.01953125 c 128
 -118.977539062 6.6728515625 -135.905273438 0 -147.94921875 0 c 0
 -153.80859375 0 -158.366210938 4.39453125 -161.62109375 13.18359375 c 0
 -167.805664062 32.0634765625 -167.643554688 52.5712890625 -161.1328125 74.70703125 c 0
 -158.203125 84.47265625 -153.80859375 89.6806640625 -147.94921875 90.33203125 c 0
 -106.608398438 93.5869140625 -60.3837890625 105.793945312 -9.27734375 126.953125 c 1
 -20.3447265625 167.643554688 -19.53125 189.290039062 -6.8359375 191.89453125 c 0
-9.27734375 126.953125 m 1
 14.4853515625 134.440429688 39.0625 135.579101562 64.453125 130.37109375 c 128
 89.84375 125.163085938 112.79296875 116.047851562 133.30078125 103.02734375 c 0
 142.08984375 97.4931640625 146.159179688 91.6337890625 145.5078125 85.44921875 c 0
 139.323242188 40.8525390625 132.8125 9.4404296875 125.9765625 -8.7890625 c 0
 124.674804688 -12.0439453125 121.256835938 -13.916015625 115.72265625 -14.404296875 c 128
 110.188476562 -14.892578125 106.120117188 -13.8349609375 103.515625 -11.23046875 c 0
 67.3828125 24.5771484375 38.0859375 45.41015625 15.625 51.26953125 c 0
 -0.9765625 55.5009765625 -18.4736328125 54.6875 -36.865234375 48.828125 c 128
 -55.2568359375 42.96875 -75.2763671875 34.2607421875 -96.923828125 22.705078125 c 128
 -118.571289062 11.1494140625 -135.579101562 3.5810546875 -147.94921875 0 c 0
 -153.483398438 -1.6279296875 -158.040039062 2.7666015625 -161.62109375 13.18359375 c 0
 -168.45703125 34.0166015625 -168.293945312 54.5244140625 -161.1328125 74.70703125 c 0
 -157.877929688 83.8212890625 -153.3203125 88.7041015625 -147.4609375 89.35546875 c 0
 -105.46875 94.8896484375 -59.4072265625 107.421875 -9.27734375 126.953125 c 1
EndSplineSet
Fore
SplineSet
-14 476 m 0
 3 298 16 195 26 169 c 128
 36 143 34 126 22 117 c 128
 10 108 -1 111 -9 126 c 0
 -24 154 -40 259 -58 441 c 0
 -65 518 -70 567 -73 588 c 1
 -84 634 l 2
 -87 646 -86 656 -83 662 c 0
 -71 683 -64 695 -60 700 c 24
 -51 712 -45 712 -42 701 c 0
 -37 677 -22 652 3 625 c 0
 8 620 9 614 5 609 c 0
 -5 595 -12 585 -17 579 c 128
 -22 573 -24 568 -23 561 c 128
 -22 554 -19 526 -14 476 c 0
EndSplineSet
EndChar

StartChar: aMem.medi.LamMemInit
Encoding: 1114207 -1 96
Width: 147
AnchorPoint: "TashkilBelow" 0 -327 basechar 0
AnchorPoint: "TashkilAbove" 49 801 basechar 0
LayerCount: 2
Back
SplineSet
89.35546875 702.1484375 m 1
 92.9365234375 707.682617188 96.2724609375 709.9609375 99.365234375 708.984375 c 128
 102.458007812 708.0078125 104.329101562 705.729492188 104.98046875 702.1484375 c 0
 107.258789062 691.731445312 112.956054688 678.955078125 122.0703125 663.818359375 c 128
 131.184570312 648.681640625 140.788085938 635.7421875 150.87890625 625 c 0
 155.76171875 619.791992188 156.413085938 614.583007812 152.83203125 609.375 c 0
 142.741210938 595.051757812 134.440429688 583.821289062 127.9296875 575.68359375 c 0
 125.651367188 572.75390625 124.836914062 567.057617188 125.48828125 558.59375 c 2
 133.7890625 475.5859375 l 2
 138.346679688 428.7109375 141.764648438 395.833007812 144.04296875 376.953125 c 2
 152.83203125 297.8515625 l 2
 156.73828125 263.997070312 160.319335938 237.3046875 163.57421875 217.7734375 c 128
 166.829101562 198.2421875 170.084960938 182.942382812 173.33984375 171.875 c 0
 175.618164062 164.387695312 182.536132812 156.982421875 194.091796875 149.658203125 c 128
 205.647460938 142.333984375 220.703125 134.27734375 239.2578125 125.48828125 c 128
 257.8125 116.69921875 271.809570312 109.211914062 281.25 103.02734375 c 0
 281.575195312 103.02734375 282.470703125 102.5390625 283.935546875 101.5625 c 128
 285.400390625 100.5859375 286.458007812 99.7724609375 287.109375 99.12109375 c 128
 287.760742188 98.4697265625 288.737304688 97.5751953125 290.0390625 96.435546875 c 128
 291.340820312 95.2958984375 292.155273438 94.1572265625 292.48046875 93.017578125 c 128
 292.805664062 91.8779296875 292.96875 90.576171875 292.96875 89.111328125 c 128
 292.96875 87.646484375 292.48046875 85.9375 291.50390625 83.984375 c 0
 279.459960938 60.2216796875 270.670898438 44.1083984375 265.13671875 35.64453125 c 0
 261.23046875 29.78515625 253.743164062 28.9716796875 242.67578125 33.203125 c 0
 226.725585938 39.3876953125 207.600585938 50.8623046875 185.302734375 67.626953125 c 128
 163.004882812 84.3916015625 147.4609375 104.166992188 138.671875 126.953125 c 0
 128.581054688 153.971679688 119.709960938 193.84765625 112.060546875 246.58203125 c 128
 104.411132812 299.31640625 97.0048828125 364.094726562 89.84375 440.91796875 c 128
 82.6826171875 517.741210938 77.7998046875 566.731445312 75.1953125 587.890625 c 1
 63.96484375 633.7890625 l 2
 61.03515625 645.182617188 61.1982421875 654.459960938 64.453125 661.62109375 c 0
 66.0810546875 665.852539062 69.9873046875 672.526367188 76.171875 681.640625 c 128
 82.3564453125 690.754882812 86.7509765625 697.590820312 89.35546875 702.1484375 c 1
EndSplineSet
Fore
SplineSet
141 192 m 1
 159 196 169 190 173 172 c 1
 174 165 180 158 192 151 c 128
 204 144 221 134 244 123 c 128
 267 112 280 105 286 100 c 128
 292 95 294 90 293 85 c 24
 288 43 282 12 274 -9 c 0
 273 -12 270 -14 264 -14 c 128
 258 -14 254 -14 251 -11 c 0
 215 25 185 45 159 52 c 128
 133 59 97 48 51 20 c 0
 29 7 12 0 0 0 c 0
 -6 0 -11 4 -14 13 c 1
 -30 62 -25 88 0 90 c 24
 43 94 90 106 139 127 c 1
 128 168 128 189 141 192 c 1
EndSplineSet
EndChar

StartChar: aLam.init.LamAlfIsol
Encoding: 1114208 -1 97
Width: 302
AnchorPoint: "Stroke" 199 535 basechar 0
AnchorPoint: "TwoDotsBelow" 137 -73 basechar 0
AnchorPoint: "TwoDotsAbove" 132 806 basechar 0
AnchorPoint: "DotAbove" 190 837 basechar 0
AnchorPoint: "TashkilBelow" 117 -356 basechar 0
AnchorPoint: "TashkilAbove" 195 801 basechar 0
AnchorPoint: "VAbove" 54 678 basechar 0
LayerCount: 2
Back
SplineSet
-13.671875 84.9609375 m 0
 -3.90625 83.984375 19.6943359375 83.3330078125 57.12890625 83.0078125 c 0
 87.40234375 82.6826171875 109.538085938 85.1240234375 123.53515625 90.33203125 c 1
 121.58203125 108.88671875 117.024414062 127.766601562 109.86328125 146.97265625 c 0
 102.375976562 167.155273438 97.16796875 180.012695312 94.23828125 185.546875 c 0
 65.91796875 243.815429688 24.4140625 311.279296875 -30.2734375 387.939453125 c 128
 -84.9609375 464.599609375 -127.604492188 517.578125 -158.203125 546.875 c 1
 -172.36328125 520.99609375 l 1
 -181.477539062 515.13671875 -189.616210938 516.438476562 -196.77734375 524.90234375 c 2
 -266.11328125 599.12109375 l 2
 -275.87890625 610.514648438 -279.622070312 623.53515625 -277.34375 638.18359375 c 2
 -264.6484375 725.5859375 l 2
 -263.346679688 734.375 -259.765625 739.013671875 -253.90625 739.501953125 c 128
 -248.046875 739.990234375 -243.489257812 737.956054688 -240.234375 733.3984375 c 1
 -218.098632812 716.145507812 -182.780273438 678.466796875 -134.27734375 620.361328125 c 128
 -85.7744140625 562.255859375 -35.8076171875 495.361328125 15.625 419.677734375 c 128
 67.0576171875 343.994140625 102.5390625 281.413085938 122.0703125 231.93359375 c 0
 130.208007812 211.42578125 135.25390625 197.590820312 137.20703125 190.4296875 c 0
 156.086914062 129.8828125 165.690429688 88.0537109375 166.015625 64.94140625 c 0
 166.340820312 50.6181640625 163.0859375 37.6787109375 156.25 26.123046875 c 128
 149.4140625 14.5673828125 142.741210938 7.9755859375 136.23046875 6.34765625 c 0
 116.69921875 1.1396484375 79.833984375 -1.6279296875 25.634765625 -1.953125 c 128
 -28.564453125 -2.2783203125 -57.9423828125 -1.6279296875 -62.5 0 c 1
 -72.9169921875 1.3017578125 -79.2646484375 3.7431640625 -81.54296875 7.32421875 c 0
 -86.42578125 16.7646484375 -88.0537109375 29.7041015625 -86.42578125 46.142578125 c 128
 -84.7978515625 62.5810546875 -81.3798828125 73.8935546875 -76.171875 80.078125 c 0
 -70.3125 86.9140625 -65.7548828125 90.0068359375 -62.5 89.35546875 c 0
 -59.2451171875 89.0302734375 -42.96875 87.5654296875 -13.671875 84.9609375 c 0
EndSplineSet
Fore
SplineSet
57 54 m 0
 37 34 14 24 -14 23 c 0
 -32 23 -40 26 -40 33 c 128
 -40 40 -32 48 -16 57 c 0
 92 117 153 226 168 386 c 0
 176 468 177 550 171 631 c 0
 169 657 170 673 174 680 c 0
 188 705 196 720 199 724 c 128
 202 728 205 730 209 729 c 128
 213 728 216 726 217 722 c 0
 227 683 237 658 247 647 c 128
 257 636 257 626 248 617 c 2
 220 588 l 1
 223 513 214 427 195 329 c 0
 173 214 127 122 57 54 c 0
EndSplineSet
EndChar

StartChar: aAlf.fina.LamAlfIsol
Encoding: 1114209 -1 98
Width: 340
AnchorPoint: "DigitAbove" 24 635 basechar 0
AnchorPoint: "TashkilBelow" 151 -327 basechar 0
AnchorPoint: "TashkilAbove" 0 801 basechar 0
AnchorPoint: "HamzaBelow" 270 -137 basechar 0
AnchorPoint: "HamzaAbove" 212 786 basechar 0
LayerCount: 2
Back
SplineSet
397.94921875 53.7109375 m 0
 380.37109375 34.1796875 356.608398438 23.92578125 326.66015625 22.94921875 c 0
 309.08203125 22.6240234375 300.456054688 26.3671875 300.78125 34.1796875 c 0
 301.106445312 40.6904296875 309.407226562 48.33984375 325.68359375 57.12890625 c 0
 369.62890625 81.54296875 406.25 114.583007812 435.546875 156.25 c 0
 436.198242188 157.2265625 445.3125 172.688476562 462.890625 202.63671875 c 0
 486.328125 242.67578125 501.953125 303.874023438 509.765625 386.23046875 c 128
 517.578125 468.586914062 518.391601562 550.129882812 512.20703125 630.859375 c 0
 510.25390625 656.575195312 511.393554688 673.014648438 515.625 680.17578125 c 0
 529.622070312 705.241210938 538.0859375 720.21484375 541.015625 725.09765625 c 0
 542.96875 728.678710938 545.979492188 730.061523438 550.048828125 729.248046875 c 128
 554.118164062 728.434570312 556.803710938 726.07421875 558.10546875 722.16796875 c 0
 568.196289062 683.430664062 578.61328125 657.71484375 589.35546875 645.01953125 c 0
 597.819335938 635.25390625 597.819335938 625.9765625 589.35546875 617.1875 c 2
 561.03515625 588.37890625 l 1
 564.290039062 494.954101562 556.071289062 408.366210938 536.376953125 328.61328125 c 128
 516.682617188 248.860351562 497.395507812 193.034179688 478.515625 161.1328125 c 0
 468.424804688 144.206054688 459.309570312 129.719726562 451.171875 117.67578125 c 0
 441.731445312 104.00390625 423.991210938 82.6826171875 397.94921875 53.7109375 c 0
EndSplineSet
Fore
SplineSet
279 60 m 0
 375 50 436 51 464 61 c 1
 457 126 410 219 323 341 c 0
 260 429 214 489 183 518 c 1
 168 492 l 0
 159 486 151 488 144 496 c 0
 75 570 l 0
 65 581 61 594 63 609 c 2
 77 696 l 2
 78 705 81 710 86 710 c 0
 100 711 137 675 198 601 c 0
 259 528 312 458 356 391 c 0
 450 248 501 131 507 42 c 0
 509 4 500 -17 478 -23 c 0
 416 -39 348 -41 274 -29 c 0
 266 -28 262 -26 260 -22 c 0
 248 7 250 31 265 51 c 0
 270 58 275 61 279 60 c 0
EndSplineSet
EndChar

StartChar: aLam.init.LamHaaMemInit
Encoding: 1114210 -1 99
Width: 471
AnchorPoint: "Stroke" 86 540 basechar 0
AnchorPoint: "TwoDotsBelow" 59 -73 basechar 0
AnchorPoint: "TwoDotsAbove" 7 824 basechar 0
AnchorPoint: "DotAbove" 65 824 basechar 0
AnchorPoint: "TashkilBelow" 322 -327 basechar 0
AnchorPoint: "TashkilAbove" 249 801 basechar 0
AnchorPoint: "VAbove" 65 775 basechar 0
LayerCount: 2
Back
SplineSet
37.841796875 764.16015625 m 128
 42.8876953125 776.204101562 46.3056640625 783.935546875 48.095703125 787.353515625 c 128
 49.8857421875 790.771484375 52.4091796875 792.48046875 55.6640625 792.48046875 c 128
 58.9189453125 792.48046875 61.1982421875 790.852539062 62.5 787.59765625 c 0
 74.8701171875 753.41796875 90.8203125 727.213867188 110.3515625 708.984375 c 0
 115.559570312 703.776367188 115.72265625 697.590820312 110.83984375 690.4296875 c 1
 85.44921875 656.25 l 2
 84.1474609375 654.296875 88.134765625 629.39453125 97.412109375 581.54296875 c 128
 106.689453125 533.69140625 111.979492188 493.000976562 113.28125 459.47265625 c 128
 114.583007812 425.944335938 108.967773438 402.83203125 96.435546875 390.13671875 c 128
 83.9033203125 377.44140625 58.2685546875 362.956054688 19.53125 346.6796875 c 1
 -9.1142578125 378.254882812 -4.8828125 396.159179688 32.2265625 400.390625 c 0
 55.0126953125 402.995117188 73.2421875 406.901367188 86.9140625 412.109375 c 1
 83.6591796875 449.543945312 76.0087890625 497.395507812 63.96484375 555.6640625 c 128
 51.9208984375 613.932617188 44.677734375 650.065429688 42.236328125 664.0625 c 128
 39.794921875 678.059570312 36.0517578125 693.115234375 31.005859375 709.228515625 c 128
 25.9599609375 725.341796875 24.5771484375 735.514648438 26.85546875 739.74609375 c 128
 29.1337890625 743.977539062 32.7958984375 752.116210938 37.841796875 764.16015625 c 128
-47.36328125 218.75 m 0
 -39.55078125 224.934570312 -23.4375 217.610351562 0.9765625 196.77734375 c 0
 8.4638671875 190.266601562 18.06640625 182.780273438 29.78515625 174.31640625 c 128
 41.50390625 165.852539062 50.4560546875 159.260742188 56.640625 154.541015625 c 128
 62.8251953125 149.821289062 69.1728515625 143.5546875 75.68359375 135.7421875 c 128
 82.1943359375 127.9296875 86.181640625 120.280273438 87.646484375 112.79296875 c 128
 89.111328125 105.305664062 89.0302734375 95.7841796875 87.40234375 84.228515625 c 128
 85.7744140625 72.6728515625 81.54296875 59.5703125 74.70703125 44.921875 c 0
 72.1025390625 39.3876953125 67.9521484375 36.2138671875 62.255859375 35.400390625 c 128
 56.5595703125 34.5869140625 51.5947265625 35.9697265625 47.36328125 39.55078125 c 0
 13.18359375 67.2197265625 -30.9248046875 92.7734375 -84.9609375 116.2109375 c 1
 -88.5419921875 110.676757812 -95.21484375 99.6904296875 -104.98046875 83.251953125 c 128
 -114.74609375 66.8134765625 -122.151367188 54.8505859375 -127.197265625 47.36328125 c 128
 -132.243164062 39.8759765625 -139.323242188 31.25 -148.4375 21.484375 c 128
 -157.551757812 11.71875 -166.829101562 4.5576171875 -176.26953125 0 c 0
 -180.17578125 -1.953125 -184.895507812 2.7666015625 -190.4296875 14.16015625 c 0
 -202.473632812 38.57421875 -204.426757812 59.08203125 -196.2890625 75.68359375 c 0
 -192.3828125 83.8212890625 -185.709960938 88.7041015625 -176.26953125 90.33203125 c 0
 -157.063476562 93.5869140625 -140.299804688 100.260742188 -125.9765625 110.3515625 c 128
 -111.653320312 120.442382812 -101.643554688 129.963867188 -95.947265625 138.916015625 c 128
 -90.2509765625 147.868164062 -84.716796875 158.447265625 -79.345703125 170.654296875 c 128
 -73.974609375 182.861328125 -70.80078125 189.616210938 -69.82421875 190.91796875 c 0
 -61.03515625 204.264648438 -53.5478515625 213.541992188 -47.36328125 218.75 c 0
-91.30859375 319.3359375 m 0
 -88.7041015625 339.84375 -81.2177734375 356.93359375 -68.84765625 370.60546875 c 0
 -55.5009765625 385.25390625 -32.3076171875 394.368164062 0.732421875 397.94921875 c 128
 33.7724609375 401.530273438 64.453125 397.624023438 92.7734375 386.23046875 c 0
 101.5625 382.649414062 118.083007812 375.732421875 142.333984375 365.478515625 c 128
 166.584960938 355.224609375 183.349609375 348.307617188 192.626953125 344.7265625 c 128
 201.904296875 341.145507812 216.796875 335.774414062 237.3046875 328.61328125 c 128
 257.8125 321.452148438 275.065429688 316.40625 289.0625 313.4765625 c 128
 303.059570312 310.546875 320.393554688 307.454101562 341.064453125 304.19921875 c 128
 361.735351562 300.944335938 382.8125 298.828125 404.296875 297.8515625 c 0
 407.877929688 297.526367188 409.016601562 294.596679688 407.71484375 289.0625 c 0
 402.506835938 264.6484375 393.391601562 243.1640625 380.37109375 224.609375 c 0
 378.743164062 222.004882812 375.9765625 221.19140625 372.0703125 222.16796875 c 0
 335.612304688 230.305664062 301.838867188 235.83984375 270.751953125 238.76953125 c 128
 239.665039062 241.69921875 199.788085938 240.153320312 151.123046875 234.130859375 c 128
 102.458007812 228.108398438 52.4091796875 215.657226562 0.9765625 196.77734375 c 0
 -15.2998046875 190.91796875 -30.4365234375 191.40625 -44.43359375 198.2421875 c 0
 -55.17578125 203.450195312 -55.9892578125 210.286132812 -46.875 218.75 c 0
 -29.9482421875 234.375 27.83203125 253.41796875 126.46484375 275.87890625 c 0
 130.045898438 276.85546875 131.754882812 278.157226562 131.591796875 279.78515625 c 128
 131.428710938 281.413085938 129.719726562 282.877929688 126.46484375 284.1796875 c 0
 100.09765625 295.8984375 76.904296875 304.606445312 56.884765625 310.302734375 c 128
 36.865234375 315.999023438 13.916015625 319.661132812 -11.962890625 321.2890625 c 128
 -37.841796875 322.916992188 -62.3369140625 319.661132812 -85.44921875 311.5234375 c 0
 -88.37890625 310.872070312 -90.1689453125 311.198242188 -90.8203125 312.5 c 128
 -91.4716796875 313.801757812 -91.6337890625 316.081054688 -91.30859375 319.3359375 c 0
EndSplineSet
Fore
SplineSet
50 701 m 128
 55 713 58 721 60 724 c 128
 62 727 65 729 68 729 c 128
 71 729 74 727 75 724 c 0
 87 692 103 666 123 646 c 0
 128 641 128 634 123 627 c 1
 98 593 l 2
 108 528 l 0
 118 455 115 409 97 390 c 0
 86 378 61 364 20 347 c 1
 -9 379 -5 396 32 400 c 0
 55 403 73 407 87 412 c 1
 88 421 83 451 74 503 c 0
 63 565 53 613 43 646 c 0
 38 662 37 672 39 676 c 128
 41 680 45 689 50 701 c 128
EndSplineSet
EndChar

StartChar: aHaa.medi.LamHaaMemInit
Encoding: 1114211 -1 100
Width: 30
AnchorPoint: "DigitBelow" 362 5 basechar 0
AnchorPoint: "TaaBelow" 362 200 basechar 0
AnchorPoint: "TaaAbove" 362 537 basechar 0
AnchorPoint: "TashkilBelow" 127 -327 basechar 0
AnchorPoint: "TashkilAbove" 74 801 basechar 0
AnchorPoint: "DotAbove" 362 537 basechar 0
AnchorPoint: "DotBelow" 362 5 basechar 0
AnchorPoint: "HamzaAbove" 362 537 basechar 0
AnchorPoint: "HamzaBelow" 362 5 basechar 0
AnchorPoint: "TwoDotsAbove" 308 537 basechar 0
AnchorPoint: "TwoDotsBelow" 308 5 basechar 0
LayerCount: 2
Back
SplineSet
79.1015625 787.59765625 m 0
 80.7294921875 790.852539062 83.1708984375 792.48046875 86.42578125 792.48046875 c 128
 89.6806640625 792.48046875 91.9599609375 790.852539062 93.26171875 787.59765625 c 0
 105.631835938 753.41796875 121.58203125 727.213867188 141.11328125 708.984375 c 0
 146.321289062 703.776367188 146.321289062 697.590820312 141.11328125 690.4296875 c 2
 116.2109375 656.25 l 2
 114.909179688 654.296875 115.071289062 648.112304688 116.69921875 637.6953125 c 0
 117.350585938 633.7890625 119.384765625 623.127929688 122.802734375 605.712890625 c 128
 126.220703125 588.297851562 129.150390625 572.998046875 131.591796875 559.814453125 c 128
 134.033203125 546.630859375 136.555664062 531.005859375 139.16015625 512.939453125 c 128
 141.764648438 494.873046875 143.391601562 479.4921875 144.04296875 466.796875 c 0
 145.99609375 429.036132812 138.997070312 402.180664062 123.046875 386.23046875 c 0
 112.956054688 376.139648438 88.623046875 362.956054688 50.048828125 346.6796875 c 128
 11.474609375 330.403320312 -23.6005859375 318.684570312 -55.17578125 311.5234375 c 0
 -58.10546875 310.872070312 -59.8955078125 311.198242188 -60.546875 312.5 c 128
 -61.1982421875 313.801757812 -61.3603515625 316.081054688 -61.03515625 319.3359375 c 0
 -57.12890625 343.098632812 -48.5029296875 361.002929688 -35.15625 373.046875 c 128
 -21.8095703125 385.090820312 -7.8125 392.008789062 6.8359375 393.798828125 c 128
 21.484375 395.588867188 40.1201171875 397.786132812 62.744140625 400.390625 c 128
 85.3681640625 402.995117188 103.515625 406.901367188 117.1875 412.109375 c 1
 113.932617188 449.543945312 106.282226562 497.395507812 94.23828125 555.6640625 c 128
 82.1943359375 613.932617188 75.1953125 649.4140625 73.2421875 662.109375 c 0
 70.6376953125 677.409179688 65.5927734375 697.102539062 58.10546875 721.19140625 c 0
 55.5009765625 729.329101562 55.0126953125 735.026367188 56.640625 738.28125 c 0
 59.2451171875 743.489257812 63.1513671875 752.116210938 68.359375 764.16015625 c 128
 73.5673828125 776.204101562 77.1484375 784.016601562 79.1015625 787.59765625 c 0
-17.08984375 218.75 m 0
 -9.27734375 224.934570312 6.9990234375 217.610351562 31.73828125 196.77734375 c 0
 39.2255859375 190.266601562 48.828125 182.780273438 60.546875 174.31640625 c 128
 72.265625 165.852539062 81.1357421875 159.260742188 87.158203125 154.541015625 c 128
 93.1806640625 149.821289062 99.5283203125 143.5546875 106.201171875 135.7421875 c 128
 112.874023438 127.9296875 116.943359375 120.280273438 118.408203125 112.79296875 c 128
 119.873046875 105.305664062 119.709960938 95.7841796875 117.919921875 84.228515625 c 128
 116.129882812 72.6728515625 111.81640625 59.5703125 104.98046875 44.921875 c 0
 102.375976562 39.3876953125 98.2255859375 36.2138671875 92.529296875 35.400390625 c 128
 86.8330078125 34.5869140625 82.03125 35.9697265625 78.125 39.55078125 c 0
 43.9453125 67.2197265625 -0.3251953125 92.7734375 -54.6875 116.2109375 c 1
 -58.2685546875 110.676757812 -64.8603515625 99.6904296875 -74.462890625 83.251953125 c 128
 -84.0654296875 66.8134765625 -91.3896484375 54.8505859375 -96.435546875 47.36328125 c 128
 -101.481445312 39.8759765625 -108.642578125 31.25 -117.919921875 21.484375 c 128
 -127.197265625 11.71875 -136.555664062 4.5576171875 -145.99609375 0 c 0
 -149.90234375 -1.953125 -154.622070312 2.7666015625 -160.15625 14.16015625 c 0
 -172.200195312 38.57421875 -174.153320312 59.08203125 -166.015625 75.68359375 c 0
 -162.109375 83.8212890625 -155.2734375 88.7041015625 -145.5078125 90.33203125 c 0
 -126.301757812 93.5869140625 -109.538085938 100.260742188 -95.21484375 110.3515625 c 128
 -80.8916015625 120.442382812 -70.9638671875 129.963867188 -65.4296875 138.916015625 c 128
 -59.8955078125 147.868164062 -54.3623046875 158.447265625 -48.828125 170.654296875 c 128
 -43.2939453125 182.861328125 -40.2021484375 189.616210938 -39.55078125 190.91796875 c 0
 -30.76171875 204.264648438 -23.2744140625 213.541992188 -17.08984375 218.75 c 0
EndSplineSet
Fore
SplineSet
-61 319 m 0
 -58 340 -51 357 -38 371 c 128
 -25 385 -2 394 31 398 c 128
 64 402 95 397 123 386 c 1
 224 344 285 321 306 316 c 0
 357 305 401 300 435 298 c 0
 439 298 439 295 438 289 c 0
 433 265 424 244 411 225 c 0
 409 222 406 221 402 222 c 0
 362 231 328 237 301 239 c 0
 220 245 131 231 32 197 c 0
 15 191 0 191 -12 197 c 128
 -24 203 -25 211 -16 219 c 0
 1 235 58 254 157 276 c 0
 161 277 163 278 163 280 c 0
 162 287 136 297 85 311 c 128
 34 325 -13 326 -55 312 c 24
 -60 310 -62 312 -61 319 c 0
EndSplineSet
EndChar

StartChar: aMem.medi.LamHaaMemInit
Encoding: 1114212 -1 101
Width: 147
AnchorPoint: "TashkilBelow" 93 -327 basechar 0
AnchorPoint: "TashkilAbove" 49 801 basechar 0
LayerCount: 2
Back
SplineSet
226.5625 787.59765625 m 0
 228.190429688 790.852539062 230.712890625 792.48046875 234.130859375 792.48046875 c 128
 237.548828125 792.48046875 239.74609375 790.852539062 240.72265625 787.59765625 c 0
 253.092773438 753.41796875 269.04296875 727.213867188 288.57421875 708.984375 c 0
 293.782226562 703.776367188 293.9453125 697.590820312 289.0625 690.4296875 c 2
 264.16015625 656.25 l 2
 262.858398438 654.296875 263.020507812 648.112304688 264.6484375 637.6953125 c 0
 265.299804688 633.7890625 267.333984375 623.127929688 270.751953125 605.712890625 c 128
 274.169921875 588.297851562 277.099609375 572.998046875 279.541015625 559.814453125 c 128
 281.982421875 546.630859375 284.504882812 531.005859375 287.109375 512.939453125 c 128
 289.713867188 494.873046875 291.340820312 479.4921875 291.9921875 466.796875 c 0
 293.9453125 429.036132812 286.946289062 402.180664062 270.99609375 386.23046875 c 0
 260.905273438 376.139648438 236.572265625 362.956054688 197.998046875 346.6796875 c 128
 159.423828125 330.403320312 124.348632812 318.684570312 92.7734375 311.5234375 c 0
 89.84375 310.872070312 88.0537109375 311.198242188 87.40234375 312.5 c 128
 86.7509765625 313.801757812 86.5888671875 316.081054688 86.9140625 319.3359375 c 0
 90.8203125 343.098632812 99.4462890625 361.002929688 112.79296875 373.046875 c 128
 126.139648438 385.090820312 140.13671875 392.008789062 154.78515625 393.798828125 c 128
 169.43359375 395.588867188 188.069335938 397.786132812 210.693359375 400.390625 c 128
 233.317382812 402.995117188 251.46484375 406.901367188 265.13671875 412.109375 c 1
 261.881835938 449.543945312 254.231445312 497.395507812 242.1875 555.6640625 c 128
 230.143554688 613.932617188 223.14453125 649.4140625 221.19140625 662.109375 c 0
 218.586914062 677.409179688 213.541992188 697.102539062 206.0546875 721.19140625 c 0
 203.450195312 729.329101562 202.961914062 735.026367188 204.58984375 738.28125 c 0
 207.194335938 743.489257812 211.018554688 752.116210938 216.064453125 764.16015625 c 128
 221.110351562 776.204101562 224.609375 784.016601562 226.5625 787.59765625 c 0
86.9140625 319.3359375 m 0
 89.5185546875 339.84375 97.0048828125 356.93359375 109.375 370.60546875 c 0
 122.721679688 385.25390625 145.915039062 394.368164062 178.955078125 397.94921875 c 128
 211.995117188 401.530273438 242.67578125 397.624023438 270.99609375 386.23046875 c 0
 279.78515625 382.649414062 296.305664062 375.732421875 320.556640625 365.478515625 c 128
 344.807617188 355.224609375 361.572265625 348.307617188 370.849609375 344.7265625 c 128
 380.126953125 341.145507812 395.01953125 335.774414062 415.52734375 328.61328125 c 128
 436.03515625 321.452148438 453.288085938 316.40625 467.28515625 313.4765625 c 128
 481.282226562 310.546875 498.616210938 307.454101562 519.287109375 304.19921875 c 128
 539.958007812 300.944335938 561.03515625 298.828125 582.51953125 297.8515625 c 0
 586.100585938 297.526367188 587.239257812 294.596679688 585.9375 289.0625 c 0
 580.729492188 264.6484375 571.614257812 243.1640625 558.59375 224.609375 c 0
 556.965820312 222.004882812 554.19921875 221.19140625 550.29296875 222.16796875 c 0
 513.834960938 230.305664062 480.061523438 235.83984375 448.974609375 238.76953125 c 128
 417.887695312 241.69921875 378.010742188 240.153320312 329.345703125 234.130859375 c 128
 280.680664062 228.108398438 230.793945312 215.657226562 179.6875 196.77734375 c 0
 163.411132812 190.91796875 148.112304688 191.40625 133.7890625 198.2421875 c 0
 123.046875 203.450195312 122.395507812 210.286132812 131.8359375 218.75 c 0
 148.762695312 234.375 206.379882812 253.41796875 304.6875 275.87890625 c 0
 308.268554688 276.85546875 310.05859375 278.157226562 310.05859375 279.78515625 c 128
 310.05859375 281.413085938 308.268554688 282.877929688 304.6875 284.1796875 c 0
 278.3203125 295.8984375 255.126953125 304.606445312 235.107421875 310.302734375 c 128
 215.087890625 315.999023438 192.138671875 319.661132812 166.259765625 321.2890625 c 128
 140.380859375 322.916992188 115.885742188 319.661132812 92.7734375 311.5234375 c 0
 89.84375 310.872070312 88.0537109375 311.198242188 87.40234375 312.5 c 128
 86.7509765625 313.801757812 86.5888671875 316.081054688 86.9140625 319.3359375 c 0
EndSplineSet
Fore
SplineSet
136 222 m 1
 154 223 172 214 190 196 c 0
 238 149 260 101 256 52 c 0
 255 36 246 29 227 33 c 0
 188 40 152 64 118 105 c 0
 110 115 103 113 98 101 c 0
 74 37 41 3 0 0 c 0
 -5 0 -8 4 -12 14 c 0
 -21 39 -23 60 -18 76 c 0
 -15 84 -9 88 0 90 c 0
 44 97 73 118 89 153 c 0
 107 193 123 216 136 222 c 1
EndSplineSet
EndChar

